<?xml version="1.0" encoding="utf-8"?>
<!-- Generator: Adobe Illustrator 24.0.0, SVG Export Plug-In . SVG Version: 6.00 Build 0)  -->
<svg version="1.1" id="Слой_1" xmlns="http://www.w3.org/2000/svg" xmlns:xlink="http://www.w3.org/1999/xlink" x="0px" y="0px"
	 viewBox="0 0 190 146" style="enable-background:new 0 0 190 146;" xml:space="preserve">
<style type="text/css">
	.st0{fill-rule:evenodd;clip-rule:evenodd;fill:#C00220;}
</style>
<path id="path8" class="st0" d="M59.4,33.4c-43.2,67.9-19,100.6-18,105.7c0.7,3.6,0.1,6.5-3.2,6.5c-3.4,0-29.9,0.5-30.7,0.5
	c-2.6,0-4.5-1-5.6-2.9c-1.2-1.9-1.7-5.9-1.7-12c0-47.1,50.3-94.6,50.5-114.7c0-3.2-0.4-5.9-2.9-7.8C46.6,7.8,46,6.5,46,5l0-1.1
	c0-2.3,1.9-4.2,4.2-4.2h32.3c2.3,0,4.1,1.9,4,4.2C86,15.2,98.6,101,100.6,114.1c9.1-48.5,28.1-87,28.9-101.4c0.3-6-2.5-6.5-2.9-8.7
	c-0.3-2.3,1.4-4.3,3.8-4.3H160c2,0,3.5,1.7,3.4,3.7c-0.2,3.2-2,3-1.3,9c6.3,55.6,17.4,94.3,27.8,127.9c0.9,2.8-1.8,5.6-4.8,5.6H160
	c-4.1,0-7.5-3-8.1-7.1l-14.9-99c0,0-15.4,23-25.6,102.8c-0.2,1.8-2,3.2-3.8,3.2H81.9c-3.1,0-6.1-2.5-6.7-5.5
	C69.8,112.8,59.4,33.4,59.4,33.4L59.4,33.4z"/>
</svg>
