<svg xmlns="http://www.w3.org/2000/svg" viewBox="0 0 169.09 169.09"><defs><style>.cls-1,.cls-3{fill:#b22825;}.cls-2{fill:#fff;}.cls-3{font-size:75.01px;font-family:Ponder-BlackItalic, Ponder BlackItalic;font-weight:800;font-style:italic;}</style></defs><title>aside__item-10</title><g id="Слой_2" data-name="Слой 2"><g id="Слой_1-2" data-name="Слой 1"><path class="cls-1" d="M117,8.7H52.08a19.62,19.62,0,0,0-17,9.81L2.63,74.73a19.61,19.61,0,0,0,0,19.63l32.46,56.22a19.62,19.62,0,0,0,17,9.81H117a19.61,19.61,0,0,0,17-9.81l32.46-56.22a19.61,19.61,0,0,0,0-19.63L134,18.51A19.61,19.61,0,0,0,117,8.7Z"/><path class="cls-1" d="M74.73,2.63,18.51,35.09a19.62,19.62,0,0,0-9.81,17V117a19.61,19.61,0,0,0,9.81,17l56.22,32.46a19.61,19.61,0,0,0,19.63,0L150.58,134a19.61,19.61,0,0,0,9.81-17V52.08a19.62,19.62,0,0,0-9.81-17L94.36,2.63A19.61,19.61,0,0,0,74.73,2.63Z"/><path class="cls-2" d="M114.14,13.66H55a19.6,19.6,0,0,0-17,9.82L8.36,74.73a19.66,19.66,0,0,0,0,19.63L38,145.62a19.61,19.61,0,0,0,17,9.81h59.19a19.61,19.61,0,0,0,17-9.81l29.6-51.26a19.66,19.66,0,0,0,0-19.63l-29.6-51.25A19.6,19.6,0,0,0,114.14,13.66Z"/><path class="cls-2" d="M74.73,8.36,23.48,38a19.6,19.6,0,0,0-9.82,17v59.19a19.6,19.6,0,0,0,9.82,17l51.25,29.6a19.66,19.66,0,0,0,19.63,0l51.26-29.6a19.61,19.61,0,0,0,9.81-17V55a19.61,19.61,0,0,0-9.81-17L94.36,8.36A19.66,19.66,0,0,0,74.73,8.36Z"/><text class="cls-3" transform="translate(49.8 112.76)">%</text></g></g></svg>