<svg xmlns="http://www.w3.org/2000/svg" viewBox="0 0 164.86 138.28"><defs><style>.cls-1{fill:#b22825;}</style></defs><title>aside__item-6</title><g id="Слой_2" data-name="Слой 2"><g id="Слой_1-2" data-name="Слой 1"><path class="cls-1" d="M2,138.15a1.87,1.87,0,0,1-1.87-1.87v-126a1.88,1.88,0,1,1,3.75,0v126A1.88,1.88,0,0,1,2,138.15Z"/><path class="cls-1" d="M2,8.53a1.75,1.75,0,0,1,1.75,1.75v126a1.75,1.75,0,0,1-3.5,0v-126A1.75,1.75,0,0,1,2,8.53m0-.25a2,2,0,0,0-2,2v126a2,2,0,0,0,4,0v-126a2,2,0,0,0-2-2Z"/><rect class="cls-1" x="16.61" y="26.28" width="3" height="80" rx="1.5"/><rect class="cls-1" x="40.86" y="26.28" width="3" height="80" rx="1.5"/><rect class="cls-1" x="67.12" y="26.28" width="3" height="80" rx="1.5"/><rect class="cls-1" x="93.38" y="26.28" width="3" height="80" rx="1.5"/><rect class="cls-1" x="118.64" y="26.28" width="3" height="80" rx="1.5"/><rect class="cls-1" x="145.89" y="26.28" width="3" height="80" rx="1.5"/><rect class="cls-1" x="160.86" y="8.28" width="4" height="130" rx="2"/><rect class="cls-1" x="2.75" y="102.28" width="160" height="4" rx="2"/><rect class="cls-1" x="2.75" y="25.78" width="160" height="3" rx="1.5"/><path class="cls-1" d="M2,4C4.54,4,4.55,0,2,0S-.61,4,2,4Z"/><path class="cls-1" d="M162.86,4c2.57,0,2.58-4,0-4s-2.58,4,0,4Z"/></g></g></svg>