<svg xmlns="http://www.w3.org/2000/svg" viewBox="0 0 203 116.25"><defs><style>.cls-1{fill:none;stroke:#b22825;stroke-linecap:round;stroke-linejoin:round;stroke-width:3px;}.cls-2{fill:#b22825;}</style></defs><title>aside__item-5</title><g id="Слой_2" data-name="Слой 2"><g id="Слой_1-2" data-name="Слой 1"><rect class="cls-1" x="1.5" y="1.5" width="200" height="113.25"/><line class="cls-1" x1="88.25" y1="1.5" x2="88.25" y2="114.75"/><line class="cls-1" x1="200.3" y1="32.83" x2="89.45" y2="32.83"/><rect class="cls-1" x="113.55" y="56.92" width="62.65" height="33.73"/><line class="cls-1" x1="20.78" y1="44.87" x2="20.78" y2="68.97"/><path class="cls-2" d="M118,19.75c2.58,0,2.58-4,0-4s-2.57,4,0,4Z"/><path class="cls-2" d="M135.64,19.75c2.58,0,2.58-4,0-4s-2.57,4,0,4Z"/><path class="cls-2" d="M153.74,19.75c2.57,0,2.57-4,0-4s-2.58,4,0,4Z"/><path class="cls-2" d="M170.92,19.75c2.58,0,2.58-4,0-4s-2.57,4,0,4Z"/></g></g></svg>