<svg xmlns="http://www.w3.org/2000/svg" viewBox="0 0 205 109.69"><defs><style>.cls-1{fill:#b22825;}.cls-2{fill:none;stroke:#b22825;stroke-linecap:round;stroke-linejoin:round;stroke-width:4px;}</style></defs><title>aside__item-1</title><g id="Слой_2" data-name="Слой 2"><g id="Слой_1-2" data-name="Слой 1"><path class="cls-1" d="M174,4V53.74H31V4H174m.09-4H30.92A3.91,3.91,0,0,0,27,3.91V53.84a3.91,3.91,0,0,0,3.91,3.9h143.2a3.91,3.91,0,0,0,3.91-3.9V3.91A3.91,3.91,0,0,0,174.12,0Z"/><line class="cls-2" x1="102.52" y1="2.82" x2="102.52" y2="47.71"/><path class="cls-1" d="M19.15,33.32a8,8,0,0,1,8,8V53.74H4.5V33.32H19.15m0-4H2.46a2,2,0,0,0-2,2v24.5a2,2,0,0,0,2,2H29.15a2,2,0,0,0,2-2V41.28a12,12,0,0,0-12-12Z"/><path class="cls-1" d="M200.5,33.32V53.74H177.89V41.27a8,8,0,0,1,8-8H200.5m2.05-4H185.84a12,12,0,0,0-12,12V55.79a2,2,0,0,0,2,2h26.71a2,2,0,0,0,1.95-2V31.27a2,2,0,0,0-1.95-1.95Z"/><path class="cls-1" d="M201,58.49V82.55a3,3,0,0,1-3,3H7a3,3,0,0,1-3-3V58.49H201m1.73-4H2.27A2.28,2.28,0,0,0,0,56.77V82.55a7,7,0,0,0,7,7H198a7,7,0,0,0,7-7V56.77a2.28,2.28,0,0,0-2.27-2.28Z"/><line class="cls-2" x1="29.17" y1="107.69" x2="29.17" y2="89.33"/><line class="cls-2" x1="175.95" y1="107.69" x2="175.95" y2="89.33"/><path class="cls-1" d="M56.11,23.5c2.58,0,2.58-4,0-4s-2.58,4,0,4Z"/><path class="cls-1" d="M77.66,23.5c2.57,0,2.58-4,0-4s-2.58,4,0,4Z"/><path class="cls-1" d="M77.66,41.31c2.57,0,2.58-4,0-4s-2.58,4,0,4Z"/><path class="cls-1" d="M56.11,41c2.58,0,2.58-4,0-4s-2.58,4,0,4Z"/><path class="cls-1" d="M125.5,23.5c2.57,0,2.58-4,0-4s-2.58,4,0,4Z"/><path class="cls-1" d="M147.05,23.5c2.57,0,2.58-4,0-4s-2.58,4,0,4Z"/><path class="cls-1" d="M147.05,41.31c2.57,0,2.58-4,0-4s-2.58,4,0,4Z"/><path class="cls-1" d="M125.5,41c2.57,0,2.58-4,0-4s-2.58,4,0,4Z"/></g></g></svg>