<svg xmlns="http://www.w3.org/2000/svg" viewBox="0 0 205.54 96.39"><defs><style>.cls-1{fill:#b22825;}</style></defs><title>aside__item-8</title><g id="Слой_2" data-name="Слой 2"><g id="Слой_1-2" data-name="Слой 1"><rect class="cls-1" x="38.21" y="12.23" width="128.88" height="4" rx="2"/><rect class="cls-1" x="101.47" y="12.62" width="3" height="83.78" rx="1.5"/><rect class="cls-1" x="165.31" y="25.37" width="58" height="4" rx="2" transform="translate(102.13 200.6) rotate(-70)"/><rect class="cls-1" x="122" y="50.89" width="64.44" height="4" rx="2"/><rect class="cls-1" x="152.4" y="44.94" width="3" height="58" rx="1.5" transform="translate(-7.21 130.48) rotate(-45)"/><rect class="cls-1" x="124.26" y="72.44" width="58" height="3" rx="1.5" transform="translate(-7.4 130.02) rotate(-45)"/><rect class="cls-1" x="9.23" y="-1.63" width="4" height="58" rx="2" transform="translate(-8.68 5.49) rotate(-20)"/><rect class="cls-1" x="19.1" y="50.89" width="64.44" height="4" rx="2"/><rect class="cls-1" x="22.65" y="72.44" width="58" height="3" rx="1.5" transform="translate(-37.16 58.18) rotate(-45)"/><rect class="cls-1" x="50.79" y="44.94" width="3" height="58" rx="1.5" transform="translate(-36.97 58.63) rotate(-45)"/></g></g></svg>