<svg xmlns="http://www.w3.org/2000/svg" viewBox="0 0 200 109.41"><defs><style>.cls-1{fill:#b22825;}.cls-2{fill:none;stroke:#b22825;stroke-miterlimit:10;stroke-width:3px;}</style></defs><title>aside__item-7</title><g id="Слой_2" data-name="Слой 2"><g id="Слой_1-2" data-name="Слой 1"><path class="cls-1" d="M163.33,4a6,6,0,0,1,6,6V55.67a7,7,0,0,1-7,7H98.15a6,6,0,0,1-6-6V10a6,6,0,0,1,6-6h65.18m0-4H98.15a10,10,0,0,0-10,10V56.67a10,10,0,0,0,10,10h64.18a11,11,0,0,0,11-11V10a10,10,0,0,0-10-10Z"/><rect class="cls-1" y="105.41" width="200" height="4" rx="2"/><path class="cls-1" d="M140,29.54a1.2,1.2,0,0,1,.9.41l17.54,18.44a1.71,1.71,0,0,1,.31,1.84,1.3,1.3,0,0,1-1.18.88l-35.78.7a1.3,1.3,0,0,1-1.19-.86,1.69,1.69,0,0,1,.3-1.86L139.09,30a1.2,1.2,0,0,1,.89-.41m0-3a4.24,4.24,0,0,0-3.07,1.34L118.71,47c-2.74,2.88-.79,7.78,3.06,7.78h.09l35.74-.7c3.83-.07,5.7-4.94,3-7.79L143.05,27.88A4.24,4.24,0,0,0,140,26.54Z"/><path class="cls-1" d="M117.69,35.53a.35.35,0,0,1,.24.12l13.79,14.5a.68.68,0,0,1,.11.76c-.12.29-.29.29-.35.29l-28.11.55c-.06,0-.22,0-.34-.29a.68.68,0,0,1,.11-.76l14.31-15.05a.35.35,0,0,1,.24-.12m0-3a3.31,3.31,0,0,0-2.41,1L101,48.63c-2.16,2.27-.62,6.12,2.4,6.12h.07l28.1-.55a3.61,3.61,0,0,0,2.35-6.12L120.1,33.58a3.31,3.31,0,0,0-2.41-1Z"/><path class="cls-2" d="M32.59,78.52c-.23,8.36,12.08,19.94,15.45,23a2.92,2.92,0,0,0,2,.74H60.24a3,3,0,0,0,2.13-.91C65.52,98,76,86.4,75.56,78.52c-.75-13.84-14.44-16.64-14.08-28.89C61.68,43,65.16,36.78,68,32.78a2.93,2.93,0,0,0-2.38-4.63H42.5a2.93,2.93,0,0,0-2.39,4.63c2.87,4,6.35,10.18,6.56,16.85C47.05,62.08,33,65.05,32.59,78.52Z"/></g></g></svg>