<svg xmlns="http://www.w3.org/2000/svg" viewBox="0 0 250 222.42"><g id="Слой_2" data-name="Слой 2"><path d="M125 222.42a14.65 14.65 0 01-9.66-3.63c-10.1-8.83-19.84-17.13-28.43-24.45C61.68 172.84 39.93 154.3 24.8 136 7.88 115.63 0 96.28 0 75.13c0-20.54 7-39.49 19.83-53.36A67.22 67.22 0 0169.84 0a62.86 62.86 0 0139.28 13.56A80.46 80.46 0 01125 30.14a80.46 80.46 0 0115.88-16.58A62.88 62.88 0 01180.16 0a67.22 67.22 0 0150 21.77C243 35.64 250 54.59 250 75.13c0 21.15-7.88 40.5-24.79 60.91-15.14 18.26-36.88 36.79-62.07 58.26-8.6 7.33-18.36 15.64-28.48 24.49a14.65 14.65 0 01-9.66 3.63zM69.84 14.64A52.76 52.76 0 0030.6 31.69c-10.29 11.16-16 26.59-16 43.44 0 17.78 6.61 33.69 21.43 51.57 14.36 17.3 35.67 35.43 60.33 56.46 8.62 7.35 18.4 15.68 28.57 24.58 10.23-8.91 20-17.26 28.66-24.62 24.67-21 46-39.17 60.29-56.45 14.82-17.88 21.43-33.79 21.43-51.57 0-16.85-5.67-32.28-16-43.44a52.74 52.74 0 00-39.24-17 48.6 48.6 0 00-30.32 10.5 71 71 0 00-16.9 19.56 9.24 9.24 0 01-15.88 0 71 71 0 00-16.9-19.56 48.6 48.6 0 00-30.23-10.52z" id="Слой_1-2" data-name="Слой 1"/></g></svg>