<svg xmlns="http://www.w3.org/2000/svg" viewBox="0 0 200 158.92"><defs><style>.cls-1{fill:#b22825;}.cls-2{fill:none;stroke:#b22825;stroke-linecap:round;stroke-linejoin:round;stroke-width:3px;}</style></defs><title>aside__item-4</title><g id="Слой_2" data-name="Слой 2"><g id="Слой_1-2" data-name="Слой 1"><path class="cls-1" d="M197,107.42v27.33H3V107.42H197m3-3H0v33.33H200V104.42Z"/><path class="cls-1" d="M175.43,72.08A38.2,38.2,0,0,1,191,85.33a36.1,36.1,0,0,1,6,18.25H3.09a39.11,39.11,0,0,1,6-18.31,41.62,41.62,0,0,1,13.5-13.19H175.43m.65-3H21.75A44.73,44.73,0,0,0,6.53,83.67,42.34,42.34,0,0,0,0,106.58H200a38.84,38.84,0,0,0-6.52-22.91,41.52,41.52,0,0,0-17.37-14.59Z"/><line class="cls-2" x1="11.98" y1="157.42" x2="11.98" y2="136.58"/><line class="cls-2" x1="189.06" y1="157.42" x2="189.06" y2="136.58"/><rect class="cls-2" x="24.48" y="1.5" width="150" height="68.75"/><path class="cls-2" d="M46.14,32.75H88.23a5,5,0,0,1,5,5v32.5a0,0,0,0,1,0,0H41.14a0,0,0,0,1,0,0V37.75A5,5,0,0,1,46.14,32.75Z"/><path class="cls-2" d="M114.89,32.75H157a5,5,0,0,1,5,5v32.5a0,0,0,0,1,0,0H109.89a0,0,0,0,1,0,0V37.75A5,5,0,0,1,114.89,32.75Z"/></g></g></svg>