<?xml version="1.0" encoding="utf-8"?>
<!-- Generator: Adobe Illustrator 23.0.1, SVG Export Plug-In . SVG Version: 6.00 Build 0)  -->
<svg version="1.1" id="Layer_1" xmlns="http://www.w3.org/2000/svg" xmlns:xlink="http://www.w3.org/1999/xlink" x="0px" y="0px"
	 viewBox="0 0 512 512" style="enable-background:new 0 0 512 512;" xml:space="preserve">
<style type="text/css">
	.st0{fill:#EF72AD;}
	.st1{fill:#EE539E;}
	.st2{fill:#FFFFFF;}
</style>
<circle class="st0" cx="256" cy="256" r="256"/>
<path class="st1" d="M256,0c-11.3,0-22.5,0.7-33.4,2.2C348.2,18.5,445.2,125.9,445.2,256s-97,237.5-222.6,253.8
	c10.9,1.4,22.1,2.2,33.4,2.2c141.4,0,256-114.6,256-256S397.4,0,256,0z"/>
<g>
	<path class="st2" d="M350.8,91.8H161.2c-38.2,0-69.3,31.1-69.3,69.3v189.7c0,38.2,31.1,69.3,69.3,69.3h189.7
		c38.2,0,69.3-31.1,69.3-69.3V161.2C420.2,122.9,389.1,91.8,350.8,91.8z M403.5,350.8c0,29-23.6,52.6-52.6,52.6H161.2
		c-29,0-52.6-23.6-52.6-52.6V161.2c0-29,23.6-52.6,52.6-52.6h189.7c29,0,52.6,23.6,52.6,52.6L403.5,350.8L403.5,350.8z"/>
	<path class="st2" d="M256,169.7c-47.6,0-86.3,38.7-86.3,86.3s38.7,86.3,86.3,86.3s86.3-38.7,86.3-86.3S303.6,169.7,256,169.7z
		 M256,325.6c-38.4,0-69.6-31.2-69.6-69.6s31.2-69.6,69.6-69.6s69.6,31.2,69.6,69.6S294.4,325.6,256,325.6z"/>
	<circle class="st2" cx="345" cy="155.8" r="22.3"/>
</g>
</svg>
