<?xml version="1.0" encoding="utf-8"?>
<!-- Generator: Adobe Illustrator 23.0.1, SVG Export Plug-In . SVG Version: 6.00 Build 0)  -->
<svg version="1.1" id="Layer_1" xmlns="http://www.w3.org/2000/svg" xmlns:xlink="http://www.w3.org/1999/xlink" x="0px" y="0px"
	 viewBox="0 0 512 512" style="enable-background:new 0 0 512 512;" xml:space="preserve">
<style type="text/css">
	.st0{fill:#1D81CE;}
	.st1{fill:#126DB1;}
	.st2{fill:#FCFCFC;}
</style>
<circle class="st0" cx="256" cy="256" r="256"/>
<path class="st1" d="M256,0c-11.3,0-22.5,0.7-33.4,2.2C348.2,18.5,445.2,125.9,445.2,256s-97,237.5-222.6,253.8
	c10.9,1.4,22.1,2.2,33.4,2.2c141.4,0,256-114.6,256-256S397.4,0,256,0z"/>
<path class="st2" d="M167,256.1v9.5c0,0.9-0.7,1.6-1.6,1.6H95.7c-3.7,0-6.6,3-6.6,6.6v64.7c0,3.7,3,6.6,6.6,6.6h69.7
	c0.9,0,1.6,0.7,1.6,1.6v148.4c0,0.7,0.4,1.3,1.1,1.5c23.6,8.7,48.9,13.9,75.2,15.2c0.9,0,1.7-0.7,1.7-1.6V346.8
	c0-0.9,0.7-1.6,1.6-1.6h114.2c3.7,0,6.6-3,6.6-6.6v-64.7c0-3.7-3-6.6-6.6-6.6H246.5c-0.9,0-1.6-0.7-1.6-1.6v-9.5
	c0-43.1,34.9-66.8,77.9-66.8h37.9c3.7,0,6.6-3,6.6-6.6v-64.7c0-3.7-3-6.6-6.6-6.6h-37.9C242.9,111.3,167,176.1,167,256.1z"/>
</svg>
