<?xml version="1.0" encoding="UTF-8" standalone="no"?>
<svg
   xmlns:dc="http://purl.org/dc/elements/1.1/"
   xmlns:cc="http://creativecommons.org/ns#"
   xmlns:rdf="http://www.w3.org/1999/02/22-rdf-syntax-ns#"
   xmlns:svg="http://www.w3.org/2000/svg"
   xmlns="http://www.w3.org/2000/svg"
   viewBox="0 0 841.88977 595.27557"
   id="svg2"
   height="595.27557"
   width="841.88977"
   version="1.1">
  <metadata
     id="metadata76">
    <rdf:RDF>
      <cc:Work
         rdf:about="">
        <dc:format>image/svg+xml</dc:format>
        <dc:type
           rdf:resource="http://purl.org/dc/dcmitype/StillImage" />
      </cc:Work>
    </rdf:RDF>
  </metadata>
  <defs
     id="defs74" />
  <g
     id="g4">
    <path
       id="path6"
       style="fill:#c00220;fill-rule:evenodd"
       d="m 621.0657,254.6457 c -2.3266,3.3681 -3.9212,6.7413 -4.7943,10.1094 -0.8732,3.372 -1.3071,7.4616 -1.3071,12.2741 0,8.4733 2.1802,15.6939 6.5354,21.6619 3.7748,5.1998 7.6442,7.801 11.616,7.801 1.9392,0 3.5325,-0.6257 4.7943,-1.8783 2.0338,-1.9237 3.0481,-5.0042 3.0481,-9.2454 l 0.001,-5.3423 c 0,-5.6804 -1.8887,-12.1782 -5.6636,-19.4947 -4.1634,-7.994 -8.9072,-13.2858 -14.2301,-15.8857 z m -4.0676,48.2128 0.5803,4.9407 c 0.193,1.2565 0.456,4.0663 0.7993,8.4215 0.3394,4.3552 0.5078,7.0743 0.5078,12.5901 0,7.2621 -0.7915,12.3207 -2.368,15.1823 -1.5804,2.8512 -3.8059,4.2814 -6.6766,4.2814 -1.9133,0 -3.0157,-0.4845 -3.2994,-1.4535 l 0.001,-0.8679 c 0,-0.6801 -0.07,-1.8188 -0.001,-3.4134 0.1658,-3.9485 -0.0415,-12.3661 -0.1464,-18.4623 -0.0363,-2.0338 -0.2876,-4.4018 -0.5803,-7.1067 -0.969,-10.0498 -1.6491,-17.229 -2.0338,-21.5285 -0.3874,-4.3059 -0.5804,-8.5329 -0.5804,-12.6912 0,-11.502 3.679,-21.6982 11.037,-30.5912 6.1972,-7.4448 11.6159,-11.1691 16.2639,-11.1691 5.0379,0 10.4566,4.4381 16.2652,13.313 6.4888,9.8387 9.7338,20.4455 9.7338,31.8245 0,8.5821 -1.9146,15.602 -5.74,21.0492 -3.8254,5.4472 -8.687,8.1715 -14.5916,8.1715 -3.6828,-0.001 -7.3126,-1.2203 -10.8957,-3.6609 -3.5818,-2.4354 -6.3424,-5.3837 -8.2751,-8.8295 z" />
    <path
       id="path8"
       style="fill:#c00220;fill-rule:evenodd"
       d="m 77.0454,234.1859 c -30.4358,47.8617 -13.4076,70.9486 -12.6679,74.5356 0.5259,2.5455 0.1049,4.5703 -2.2618,4.5703 -2.3706,0 -21.0725,0.3704 -21.6477,0.3704 -1.8317,0 -3.1582,-0.6813 -3.9717,-2.0377 -0.8213,-1.3575 -1.2294,-4.1777 -1.2294,-8.4499 0,-33.2339 35.4452,-66.7166 35.6408,-80.9117 0.0337,-2.2346 -0.2785,-4.1816 -2.0105,-5.4978 -0.8174,-0.6257 -1.298,-1.5946 -1.298,-2.6232 l 0.0013,-0.7578 c 0,-1.6452 1.3291,-2.9795 2.9743,-2.9795 l 22.7669,0 c 1.605,0 2.8888,1.3291 2.8292,2.929 -0.3018,8.0251 8.5588,68.4808 9.9436,77.7573 6.4447,-34.1692 19.7927,-61.369 20.3782,-71.5147 0.2422,-4.2179 -1.7786,-4.5741 -2.0118,-6.1649 -0.2409,-1.6452 1.0104,-3.0067 2.6738,-3.0067 l 20.8769,0 c 1.3926,0 2.4807,1.1879 2.3797,2.5766 -0.1594,2.2761 -1.3797,2.1478 -0.9042,6.3618 4.4277,39.1876 12.252,66.5067 19.6229,90.1648 0.627,2.0066 -1.3032,3.9394 -3.4004,3.9394 l -17.7174,0 c -2.8824,0 -5.3151,-2.1387 -5.6856,-4.9951 l -10.5188,-69.7919 c 0,0 -10.84,16.2057 -18.0749,72.498 -0.1594,1.2604 -1.4159,2.289 -2.6867,2.289 l -18.1061,0 c -2.1892,0 -4.3046,-1.7553 -4.7256,-3.9031 -3.7749,-19.3678 -11.1691,-75.3582 -11.1691,-75.3582 z" />
    <path
       id="path10"
       style="fill:#c00220;fill-rule:evenodd"
       d="m 268.7682,308.0324 20.8938,0 2.4872,0 c 0.1969,-0.6762 0.2915,-1.5273 0.2915,-2.5416 0,-1.0144 0,-1.7178 0,-2.1064 0,-6.9693 -1.938,-12.2481 -5.8087,-15.83 -3.8746,-3.5792 -9.7298,-5.3695 -17.571,-5.3695 -0.1969,1.1594 -0.2928,2.2022 -0.2928,3.1207 0,0.9184 0,1.7177 0,2.3952 l 0,4.9394 0,8.2764 0,7.1158 z m 10.8543,-57.6551 -9.2402,0 c -0.2927,2.0338 -0.636,5.6169 -1.0285,10.7493 -0.3887,5.1312 -0.5856,9.9709 -0.5856,14.523 6.1429,0 11.9917,0.6528 17.5439,1.956 5.5586,1.3071 10.3322,3.5145 14.3273,6.6079 3.9989,3.1026 7.0185,7.0238 9.0666,11.7676 1.7553,4.0624 2.6323,7.8917 2.6323,11.4709 0,3.0015 -1.1607,4.7425 -3.4873,5.227 -0.969,0.1969 -2.5636,0.2928 -4.7892,0.2928 l -48.5094,0 c -1.9379,0 -3.144,-0.6762 -3.6285,-2.0338 -0.4844,-1.3563 -0.7267,-4.2127 -0.7267,-8.5679 0,-5.0314 0.1179,-11.6678 0.3601,-19.8976 0.2436,-8.2259 0.4625,-15.3455 0.6542,-21.3459 0.001,-5.8138 0.0959,-9.8814 0.2928,-12.2028 0.1917,-2.3214 1.6905,-3.4859 4.5016,-3.4859 l 31.9475,0 c 2.5183,0 5.2555,-0.0557 8.2078,-0.1788 2.9535,-0.1192 6.1234,-0.3018 9.5096,-0.5441 4.5521,0 6.8282,1.0972 6.8282,3.2994 0,0.8641 -0.3161,1.9885 -0.9418,3.3733 -0.6296,1.3887 -1.4302,2.9432 -2.3991,4.6661 -1.3563,2.3939 -3.3409,6.8411 -5.9551,13.348 l -6.968,0 c 0.5804,-2.2113 0.8718,-4.2723 0.8718,-6.196 l 0.001,-4.6156 c -0.4935,-3.6479 -2.1076,-5.9317 -4.8448,-6.8411 -2.7373,-0.9145 -7.2842,-1.3718 -13.6408,-1.3718 z" />
    <path
       id="path12"
       style="fill:#c00220;fill-rule:evenodd"
       d="m 423.073,256.7663 c -0.5803,2.0377 -1.2112,3.8849 -1.8887,5.534 -0.9677,2.1348 -1.741,3.8344 -2.3214,5.0962 -3.1012,6.8955 -5.227,12.3517 -6.3929,16.3779 -1.1594,4.0313 -1.741,7.7414 -1.741,11.1419 0,2.3265 0.1464,4.1492 0.434,5.4614 0.294,1.311 0.9689,3.1298 2.0338,5.4602 0.5816,1.1659 1.307,2.3771 2.1801,3.6376 0.5804,0.7772 0.8719,1.4586 0.8719,2.0389 0.001,1.1646 -0.9224,1.745 -2.7593,1.745 l -14.5229,0 c -2.0338,0 -3.3188,-0.2643 -3.8487,-0.7993 -0.535,-0.5298 -0.7992,-1.9107 -0.7992,-4.1363 0,-5.6156 1.6905,-11.8582 5.0819,-18.7356 1.6452,-3.3875 5.227,-9.3412 10.748,-17.8651 1.9341,-2.9975 3.8708,-6.0457 5.8087,-9.1482 2.5183,-4.2593 3.7748,-7.4991 3.7748,-9.7299 0,-1.1606 -0.2888,-2.6141 -0.8692,-4.3551 -0.1956,-0.7773 -0.1956,-1.3563 0,-1.745 0.3847,-0.8692 1.3537,-1.307 2.9017,-1.307 0.001,0 11.151,0 16.343,0 1.7268,0 1.2294,2.1387 1.2294,3.7878 0,2.811 0.9223,7.8605 2.7605,15.1356 1.0648,4.1725 2.2255,8.3451 3.486,12.5176 3.0027,9.4086 5.7127,17.1694 8.1352,23.2838 1.4482,3.6881 2.9017,7.3256 4.3552,10.9178 0,1.4534 -0.8226,2.1789 -2.4678,2.1789 -0.7773,0 -1.3071,0 -1.5998,0 l -11.7624,0 c -2.2307,0 -3.8254,-0.9729 -4.7944,-2.9199 -1.4482,-2.916 -3.9212,-10.9955 -7.4033,-24.2295 l -1.8874,-7.2983 c -0.8718,-3.0158 -1.5998,-5.7439 -2.1802,-8.1754 -0.1956,-0.7773 -0.4883,-2.0934 -0.8731,-3.9445 l -1.013,-5.1092 -1.0195,-4.8163 z" />
    <path
       id="path14"
       style="fill:#c00220;fill-rule:evenodd"
       d="m 489.0162,308.3238 16.6862,0 2.4859,0 0,-4.7295 c 0,-4.6247 -0.9702,-8.564 -2.9069,-11.8129 -3.2903,-5.411 -8.7609,-8.6145 -16.4116,-9.5965 -0.0946,0.877 -0.1684,1.8097 -0.2138,2.7878 -0.0505,0.9819 -0.0738,1.8084 -0.0738,2.4949 l 0.001,2.4989 c 0,3.5235 0.0725,7.3942 0.2137,11.603 0.1464,4.2088 0.219,6.4629 0.219,6.7543 z m 24.5455,4.9356 -37.4686,0 c -1.7462,0 -3.03,-0.4612 -3.8526,-1.3887 -0.8226,-0.9237 -1.2345,-2.3629 -1.2345,-4.3099 l 0.001,-19.4403 c 0,-19.4856 0.3148,-31.5226 0.9456,-36.098 0.6257,-4.5832 2.2981,-6.8735 5.0081,-6.8735 l 4.3604,0 2.4678,0 c 0.6762,0 1.4016,0 2.175,0 0.9689,0 1.649,0 2.0338,0 l 1.5998,0 c 1.2566,0.1917 1.8861,0.969 1.8861,2.3227 0,0.6801 -0.1956,1.649 -0.5803,2.9056 -0.9677,3.0986 -1.4535,6.8735 -1.4535,11.3297 -0.2876,3.7735 -0.4339,7.4033 -0.4339,10.8893 l 0,3.0533 c 5.8086,0 11.2053,0.6762 16.1914,2.0286 4.9873,1.3576 9.4643,3.5831 13.436,6.6817 4.3552,3.486 7.4992,7.6041 9.4371,12.3428 1.3576,3.3914 2.0338,6.924 2.0338,10.6029 0,2.8098 -0.9689,4.6014 -2.903,5.3734 -0.9677,0.3886 -2.7592,0.5804 -5.3734,0.5804 l -2.4677,0 -2.4717,0 -3.337,0 z" />
    <path
       id="path16"
       style="fill:#c00220;fill-rule:evenodd"
       d="m 571.4085,250.3773 -8.7156,0 c -1.1593,7.5497 -1.741,15.3455 -1.741,23.3796 0,7.4591 0.2656,13.848 0.7954,19.1709 0.5298,5.3242 1.092,10.603 1.6724,15.8313 0,1.6452 -0.1969,2.6634 -0.5804,3.052 -0.6801,0.7721 -2.4224,1.1607 -5.2283,1.1607 l -8.7142,0 c -2.517,0 -4.0676,-1.969 -4.648,-5.9084 -0.5803,-3.9355 -0.8731,-14.8986 -0.8731,-32.8906 0.001,-12.9322 0.3653,-21.0259 1.092,-24.2839 0.7281,-3.2541 2.1984,-4.885 4.4291,-4.885 0,0 46.6311,0.0777 47.7464,0.3653 1.1154,0.2928 1.7734,1.2332 1.7734,2.6828 0,1.3563 -0.8226,3.486 -2.4677,6.3929 l -2.7606,5.6623 c -0.8679,1.7449 -1.4482,3.0299 -1.741,3.8473 -0.2928,0.8278 -0.5298,1.6232 -0.7267,2.3953 l -1.4522,4.359 -6.0975,-0.5803 c 0.193,-1.5493 0.3834,-3.1207 0.5803,-4.7205 0.1918,-1.5998 0.2876,-2.4911 0.2876,-2.6867 0.001,-4.9355 -1.0648,-8.2259 -3.1945,-9.8763 -2.1283,-1.6451 -5.2775,-2.4677 -9.4358,-2.4677 z" />
    <path
       id="path18"
       style="fill:#c00220;fill-rule:evenodd"
       d="m 697.0496,259.668 c -5.7115,6.1973 -9.7804,12.0513 -12.1976,17.571 -1.5532,3.4834 -2.3266,6.4849 -2.3266,9.0032 0.001,2.4224 0.6995,4.6712 2.1076,6.7543 1.403,2.0843 3.5547,3.1219 6.4616,3.1219 3.7748,0 6.8735,-1.4029 9.2959,-4.2088 2.0338,-2.3266 3.0481,-4.8448 3.0481,-7.5549 0,-1.741 -0.7772,-5.2736 -2.3227,-10.6016 l -1.8861,-6.389 c -0.4884,-2.4173 -1.2112,-4.9861 -2.1802,-7.6961 z m -1.1607,-14.3765 14.8118,0 c 0.969,0 1.548,0.2876 1.7449,0.8679 0,0.6814 0.0221,1.4029 0.0726,2.1802 0.0466,0.7772 0.3614,2.3214 0.9417,4.6479 l 2.1802,8.2752 1.1607,4.3552 c 3.0987,12.5901 6.0509,23.0467 8.8607,31.3736 1.741,4.8384 3.482,9.6781 5.2231,14.5229 0.001,0.5804 -0.3381,0.9418 -1.0143,1.0882 -0.6762,0.1451 -1.3071,0.2189 -1.8874,0.2189 l -14.8105,0 c -0.6801,0 -1.2164,-0.7772 -1.5999,-2.3266 l -1.8861,-7.5496 -1.7462,-5.5198 -1.8874,-6.5354 c -2.1297,7.0691 -4.7905,12.4891 -7.985,16.264 -4.0663,4.8448 -9.0575,7.2621 -14.9608,7.2621 -5.42,0 -9.5381,-2.2709 -12.344,-6.823 -2.1283,-3.4872 -3.1945,-7.5043 -3.1945,-12.0551 0.001,-4.8397 2.3214,-10.5525 6.9694,-17.1371 1.8421,-2.71 5.5664,-7.2116 11.182,-13.5047 0.6775,-0.7772 2.7605,-3.0533 6.2478,-6.8281 1.6465,-1.7411 2.4678,-3.0974 2.4678,-4.0663 0.001,-0.5804 -0.0959,-1.3071 -0.2928,-2.175 -0.1904,-0.8732 -0.434,-1.7916 -0.7215,-2.7606 -0.2915,-0.969 -0.4392,-1.9379 -0.4392,-2.9069 0.001,-0.4845 0.4119,-0.7487 1.2345,-0.7954 0.8226,-0.0505 1.3797,-0.0725 1.6724,-0.0725 z" />
    <path
       id="path20"
       style="fill:#c00220;fill-rule:evenodd"
       d="m 758.7632,307.2227 26.797,0 c -5.4563,-12.5759 -14.8571,-47.5547 -14.8571,-47.5547 -11.9049,20.8342 -11.9412,44.2009 -11.9399,47.5547 z m 18.5206,5.5988 -11.0357,0 c -4.5559,0 -8.5277,0.4793 -10.8219,2.7735 -6.3294,6.3294 -3.6569,20.8756 -2.4962,23.5079 l -7.4072,1.0195 c -3.4821,-8.3269 -16.6526,-32.6756 -5.2516,-32.6756 1.2526,0 5.7361,0.9923 6.1739,-1.64 5.5444,-33.5486 19.7655,-45.4535 19.7655,-52.226 0,-1.8097 -0.7902,-3.9212 -1.3162,-5.0547 -0.649,-1.412 -0.1502,-3.0196 2.3668,-3.0196 3.7385,-0.001 16.0955,-0.215 17.7782,-0.215 1.6776,0 2.5766,1.0234 2.5766,3.6919 0,10.8906 12.6588,51.2013 14.7885,54.9762 1.4548,2.6141 3.0986,3.6336 5.0871,3.6336 3.0209,0 6.4291,3.1764 4.4277,7.0419 -0.7682,1.4807 -11.4838,20.3549 -13.6135,25.4873 l -7.4085,-1.0195 c 0.969,-2.3395 5.0638,-17.3197 -1.0506,-23.4341 -2.4263,-2.4276 -7.047,-2.8473 -12.5629,-2.8473 z" />
    <path
       id="path22"
       style="fill:#c00220;fill-rule:evenodd"
       d="m 372.5881,262.9402 c 3.7385,2.5818 8.9474,-1.9237 11.5849,-3.7476 0.9741,-0.671 0.7034,-2.0144 -0.0454,-2.9924 -8.2388,-10.7623 -19.9934,-12.8648 -29.2841,-12.8648 -9.875,0 -17.8185,4.3098 -23.8189,12.9283 -4.8435,6.9693 -7.2621,14.3765 -7.2621,22.2189 l 0.001,4.9356 c 0,12.686 4.4498,22.0272 13.361,28.0328 6.2892,4.258 13.8428,6.3877 22.6542,6.3877 5.5198,0 10.4786,-1.0416 14.8843,-3.1207 4.4057,-2.0843 7.8464,-4.4472 10.945,-7.7375 l -1.8602,-3.9251 c -3.8746,2.8058 -7.8736,5.319 -10.8258,6.4343 -2.9523,1.1102 -5.7866,1.6685 -8.4967,1.6685 -6.3877,0 -11.3517,-2.5183 -14.8843,-7.5497 -2.3343,-3.3266 -5.2451,-9.2635 -6.0094,-15.51 0.001,-0.001 -0.3057,-5.9136 8.9526,-5.9136 5.3345,0 12.2792,1.7994 15.7717,2.8603 1.0195,0.3057 1.9962,-0.5855 1.7773,-1.627 l -2.083,-9.7429 c -0.206,-0.8459 -10.0732,-2.4677 -16.3845,-0.1282 -5.9213,2.1983 -8.6637,5.9822 -9.6378,6.6131 -3.7373,-16.2562 2.2488,-27.1001 8.7246,-28.8956 7.81,-2.1672 15.2496,7.0562 21.9353,11.6756 z" />
    <path
       id="path24"
       style="fill:#c00220;fill-rule:evenodd"
       d="m 226.3965,262.9402 c 3.7334,2.5818 8.9474,-1.9237 11.5797,-3.7476 0.9729,-0.671 0.7034,-2.0144 -0.0415,-2.9924 -8.2427,-10.7623 -19.9934,-12.8648 -29.288,-12.8648 -9.875,0 -17.8146,4.3098 -23.8188,12.9283 -4.8384,6.9693 -7.2621,14.3765 -7.2621,22.2189 l 0,4.9356 c 0,12.686 4.4562,22.0272 13.3622,28.0328 6.2944,4.258 13.848,6.3877 22.6581,6.3877 5.5172,0 10.4786,-1.0416 14.8843,-3.1207 4.4057,-2.0843 7.8464,-4.4472 10.945,-7.7375 l -1.8641,-3.9251 c -3.8707,2.8058 -7.8696,5.319 -10.8219,6.4343 -2.9561,1.1102 -5.7905,1.6685 -8.4953,1.6685 -6.3929,0 -11.357,-2.5183 -14.8896,-7.5497 -2.3343,-3.3266 -5.2464,-9.2635 -6.0094,-15.51 0,-0.001 -0.3057,-5.9136 8.9526,-5.9136 5.3384,0 12.2845,1.7994 15.7717,2.8603 1.0247,0.3057 2.0014,-0.5855 1.7773,-1.627 l -2.0791,-9.7429 c -0.2099,-0.8459 -10.077,-2.4677 -16.3831,-0.1282 -5.9227,2.1983 -8.6651,5.9822 -9.6431,6.6131 -3.7373,-16.2562 2.2488,-27.1001 8.7285,-28.8956 7.8062,-2.1672 15.2458,7.0562 21.9366,11.6756 z" />
    <path
       id="path26"
       style="fill:#1b1918;fill-rule:evenodd"
       d="m 42.1637,340.6833 0,9.2454 c 0.2785,0.0272 0.6076,0.0505 0.9871,0.0777 0.3291,0.0272 0.7125,0.0467 1.1555,0.0596 0.4444,0.009 0.9547,0.0182 1.5351,0.0182 1.0843,0 2.1167,-0.0687 3.0896,-0.2099 0.9689,-0.1373 1.8239,-0.3834 2.5545,-0.741 0.7358,-0.351 1.3213,-0.8446 1.7644,-1.4755 0.443,-0.6308 0.6632,-1.4262 0.6632,-2.39 0,-0.855 -0.1645,-1.5817 -0.4935,-2.175 -0.3291,-0.5946 -0.8006,-1.07 -1.4224,-1.4211 -0.6166,-0.3575 -1.3563,-0.6088 -2.2164,-0.7591 -0.8589,-0.1516 -1.8188,-0.228 -2.8785,-0.228 l -4.7386,-0.001 z m 0,-2.9561 3.8668,0 c 0.9081,0 1.767,-0.0635 2.5766,-0.1866 0.8083,-0.1282 1.5079,-0.3575 2.1025,-0.6813 0.5946,-0.3291 1.0596,-0.763 1.4016,-1.2929 0.3446,-0.5259 0.513,-1.1982 0.513,-2.0066 0,-0.7591 -0.1736,-1.399 -0.5311,-1.9146 -0.3511,-0.5169 -0.8408,-0.9327 -1.4574,-1.2527 -0.6205,-0.3109 -1.3485,-0.5479 -2.1802,-0.6995 -0.8355,-0.1503 -1.7177,-0.228 -2.6543,-0.228 -0.9327,0 -1.6633,0.0143 -2.1944,0.0415 -0.5337,0.022 -1.0143,0.0596 -1.4431,0.1088 l 0,8.1119 z m 3.4497,15.4232 c -0.5285,0 -1.1063,-0.0129 -1.7229,-0.0363 -0.6205,-0.0272 -1.2384,-0.0634 -1.8602,-0.114 -0.6166,-0.0505 -1.2294,-0.114 -1.8369,-0.1878 -0.6076,-0.0777 -1.1607,-0.1775 -1.6685,-0.3005 l 0.0013,-25.4692 c 0.5065,-0.1283 1.0596,-0.228 1.6672,-0.3057 0.6088,-0.0739 1.2203,-0.1373 1.8369,-0.1879 0.6218,-0.0505 1.2345,-0.0906 1.8421,-0.114 0.6036,-0.0272 1.1749,-0.0362 1.7047,-0.0362 1.5131,0 2.9341,0.114 4.2632,0.3381 1.3265,0.228 2.473,0.6127 3.4459,1.1555 0.9741,0.5441 1.7371,1.2578 2.2941,2.1439 0.5584,0.8822 0.8369,1.969 0.8369,3.258 0,1.4392 -0.3433,2.6232 -1.0234,3.5416 -0.6853,0.9237 -1.596,1.6141 -2.7294,2.0662 1.5402,0.4573 2.7657,1.1737 3.675,2.1608 0.9107,0.9832 1.3615,2.3771 1.3615,4.1686 0.0013,2.6271 -0.9638,4.6065 -2.8978,5.9317 -1.9328,1.3252 -4.9938,1.9872 -9.1897,1.9872 z" />
    <path
       id="path28"
       style="fill:#1b1918;fill-rule:evenodd"
       d="m 86.2765,352.9276 -3.5222,0 0,-19.7111 3.5222,0 0,19.7111 z m -15.4232,-9.7441 c -0.6801,0 -1.3434,0.0194 -1.9885,0.0596 -0.6438,0.0362 -1.219,0.1191 -1.7268,0.2474 l 0.0013,6.7815 c 0.1503,0.0272 0.3731,0.0505 0.6607,0.0777 0.2941,0.0233 0.6088,0.0454 0.9508,0.0544 0.3394,0.0143 0.6853,0.0272 1.0428,0.0376 0.3511,0.0129 0.6672,0.022 0.9457,0.022 1.5402,0 2.7281,-0.2928 3.5637,-0.8731 0.8329,-0.5803 1.2488,-1.5169 1.2488,-2.8059 0,-0.6308 -0.1335,-1.1736 -0.3977,-1.627 -0.2643,-0.456 -0.6179,-0.8265 -1.061,-1.1193 -0.443,-0.2927 -0.9417,-0.5078 -1.4988,-0.6438 -0.5518,-0.1373 -1.1335,-0.2111 -1.741,-0.2111 z m -7.2388,-9.967 3.5248,0 0,7.5445 c 0.4288,-0.1049 1.0545,-0.2046 1.8771,-0.3057 0.8187,-0.101 1.6089,-0.1502 2.3667,-0.1502 1.0389,0 2.0196,0.1191 2.9574,0.3614 0.9327,0.237 1.754,0.6166 2.4626,1.1374 0.7099,0.5168 1.2708,1.1879 1.6867,2.0066 0.4158,0.8212 0.6256,1.8006 0.6256,2.938 0.0013,1.1879 -0.2059,2.1983 -0.6075,3.0299 -0.4016,0.8356 -0.9729,1.517 -1.7048,2.0468 -0.7358,0.5311 -1.6179,0.9146 -2.6543,1.1568 -1.0337,0.2422 -2.1711,0.3614 -3.4095,0.3614 -1.1879,0 -2.3862,-0.0686 -3.6013,-0.2111 -1.2112,-0.1373 -2.3861,-0.3472 -3.5235,-0.6205 l 0,-19.2953 z" />
    <path
       id="path30"
       style="fill:#1b1918;fill-rule:evenodd"
       d="m 106.4397,350.272 c 0.1515,0.0272 0.3653,0.0505 0.6438,0.0777 0.2746,0.0233 0.5894,0.0454 0.9456,0.0544 0.3537,0.0143 0.7268,0.0272 1.1206,0.0376 0.3886,0.0129 0.763,0.022 1.1153,0.022 0.7358,0 1.434,-0.0505 2.1064,-0.1554 0.6684,-0.1011 1.2475,-0.2747 1.741,-0.5299 0.4936,-0.2513 0.8822,-0.5855 1.175,-1.0052 0.2927,-0.4158 0.4339,-0.9508 0.4339,-1.6089 0,-0.6309 -0.1334,-1.1555 -0.3977,-1.5726 -0.2655,-0.4159 -0.6218,-0.754 -1.0791,-1.0053 -0.4521,-0.2513 -0.991,-0.4288 -1.6128,-0.5298 -0.6166,-0.1011 -1.2798,-0.1503 -1.9884,-0.1503 l -4.2036,0 0,6.3657 z m 3.7528,-8.9798 c 0.6801,0 1.3058,-0.0454 1.8732,-0.1322 0.566,-0.0919 1.0596,-0.2474 1.4806,-0.4754 0.4158,-0.2293 0.7449,-0.5311 0.9819,-0.9094 0.2423,-0.3795 0.3615,-0.8601 0.3615,-1.4405 0,-0.6075 -0.1516,-1.0868 -0.4573,-1.4392 -0.3019,-0.3562 -0.6995,-0.6257 -1.1931,-0.8174 -0.4936,-0.1878 -1.0467,-0.3109 -1.6672,-0.3795 -0.6179,-0.0596 -1.2436,-0.092 -1.8745,-0.092 -0.5803,0 -1.1697,0.0142 -1.7643,0.0363 -0.5933,0.0285 -1.0921,0.0505 -1.4936,0.0738 l 0,5.5755 3.7528,0 z m -0.079,11.9722 c -1.4898,0 -2.8655,-0.0674 -4.1311,-0.2047 -1.2605,-0.1425 -2.2618,-0.2966 -2.9937,-0.4754 l 0.001,-19.176 c 0.7306,-0.1775 1.7306,-0.333 2.9924,-0.4742 1.2669,-0.1373 2.6413,-0.2059 4.1311,-0.2059 1.0376,0 2.048,0.0868 3.0299,0.2642 0.9871,0.1736 1.8603,0.4716 2.6181,0.8874 0.7591,0.4197 1.3666,0.9871 1.8382,1.7087 0.4663,0.7176 0.6982,1.6089 0.6982,2.6685 0.001,0.9599 -0.2371,1.7825 -0.7164,2.4639 -0.4793,0.6801 -1.1244,1.2151 -1.934,1.5946 1.0842,0.3796 1.9522,0.9418 2.596,1.6867 0.6451,0.7448 0.9638,1.7864 0.9638,3.1258 0.001,1.1879 -0.2332,2.1711 -0.6982,2.9562 -0.4664,0.7824 -1.1115,1.412 -1.9341,1.8926 -0.8213,0.4793 -1.7864,0.8135 -2.8966,1.0052 -1.114,0.1878 -2.3032,0.2837 -3.5649,0.2824 z" />
    <path
       id="path32"
       style="fill:#1b1918;fill-rule:evenodd"
       d="m 133.2703,353.3797 c -1.5908,0 -2.9898,-0.2513 -4.1868,-0.7591 -1.2021,-0.5026 -2.2125,-1.2112 -3.0338,-2.1206 -0.8174,-0.9094 -1.4354,-1.9924 -1.8382,-3.2399 -0.4016,-1.2526 -0.6076,-2.6361 -0.6076,-4.1492 0,-1.5169 0.2241,-2.9069 0.6672,-4.1725 0.4404,-1.2617 1.0648,-2.3538 1.8744,-3.2761 0.8084,-0.9185 1.8007,-1.6413 2.9743,-2.1621 1.1749,-0.5168 2.482,-0.772 3.9212,-0.772 0.8874,0 1.7683,0.0725 2.6556,0.2241 0.8822,0.1502 1.7268,0.3925 2.5365,0.7215 l -0.7954,2.9937 c -0.5299,-0.2513 -1.1426,-0.4534 -1.8369,-0.6075 -0.6944,-0.1516 -1.4354,-0.2241 -2.2178,-0.2241 -1.9677,0 -3.4821,0.6166 -4.5275,1.855 -1.0505,1.2384 -1.5726,3.0429 -1.5726,5.42 0,1.0597 0.1192,2.0338 0.3562,2.916 0.2423,0.8861 0.6218,1.6452 1.1387,2.2748 0.5208,0.6308 1.1827,1.1205 1.9924,1.4586 0.8096,0.342 1.7915,0.5117 2.9561,0.5117 0.9327,0 1.7773,-0.0868 2.5364,-0.2656 0.7591,-0.1774 1.3524,-0.3653 1.7825,-0.5661 l 0.4949,2.9523 c -0.206,0.1282 -0.4949,0.2461 -0.8744,0.3614 -0.3796,0.114 -0.8084,0.2138 -1.289,0.3057 -0.478,0.0868 -0.991,0.1645 -1.535,0.2241 -0.5441,0.0635 -1.0649,0.0959 -1.5714,0.0959 z" />
    <path
       id="path34"
       style="fill:#1b1918;fill-rule:evenodd"
       d="m 155.703,341.1769 c 0.0285,-1.5947 -0.3705,-2.8966 -1.1917,-3.92 -0.8226,-1.0233 -1.9522,-1.5402 -3.3914,-1.5402 -0.8084,0 -1.5222,0.1593 -2.144,0.4754 -0.6153,0.32 -1.1425,0.7267 -1.5713,1.2333 -0.4301,0.5078 -0.763,1.0829 -1.0052,1.741 -0.2384,0.6581 -0.3977,1.3304 -0.4716,2.0118 l 9.7752,-0.001 z m -13.5254,1.934 c 0,-1.7462 0.25,-3.267 0.7578,-4.5702 0.5026,-1.298 1.1737,-2.3758 2.0053,-3.2398 0.833,-0.855 1.7968,-1.4988 2.8797,-1.9289 1.0882,-0.4288 2.1983,-0.6438 3.3357,-0.6438 2.6556,0 4.6894,0.8264 6.1014,2.4807 1.4172,1.6542 2.1245,4.1725 2.1245,7.5587 0.001,0.1516 0,0.3472 0,0.5895 0.001,0.2383 -0.0129,0.4624 -0.0414,0.6632 l -13.4892,0 c 0.1503,2.0429 0.7436,3.6013 1.7812,4.6609 1.0337,1.061 2.6504,1.5908 4.8487,1.5908 1.2385,0 2.2813,-0.1049 3.1259,-0.3252 0.8511,-0.2098 1.4858,-0.4197 1.9146,-0.6205 l 0.4936,2.9562 c -0.4288,0.2293 -1.1789,0.4663 -2.2528,0.7176 -1.0739,0.2513 -2.2942,0.3796 -3.6608,0.3796 -1.7164,0 -3.1984,-0.2604 -4.4511,-0.7773 -1.2513,-0.5168 -2.2799,-1.2332 -3.0882,-2.1387 -0.8084,-0.9146 -1.4082,-1.9923 -1.802,-3.2398 -0.3925,-1.2527 -0.5842,-2.6232 -0.5829,-4.113 z" />
    <path
       id="path36"
       style="fill:#1b1918;fill-rule:evenodd"
       d="m 177.6072,336.174 -8.678,0 0,16.7536 -3.5235,0 0,-19.7111 12.2015,0 0,2.9575 z" />
    <path
       id="path38"
       style="fill:#1b1918;fill-rule:evenodd"
       d="m 193.3737,350.044 0,-13.87 -6.1739,0 c -0.0272,1.1879 -0.092,2.381 -0.1917,3.5831 -0.0998,1.197 -0.2656,2.3849 -0.4936,3.5598 -0.2241,1.1736 -0.5493,2.3253 -0.9651,3.4497 -0.4158,1.1244 -0.9417,2.2165 -1.5713,3.2774 l 9.3956,0 z m -15.2729,0 2.1245,0 c 0.8329,-1.2112 1.4949,-2.4639 1.9884,-3.7528 0.4936,-1.289 0.8641,-2.6181 1.1193,-3.999 0.2526,-1.3744 0.4158,-2.8149 0.4935,-4.3176 0.0739,-1.504 0.1231,-3.0896 0.1516,-4.7581 l 12.9243,0 0,16.8275 2.6505,0 0,8.3762 -3.337,0 0,-5.4926 -14.7781,0 0,5.4926 -3.337,0 0,-8.3762 z" />
    <path
       id="path40"
       style="fill:#1b1918;fill-rule:evenodd"
       d="m 210.9953,350.386 c 0.8368,0 1.5713,-0.0181 2.2203,-0.0596 0.6413,-0.0363 1.1801,-0.1049 1.6089,-0.206 l 0.001,-5.876 c -0.2526,-0.1243 -0.6632,-0.2293 -1.2345,-0.3199 -0.5661,-0.0868 -1.2579,-0.1322 -2.0662,-0.1322 -0.5298,0 -1.092,0.0363 -1.6866,0.114 -0.5881,0.0777 -1.1335,0.2332 -1.6271,0.4754 -0.4922,0.2371 -0.9042,0.5661 -1.2332,0.982 -0.3277,0.4158 -0.4897,0.9689 -0.4897,1.6503 0.001,1.2656 0.4029,2.1388 1.2112,2.6323 0.8097,0.4923 1.9056,0.7397 3.2956,0.7397 z m -0.3019,-17.6578 c 1.4172,0 2.609,0.1826 3.5832,0.5479 0.9689,0.3653 1.754,0.8822 2.3486,1.5545 0.5946,0.6659 1.0143,1.4613 1.2708,2.3849 0.2513,0.9236 0.3795,1.9418 0.3795,3.0533 l 0,12.3155 c -0.3057,0.0505 -0.7267,0.1192 -1.2708,0.206 -0.5441,0.0907 -1.1568,0.1736 -1.8369,0.2461 -0.6853,0.0777 -1.4211,0.1464 -2.2216,0.2112 -0.7941,0.0634 -1.5856,0.0958 -2.3668,0.0958 -1.1101,0 -2.1348,-0.1153 -3.0714,-0.3433 -0.9314,-0.2293 -1.741,-0.5855 -2.4224,-1.079 -0.6853,-0.4936 -1.2151,-1.1426 -1.5947,-1.9509 -0.3782,-0.8084 -0.5661,-1.7825 -0.5661,-2.9199 0,-1.0882 0.219,-2.0196 0.662,-2.8059 0.4443,-0.7824 1.0428,-1.412 1.8006,-1.8926 0.7604,-0.4793 1.6413,-0.8316 2.6556,-1.0596 1.0104,-0.2293 2.0701,-0.3433 3.1803,-0.3433 0.3575,0 0.7228,0.0181 1.1011,0.0557 0.3808,0.0401 0.7358,0.0907 1.0791,0.1554 0.3432,0.0635 0.6347,0.1179 0.8912,0.1684 0.2526,0.0506 0.4288,0.0868 0.5298,0.114 l 0.001,-0.9871 c 0,-0.5803 -0.0647,-1.1555 -0.1891,-1.7229 -0.127,-0.5713 -0.3562,-1.0739 -0.6853,-1.5169 -0.329,-0.443 -0.7759,-0.7954 -1.3433,-1.0597 -0.57,-0.2655 -1.3071,-0.3977 -2.2165,-0.3977 -1.1646,0 -2.1802,0.0817 -3.052,0.2462 -0.8731,0.1645 -1.5221,0.3342 -1.9522,0.5117 l -0.4145,-2.9199 c 0.4521,-0.2008 1.2099,-0.3977 2.2709,-0.5855 1.0648,-0.1917 2.2112,-0.2824 3.4496,-0.2824 z" />
    <path
       id="path42"
       style="fill:#1b1918;fill-rule:evenodd"
       d="m 250.5987,352.9276 -3.5235,0 0,-16.7536 -8.7933,0 0,16.7536 -3.5222,0 0,-19.7111 15.839,0 0,19.7111 z" />
    <path
       id="path44"
       style="fill:#1b1918;fill-rule:evenodd"
       d="m 271.328,343.0695 c 0,-2.2217 -0.4988,-3.9847 -1.4949,-5.2827 -1.0001,-1.3032 -2.3577,-1.9509 -4.0767,-1.9509 -1.7177,0 -3.0753,0.649 -4.0715,1.9509 -1.0001,1.298 -1.4988,3.0623 -1.4988,5.2827 0,2.2255 0.4974,3.9899 1.4988,5.2879 0.9962,1.3019 2.3538,1.9509 4.0715,1.9509 1.719,0 3.0753,-0.649 4.0767,-1.9509 0.9974,-1.298 1.4949,-3.0624 1.4949,-5.2879 z m 3.679,0 c 0,1.5674 -0.2293,2.9846 -0.6866,4.2451 -0.4521,1.2656 -1.092,2.3537 -1.9146,3.2592 -0.8174,0.9133 -1.7955,1.6128 -2.9341,2.1064 -1.1361,0.4896 -2.3758,0.7358 -3.7153,0.7358 -1.3382,0 -2.5766,-0.2462 -3.7153,-0.7358 -1.1321,-0.4936 -2.1154,-1.1931 -2.9341,-2.1064 -0.8213,-0.9055 -1.4625,-1.9923 -1.9146,-3.2592 -0.456,-1.2605 -0.6801,-2.6777 -0.6801,-4.2451 0,-1.5403 0.2228,-2.9471 0.6801,-4.2231 0.4534,-1.2747 1.092,-2.3667 1.9146,-3.28 0.8187,-0.9106 1.8007,-1.6089 2.9341,-2.1024 1.1387,-0.4897 2.3771,-0.7358 3.7153,-0.7358 1.3395,0 2.5779,0.2461 3.7153,0.7358 1.1386,0.4935 2.1167,1.1918 2.9341,2.1024 0.8239,0.9133 1.4625,2.0053 1.9146,3.28 0.4586,1.276 0.6853,2.6828 0.6866,4.2231 z" />
    <path
       id="path46"
       style="fill:#1b1918;fill-rule:evenodd"
       d="m 287.7759,336.174 c 0,0.8355 -0.0195,1.7268 -0.0557,2.6724 -0.0363,0.947 -0.1101,1.8965 -0.2112,2.8435 -0.0997,0.9456 -0.237,1.8822 -0.4158,2.8006 -0.1775,0.9237 -0.4068,1.7916 -0.6801,2.5961 -0.2785,0.8135 -0.627,1.5674 -1.0428,2.276 -0.4145,0.7086 -0.9275,1.3343 -1.5351,1.8784 -0.6075,0.5427 -1.3161,0.9961 -2.1245,1.3614 -0.8096,0.3654 -1.7552,0.5985 -2.8434,0.7035 l -0.4871,-2.9562 c 1.2333,-0.2513 2.2152,-0.7228 2.9328,-1.4029 0.7216,-0.6814 1.2981,-1.517 1.7268,-2.5041 0.3809,-0.8549 0.6542,-1.8278 0.8317,-2.9159 0.1788,-1.0882 0.3018,-2.2165 0.3796,-3.3914 0.0777,-1.1737 0.1191,-2.3577 0.1321,-3.5456 0.0142,-1.184 0.0194,-2.3123 0.0194,-3.3733 l 13.1148,0 0,19.7111 -3.5274,0 0,-16.7536 -6.2141,0 z" />
    <path
       id="path48"
       style="fill:#1b1918;fill-rule:evenodd"
       d="m 302.2159,356.6014 c 0.2746,0.1231 0.6347,0.2461 1.0778,0.3614 0.4443,0.114 0.8783,0.1684 1.307,0.1684 1.39,0 2.4769,-0.3109 3.2593,-0.9275 0.7863,-0.6218 1.4936,-1.627 2.1245,-3.0157 -1.5947,-3.03 -3.0753,-6.2426 -4.4562,-9.6431 -1.3745,-3.3953 -2.517,-6.8411 -3.4264,-10.3284 l 3.7878,0 c 0.2798,1.1387 0.6127,2.3629 1.0052,3.679 0.3938,1.3123 0.8278,2.6647 1.3071,4.0534 0.4806,1.39 0.9962,2.7786 1.5545,4.1686 0.5583,1.3887 1.1374,2.7282 1.7449,4.0158 0.956,-2.6504 1.7916,-5.2775 2.5002,-7.8826 0.7086,-2.5999 1.3757,-5.2775 2.0066,-8.0342 l 3.6375,0 c -0.9094,3.7153 -1.9198,7.2855 -3.03,10.708 -1.1101,3.4224 -2.3123,6.626 -3.6012,9.6055 -0.5065,1.1373 -1.0286,2.1167 -1.5727,2.9393 -0.5427,0.8226 -1.1425,1.4988 -1.8006,2.0234 -0.6568,0.535 -1.3939,0.9236 -2.2165,1.1801 -0.8212,0.2513 -1.7501,0.3783 -2.7864,0.3783 -0.2785,0 -0.5674,-0.0181 -0.8692,-0.0583 -0.3057,-0.0376 -0.6024,-0.0881 -0.8913,-0.1516 -0.2914,-0.0634 -0.557,-0.1321 -0.7953,-0.2059 -0.241,-0.0778 -0.4107,-0.1412 -0.5117,-0.1918 l 0.6451,-2.8421 z" />
    <path
       id="path50"
       style="fill:#1b1918;fill-rule:evenodd"
       d="m 326.5464,333.2165 0,5.7996 c 0,1.4897 0.3782,2.5364 1.1335,3.1259 0.7578,0.5933 1.7954,0.8912 3.1116,0.8912 0.9547,0 1.7591,-0.0505 2.4043,-0.1516 0.6451,-0.0997 1.2202,-0.2137 1.7229,-0.3419 l 0,-9.3232 3.5287,0 0,19.7111 -3.5287,0 0,-7.6598 c -0.2008,0.0505 -0.4664,0.114 -0.7954,0.1917 -0.3291,0.0726 -0.6996,0.1464 -1.1154,0.206 -0.4197,0.0686 -0.855,0.1231 -1.3071,0.1736 -0.4572,0.0505 -0.9003,0.0725 -1.3303,0.0725 -1.0869,0 -2.0792,-0.1088 -2.9743,-0.3381 -0.8952,-0.228 -1.6685,-0.6075 -2.3123,-1.1374 -0.6439,-0.5298 -1.1478,-1.2332 -1.5131,-2.1024 -0.3692,-0.8731 -0.5531,-1.9652 -0.5531,-3.2813 l 0,-5.8359 3.5287,0 z" />
    <path
       id="path52"
       style="fill:#1b1918;fill-rule:evenodd"
       d="m 352.1244,350.386 c 0.8355,0 1.5713,-0.0181 2.2164,-0.0596 0.6451,-0.0363 1.1827,-0.1049 1.6128,-0.206 l 0,-5.876 c -0.25,-0.1243 -0.6632,-0.2293 -1.2345,-0.3199 -0.5661,-0.0868 -1.2566,-0.1322 -2.0649,-0.1322 -0.5298,0 -1.092,0.0363 -1.6866,0.114 -0.5933,0.0777 -1.1335,0.2332 -1.6271,0.4754 -0.4935,0.2371 -0.9042,0.5661 -1.2332,0.982 -0.329,0.4158 -0.4936,0.9689 -0.4936,1.6503 0,1.2656 0.4068,2.1388 1.2151,2.6323 0.8097,0.4923 1.9056,0.7397 3.2956,0.7397 z m -0.3019,-17.6578 c 1.4133,0 2.609,0.1826 3.5832,0.5479 0.9689,0.3653 1.754,0.8822 2.3486,1.5545 0.5907,0.6659 1.0143,1.4613 1.2656,2.3849 0.2565,0.9236 0.3795,1.9418 0.3795,3.0533 l 0,12.3155 c -0.3005,0.0505 -0.7267,0.1192 -1.2656,0.206 -0.5441,0.0907 -1.1568,0.1736 -1.8421,0.2461 -0.6801,0.0777 -1.421,0.1464 -2.2164,0.2112 -0.7954,0.0634 -1.5856,0.0958 -2.3668,0.0958 -1.1101,0 -2.1348,-0.1153 -3.0714,-0.3433 -0.9327,-0.2293 -1.741,-0.5855 -2.4263,-1.079 -0.6814,-0.4936 -1.2112,-1.1426 -1.5908,-1.9509 -0.3795,-0.8084 -0.5661,-1.7825 -0.5661,-2.9199 0,-1.0882 0.219,-2.0196 0.662,-2.8059 0.4443,-0.7824 1.0415,-1.412 1.8006,-1.8926 0.7591,-0.4793 1.6413,-0.8316 2.6504,-1.0596 1.0156,-0.2293 2.0753,-0.3433 3.1855,-0.3433 0.3523,0 0.7215,0.0181 1.0972,0.0557 0.3795,0.0401 0.7397,0.0907 1.083,0.1554 0.3394,0.0635 0.6347,0.1179 0.8912,0.1684 0.2513,0.0506 0.4288,0.0868 0.5298,0.114 l 0,-0.9871 c 0,-0.5803 -0.0635,-1.1555 -0.1917,-1.7229 -0.1231,-0.5713 -0.3524,-1.0739 -0.6814,-1.5169 -0.329,-0.443 -0.7772,-0.7954 -1.3433,-1.0597 -0.5713,-0.2655 -1.3071,-0.3977 -2.2165,-0.3977 -1.1646,0 -2.1802,0.0817 -3.0533,0.2462 -0.8718,0.1645 -1.5208,0.3342 -1.9509,0.5117 l -0.4145,-2.9199 c 0.4521,-0.2008 1.2099,-0.3977 2.2696,-0.5855 1.0661,-0.1917 2.2125,-0.2824 3.4509,-0.2824 z" />
    <path
       id="path54"
       style="fill:#1b1918;fill-rule:evenodd"
       d="m 378.6156,341.1769 c 0.0233,-1.5947 -0.3743,-2.8966 -1.1969,-3.92 -0.8174,-1.0233 -1.9509,-1.5402 -3.3914,-1.5402 -0.8084,0 -1.5209,0.1593 -2.1388,0.4754 -0.6205,0.32 -1.1425,0.7267 -1.5713,1.2333 -0.4301,0.5078 -0.7682,1.0829 -1.0052,1.741 -0.2423,0.6581 -0.3977,1.3304 -0.4755,2.0118 l 9.7791,-0.001 z m -13.5306,1.934 c 0,-1.7462 0.2552,-3.267 0.7578,-4.5702 0.5078,-1.298 1.175,-2.3758 2.0105,-3.2398 0.833,-0.855 1.7916,-1.4988 2.8797,-1.9289 1.0882,-0.4288 2.1983,-0.6438 3.3357,-0.6438 2.6517,0 4.6842,0.8264 6.1014,2.4807 1.412,1.6542 2.1206,4.1725 2.1206,7.5587 0,0.1516 0,0.3472 0,0.5895 0,0.2383 -0.0142,0.4624 -0.0375,0.6632 l -13.4905,0 c 0.1516,2.0429 0.7449,3.6013 1.7786,4.6609 1.0376,1.061 2.6543,1.5908 4.8526,1.5908 1.2384,0 2.28,-0.1049 3.1259,-0.3252 0.8459,-0.2098 1.4858,-0.4197 1.9146,-0.6205 l 0.4935,2.9562 c -0.4287,0.2293 -1.1827,0.4663 -2.2566,0.7176 -1.0739,0.2513 -2.2903,0.3796 -3.6569,0.3796 -1.7165,0 -3.2036,-0.2604 -4.4511,-0.7773 -1.2513,-0.5168 -2.2799,-1.2332 -3.0895,-2.1387 -0.8071,-0.9146 -1.412,-1.9923 -1.7994,-3.2398 -0.3938,-1.2527 -0.5907,-2.6232 -0.5894,-4.113 z" />
    <path
       id="path56"
       style="fill:#1b1918;fill-rule:evenodd"
       d="m 402.2246,333.2165 0,2.9575 -6.402,0 0,16.7536 -3.5287,0 0,-16.7536 -6.4019,0 0,-2.9575 16.3326,0 z" />
    <path
       id="path58"
       style="fill:#1b1918;fill-rule:evenodd"
       d="m 419.2425,341.1769 c 0.0233,-1.5947 -0.3744,-2.8966 -1.197,-3.92 -0.8174,-1.0233 -1.9522,-1.5402 -3.3914,-1.5402 -0.8083,0 -1.5208,0.1593 -2.1387,0.4754 -0.6205,0.32 -1.1465,0.7267 -1.5714,1.2333 -0.4339,0.5078 -0.7681,1.0829 -1.0052,1.741 -0.2423,0.6581 -0.3977,1.3304 -0.4754,2.0118 l 9.7791,-0.001 z m -13.5307,1.934 c 0,-1.7462 0.2514,-3.267 0.7579,-4.5702 0.5078,-1.298 1.1749,-2.3758 2.0066,-3.2398 0.8368,-0.855 1.7954,-1.4988 2.8836,-1.9289 1.0842,-0.4288 2.1983,-0.6438 3.3357,-0.6438 2.6517,0 4.6842,0.8264 6.1001,2.4807 1.4133,1.6542 2.1206,4.1725 2.1206,7.5587 0.001,0.1516 0,0.3472 0,0.5895 0.001,0.2383 -0.013,0.4624 -0.0363,0.6632 l -13.4905,0 c 0.1516,2.0429 0.741,3.6013 1.7786,4.6609 1.0377,1.061 2.6543,1.5908 4.8527,1.5908 1.2384,0 2.2799,-0.1049 3.1258,-0.3252 0.8459,-0.2098 1.4858,-0.4197 1.9146,-0.6205 l 0.4897,2.9562 c -0.4301,0.2293 -1.1801,0.4663 -2.254,0.7176 -1.0726,0.2513 -2.2929,0.3796 -3.6557,0.3796 -1.7177,0 -3.2036,-0.2604 -4.4549,-0.7773 -1.2475,-0.5168 -2.2813,-1.2332 -3.0857,-2.1387 -0.8083,-0.9146 -1.412,-1.9923 -1.8006,-3.2398 -0.3925,-1.2527 -0.5894,-2.6232 -0.5882,-4.113 z" />
    <path
       id="path60"
       style="fill:#1b1918;fill-rule:evenodd"
       d="m 441.6001,341.5202 c 0,1.184 0.0816,2.3084 0.2461,3.368 0.1645,1.0649 0.4521,1.9976 0.8718,2.8059 0.4171,0.8096 0.978,1.4496 1.6866,1.9146 0.7047,0.4664 1.618,0.6996 2.7282,0.6996 0.9599,0 1.7825,-0.1827 2.4639,-0.548 0.6813,-0.3653 1.2384,-0.864 1.6672,-1.4949 0.4261,-0.6348 0.7448,-1.3706 0.9469,-2.2204 0.2008,-0.8459 0.3005,-1.7501 0.3005,-2.7061 0.001,-0.864 -0.0777,-1.6957 -0.2461,-2.504 -0.1593,-0.8096 -0.4573,-1.526 -0.8873,-2.1569 -0.4327,-0.6347 -1.0053,-1.1374 -1.7268,-1.5169 -0.7164,-0.3796 -1.6219,-0.5713 -2.71,-0.5713 -1.0597,0 -2.0792,0.228 -3.0482,0.6853 -0.9728,0.4521 -1.7229,1.0104 -2.2579,1.6633 -0.022,0.2785 -0.0362,0.6723 -0.0362,1.1788 0.001,0.5026 0,0.969 0.001,1.403 z m 0.2279,-6.0276 c 0.7812,-0.6309 1.6944,-1.1192 2.7463,-1.4574 1.0467,-0.3432 2.052,-0.5116 3.0119,-0.5116 2.8292,-0.001 4.9718,0.8627 6.4239,2.5947 1.4548,1.7281 2.1802,4.1362 2.1802,7.2206 0.001,1.3123 -0.1774,2.5727 -0.5298,3.7891 -0.3562,1.2112 -0.9055,2.2851 -1.6504,3.2217 -0.7435,0.9327 -1.6853,1.6776 -2.824,2.2346 -1.1373,0.5532 -2.4898,0.8317 -4.0533,0.8317 -1.7955,0 -3.2852,-0.3291 -4.4744,-0.982 -1.1879,-0.658 -2.1284,-1.5545 -2.824,-2.6918 -0.6943,-1.1387 -1.1788,-2.4639 -1.4573,-3.9808 -0.2786,-1.517 -0.4159,-3.1168 -0.4159,-4.8125 0.001,-2.1983 0.1555,-4.2451 0.4754,-6.1364 0.3161,-1.8978 0.8913,-3.565 1.7229,-5.0042 0.8317,-1.4405 1.9872,-2.6375 3.4679,-3.5831 1.4768,-0.947 3.3771,-1.5856 5.7037,-1.9146 0.6814,-0.1011 1.2799,-0.1788 1.8006,-0.2423 0.5169,-0.0648 0.9729,-0.1243 1.3615,-0.1736 0.3938,-0.0505 0.7539,-0.1062 1.083,-0.1697 0.3251,-0.0634 0.6671,-0.1321 1.0246,-0.2098 l 0.3796,3.1841 c -0.1788,0.0505 -0.3614,0.0881 -0.5544,0.1153 -0.1853,0.022 -0.4521,0.0635 -0.7941,0.114 -0.3433,0.0505 -0.7954,0.114 -1.3667,0.1878 -0.5661,0.0765 -1.3071,0.1645 -2.2164,0.2643 -2.5002,0.2785 -4.4187,1.0376 -5.7582,2.276 -1.3394,1.2385 -2.162,3.1803 -2.4626,5.8359 z" />
    <path
       id="path62"
       style="fill:#1b1918;fill-rule:evenodd"
       d="m 475.8547,343.0695 c 0,-2.2217 -0.4974,-3.9847 -1.4936,-5.2827 -1.0013,-1.3032 -2.3589,-1.9509 -4.0728,-1.9509 -1.7216,0 -3.0792,0.649 -4.0753,1.9509 -1.0001,1.298 -1.4988,3.0623 -1.4988,5.2827 0,2.2255 0.4974,3.9899 1.4988,5.2879 0.9961,1.3019 2.3524,1.9509 4.0753,1.9509 1.7152,0 3.0715,-0.649 4.0728,-1.9509 0.9962,-1.298 1.4936,-3.0624 1.4936,-5.2879 z m 3.6803,0 c 0,1.5674 -0.2293,2.9846 -0.6827,4.2451 -0.456,1.2656 -1.092,2.3537 -1.9146,3.2592 -0.8213,0.9133 -1.8006,1.6128 -2.938,2.1064 -1.1374,0.4896 -2.3758,0.7358 -3.7114,0.7358 -1.3433,0 -2.5817,-0.2462 -3.7152,-0.7358 -1.1361,-0.4936 -2.1154,-1.1931 -2.938,-2.1064 -0.8213,-0.9055 -1.4574,-1.9923 -1.9146,-3.2592 -0.4521,-1.2605 -0.6814,-2.6777 -0.6814,-4.2451 0,-1.5403 0.2293,-2.9471 0.6814,-4.2231 0.4572,-1.2747 1.092,-2.3667 1.9146,-3.28 0.8239,-0.9106 1.8006,-1.6089 2.938,-2.1024 1.1348,-0.4897 2.3719,-0.7358 3.7152,-0.7358 1.3356,0 2.574,0.2461 3.7114,0.7358 1.1387,0.4935 2.1154,1.1918 2.938,2.1024 0.8239,0.9133 1.4586,2.0053 1.9146,3.28 0.4534,1.276 0.6814,2.6828 0.6827,4.2231 z" />
    <path
       id="path64"
       style="fill:#1b1918;fill-rule:evenodd"
       d="m 492.3065,336.174 c 0,0.8355 -0.022,1.7268 -0.0596,2.6724 -0.0349,0.947 -0.1049,1.8965 -0.2046,2.8435 -0.105,0.9456 -0.2423,1.8822 -0.4211,2.8006 -0.1722,0.9237 -0.4015,1.7916 -0.6813,2.5961 -0.2786,0.8135 -0.6257,1.5674 -1.0416,2.276 -0.4158,0.7086 -0.9275,1.3343 -1.535,1.8784 -0.6024,0.5427 -1.3123,0.9961 -2.1206,1.3614 -0.8084,0.3654 -1.7553,0.5985 -2.8422,0.7035 l -0.4935,-2.9562 c 1.2384,-0.2513 2.2164,-0.7228 2.938,-1.4029 0.7176,-0.6814 1.2928,-1.517 1.7229,-2.5041 0.3795,-0.8549 0.6581,-1.8278 0.8368,-2.9159 0.1736,-1.0882 0.3006,-2.2165 0.3783,-3.3914 0.0738,-1.1737 0.1192,-2.3577 0.1282,-3.5456 0.0143,-1.184 0.0234,-2.3123 0.0234,-3.3733 l 13.1109,0 0,19.7111 -3.5223,0 0,-16.7536 -6.2167,0 z" />
    <path
       id="path66"
       style="fill:#1b1918;fill-rule:evenodd"
       d="m 516.523,350.4637 c 1.4898,0 2.6647,-0.2928 3.5236,-0.8731 0.8588,-0.5803 1.2889,-1.5169 1.2889,-2.8059 0,-0.6308 -0.1282,-1.1736 -0.3796,-1.627 -0.25,-0.456 -0.5984,-0.8265 -1.0415,-1.1193 -0.443,-0.2927 -0.956,-0.5078 -1.5363,-0.6438 -0.5804,-0.1373 -1.2009,-0.2111 -1.8551,-0.2111 -0.6814,0 -1.3848,0.0194 -2.1063,0.0596 -0.7177,0.0362 -1.3304,0.1191 -1.8382,0.2474 l 0.001,6.7815 c 0.1554,0.0272 0.3782,0.0505 0.6801,0.0777 0.307,0.0233 0.6399,0.0454 1.0052,0.0544 0.3666,0.0143 0.7449,0.0272 1.1387,0.0376 0.3938,0.0129 0.763,0.022 1.1192,0.022 z m -7.4667,2.0481 0,-19.2953 3.5235,0 0,7.5445 c 0.206,-0.0544 0.4741,-0.1049 0.8174,-0.1541 0.3381,-0.0505 0.7034,-0.1011 1.0972,-0.1516 0.3925,-0.0505 0.8045,-0.0868 1.2332,-0.114 0.4249,-0.0233 0.8317,-0.0362 1.2113,-0.0362 1.0881,0 2.1063,0.1191 3.0714,0.3614 0.9599,0.237 1.8006,0.6166 2.517,1.1374 0.7228,0.5168 1.2941,1.1879 1.7229,2.0066 0.4314,0.8212 0.6451,1.8006 0.6451,2.938 0,1.1879 -0.2008,2.1983 -0.6037,3.0299 -0.4067,0.8356 -0.9871,1.517 -1.7449,2.0468 -0.7591,0.5311 -1.6594,0.9146 -2.71,1.1568 -1.0467,0.2422 -2.2165,0.3614 -3.5054,0.3614 -1.2604,0 -2.5001,-0.0686 -3.7152,-0.2111 -1.2113,-0.1373 -2.3992,-0.3472 -3.5598,-0.6205 z" />
    <path
       id="path68"
       style="fill:#1b1918;fill-rule:evenodd"
       d="m 530.0135,352.9276 0,-19.7111 3.5248,0 0,16.7899 7.279,0 0,-16.7899 3.5235,0 0,16.7899 7.275,0 0,-16.7899 3.5236,0 0,19.7111 -25.1259,0 z" />
    <path
       id="path70"
       style="fill:#1b1918;fill-rule:evenodd"
       d="m 574.5797,341.1769 c 0.0233,-1.5947 -0.3744,-2.8966 -1.1931,-3.92 -0.8226,-1.0233 -1.9509,-1.5402 -3.3914,-1.5402 -0.8083,0 -1.526,0.1593 -2.1426,0.4754 -0.6166,0.32 -1.1426,0.7267 -1.5726,1.2333 -0.4288,0.5078 -0.763,1.0829 -1.0053,1.741 -0.237,0.6581 -0.3977,1.3304 -0.4702,2.0118 l 9.7752,-0.001 z m -13.5319,1.934 c 0,-1.7462 0.2565,-3.267 0.7591,-4.5702 0.5078,-1.298 1.1788,-2.3758 2.0105,-3.2398 0.8368,-0.855 1.7915,-1.4988 2.8784,-1.9289 1.0894,-0.4288 2.1983,-0.6438 3.337,-0.6438 2.6517,0 4.6881,0.8264 6.1001,2.4807 1.4172,1.6542 2.1258,4.1725 2.1258,7.5587 0,0.1516 0,0.3472 0,0.5895 0,0.2383 -0.0143,0.4624 -0.0415,0.6632 l -13.4904,0 c 0.1515,2.0429 0.7448,3.6013 1.7824,4.6609 1.0377,1.061 2.6505,1.5908 4.8488,1.5908 1.2384,0 2.2799,-0.1049 3.1258,-0.3252 0.8459,-0.2098 1.4846,-0.4197 1.9147,-0.6205 l 0.4935,2.9562 c -0.4288,0.2293 -1.1788,0.4663 -2.2527,0.7176 -1.0791,0.2513 -2.2942,0.3796 -3.6609,0.3796 -1.7177,0 -3.2035,-0.2604 -4.451,-0.7773 -1.2514,-0.5168 -2.28,-1.2332 -3.0896,-2.1387 -0.8083,-0.9146 -1.4068,-1.9923 -1.8006,-3.2398 -0.3925,-1.2527 -0.5894,-2.6232 -0.5894,-4.113 z" />
  </g>
</svg>
