<?xml version="1.0" encoding="utf-8"?><svg xmlns="http://www.w3.org/2000/svg" viewBox="0 0 205.54 96.39" width="205.54" height="96.39"><defs><style>.ocls-1{fill:#b22825}</style></defs><g id="oСлой_2" data-name="Слой 2"><g id="oСлой_1-2" data-name="Слой 1"><rect class="ocls-1" x="38.21" y="12.23" width="128.88" height="4" rx="2"/><rect class="ocls-1" x="101.47" y="12.62" width="3" height="83.78" rx="1.5"/><rect class="ocls-1" x="165.31" y="25.37" width="58" height="4" rx="2" transform="rotate(-70 194.308 27.372)"/><rect class="ocls-1" x="122" y="50.89" width="64.44" height="4" rx="2"/><rect class="ocls-1" x="152.4" y="44.94" width="3" height="58" rx="1.5" transform="rotate(-45 153.898 73.943)"/><rect class="ocls-1" x="124.26" y="72.44" width="58" height="3" rx="1.5" transform="rotate(-45 153.248 73.943)"/><rect class="ocls-1" x="9.23" y="-1.63" width="4" height="58" rx="2" transform="rotate(-20 11.228 27.358)"/><rect class="ocls-1" x="19.1" y="50.89" width="64.44" height="4" rx="2"/><rect class="ocls-1" x="22.65" y="72.44" width="58" height="3" rx="1.5" transform="rotate(-45 51.65 73.946)"/><rect class="ocls-1" x="50.79" y="44.94" width="3" height="58" rx="1.5" transform="rotate(-45 52.288 73.942)"/></g></g></svg>