<?xml version="1.0" encoding="utf-8"?><svg xmlns="http://www.w3.org/2000/svg" viewBox="0 0 169.09 169.09" width="169.09" height="169.09"><defs><style>.dcls-1,.dcls-3{fill:#b22825}.dcls-2{fill:#fff}.dcls-3{font-size:75.01px;font-family:Ponder-BlackItalic,Ponder BlackItalic;font-weight:800;font-style:italic}</style></defs><g id="dСлой_2" data-name="Слой 2"><g id="dСлой_1-2" data-name="Слой 1"><path class="dcls-1" d="M117 8.7H52.08a19.62 19.62 0 00-17 9.81L2.63 74.73a19.61 19.61 0 000 19.63l32.46 56.22a19.62 19.62 0 0017 9.81H117a19.61 19.61 0 0017-9.81l32.46-56.22a19.61 19.61 0 000-19.63L134 18.51a19.61 19.61 0 00-17-9.81z"/><path class="dcls-1" d="M74.73 2.63L18.51 35.09a19.62 19.62 0 00-9.81 17V117a19.61 19.61 0 009.81 17l56.22 32.46a19.61 19.61 0 0019.63 0L150.58 134a19.61 19.61 0 009.81-17V52.08a19.62 19.62 0 00-9.81-17L94.36 2.63a19.61 19.61 0 00-19.63 0z"/><path class="dcls-2" d="M114.14 13.66H55a19.6 19.6 0 00-17 9.82L8.36 74.73a19.66 19.66 0 000 19.63L38 145.62a19.61 19.61 0 0017 9.81h59.19a19.61 19.61 0 0017-9.81l29.6-51.26a19.66 19.66 0 000-19.63l-29.6-51.25a19.6 19.6 0 00-17.05-9.82z"/><path class="dcls-2" d="M74.73 8.36L23.48 38a19.6 19.6 0 00-9.82 17v59.19a19.6 19.6 0 009.82 17l51.25 29.6a19.66 19.66 0 0019.63 0l51.26-29.6a19.61 19.61 0 009.81-17V55a19.61 19.61 0 00-9.81-17L94.36 8.36a19.66 19.66 0 00-19.63 0z"/><text class="dcls-3" transform="translate(49.8 112.76)">%</text></g></g></svg>