<?xml version="1.0" encoding="utf-8"?><svg xmlns="http://www.w3.org/2000/svg" viewBox="0 0 205 109.69" width="205" height="109.69"><defs><style>.ccls-1{fill:#b22825}.ccls-2{fill:none;stroke:#b22825;stroke-linecap:round;stroke-linejoin:round;stroke-width:4px}</style></defs><g id="cСлой_2" data-name="Слой 2"><g id="cСлой_1-2" data-name="Слой 1"><path class="ccls-1" d="M174 4v49.74H31V4h143m.09-4H30.92A3.91 3.91 0 0027 3.91v49.93a3.91 3.91 0 003.91 3.9h143.2a3.91 3.91 0 003.91-3.9V3.91a3.91 3.91 0 00-3.9-3.91z"/><path class="ccls-2" d="M102.52 2.82v44.89"/><path class="ccls-1" d="M19.15 33.32a8 8 0 018 8v12.42H4.5V33.32h14.65m0-4H2.46a2 2 0 00-2 2v24.5a2 2 0 002 2h26.69a2 2 0 002-2V41.28a12 12 0 00-12-12zM200.5 33.32v20.42h-22.61V41.27a8 8 0 018-8h14.61m2.05-4h-16.71a12 12 0 00-12 12v14.52a2 2 0 002 2h26.71a2 2 0 001.95-2V31.27a2 2 0 00-1.95-1.95z"/><path class="ccls-1" d="M201 58.49v24.06a3 3 0 01-3 3H7a3 3 0 01-3-3V58.49h197m1.73-4H2.27A2.28 2.28 0 000 56.77v25.78a7 7 0 007 7h191a7 7 0 007-7V56.77a2.28 2.28 0 00-2.27-2.28z"/><path class="ccls-2" d="M29.17 107.69V89.33M175.95 107.69V89.33"/><path class="ccls-1" d="M56.11 23.5c2.58 0 2.58-4 0-4s-2.58 4 0 4zM77.66 23.5c2.57 0 2.58-4 0-4s-2.58 4 0 4zM77.66 41.31c2.57 0 2.58-4 0-4s-2.58 4 0 4zM56.11 41c2.58 0 2.58-4 0-4s-2.58 4 0 4zM125.5 23.5c2.57 0 2.58-4 0-4s-2.58 4 0 4zM147.05 23.5c2.57 0 2.58-4 0-4s-2.58 4 0 4zM147.05 41.31c2.57 0 2.58-4 0-4s-2.58 4 0 4zM125.5 41c2.57 0 2.58-4 0-4s-2.58 4 0 4z"/></g></g></svg>