<?xml version="1.0" encoding="utf-8"?><svg xmlns="http://www.w3.org/2000/svg" viewBox="0 0 203 116.25" width="203" height="116.25"><defs><style>.lcls-1{fill:none;stroke:#b22825;stroke-linecap:round;stroke-linejoin:round;stroke-width:3px}.lcls-2{fill:#b22825}</style></defs><g id="lСлой_2" data-name="Слой 2"><g id="lСлой_1-2" data-name="Слой 1"><path class="lcls-1" d="M1.5 1.5h200v113.25H1.5zM88.25 1.5v113.25M200.3 32.83H89.45"/><path class="lcls-1" d="M113.55 56.92h62.65v33.73h-62.65zM20.78 44.87v24.1"/><path class="lcls-2" d="M118 19.75c2.58 0 2.58-4 0-4s-2.57 4 0 4zM135.64 19.75c2.58 0 2.58-4 0-4s-2.57 4 0 4zM153.74 19.75c2.57 0 2.57-4 0-4s-2.58 4 0 4zM170.92 19.75c2.58 0 2.58-4 0-4s-2.57 4 0 4z"/></g></g></svg>