<?xml version="1.0" encoding="utf-8"?><svg version="1.1" id="qСлой_1" xmlns="http://www.w3.org/2000/svg" x="0" y="0" viewBox="0 0 190 146" xml:space="preserve" width="190" height="146"><style>.qst0{fill-rule:evenodd;clip-rule:evenodd;fill:#c00220}</style><path id="qpath8" class="qst0" d="M59.4 33.4c-43.2 67.9-19 100.6-18 105.7.7 3.6.1 6.5-3.2 6.5-3.4 0-29.9.5-30.7.5-2.6 0-4.5-1-5.6-2.9-1.2-1.9-1.7-5.9-1.7-12 0-47.1 50.3-94.6 50.5-114.7 0-3.2-.4-5.9-2.9-7.8C46.6 7.8 46 6.5 46 5V3.9c0-2.3 1.9-4.2 4.2-4.2h32.3c2.3 0 4.1 1.9 4 4.2-.5 11.3 12.1 97.1 14.1 110.2 9.1-48.5 28.1-87 28.9-101.4.3-6-2.5-6.5-2.9-8.7-.3-2.3 1.4-4.3 3.8-4.3H160c2 0 3.5 1.7 3.4 3.7-.2 3.2-2 3-1.3 9 6.3 55.6 17.4 94.3 27.8 127.9.9 2.8-1.8 5.6-4.8 5.6H160c-4.1 0-7.5-3-8.1-7.1l-14.9-99s-15.4 23-25.6 102.8c-.2 1.8-2 3.2-3.8 3.2H81.9c-3.1 0-6.1-2.5-6.7-5.5-5.4-27.5-15.8-106.9-15.8-106.9z"/></svg>