<?xml version="1.0" encoding="utf-8"?><svg xmlns="http://www.w3.org/2000/svg" viewBox="0 0 200 158.92" width="200" height="158.92"><defs><style>.lcls-1{fill:#b22825}.lcls-2{fill:none;stroke:#b22825;stroke-linecap:round;stroke-linejoin:round;stroke-width:3px}</style></defs><g id="lСлой_2" data-name="Слой 2"><g id="lСлой_1-2" data-name="Слой 1"><path class="lcls-1" d="M197 107.42v27.33H3v-27.33h194m3-3H0v33.33h200v-33.33z"/><path class="lcls-1" d="M175.43 72.08A38.2 38.2 0 01191 85.33a36.1 36.1 0 016 18.25H3.09a39.11 39.11 0 016-18.31 41.62 41.62 0 0113.5-13.19h152.84m.65-3H21.75A44.73 44.73 0 006.53 83.67 42.34 42.34 0 000 106.58h200a38.84 38.84 0 00-6.52-22.91 41.52 41.52 0 00-17.37-14.59z"/><path class="lcls-2" d="M11.98 157.42v-20.84M189.06 157.42v-20.84M24.48 1.5h150v68.75h-150z"/><path class="lcls-2" d="M46.14 32.75h42.09a5 5 0 015 5v32.5H41.14v-32.5a5 5 0 015-5zM114.89 32.75H157a5 5 0 015 5v32.5h-52.11v-32.5a5 5 0 015-5z"/></g></g></svg>