<?xml version="1.0" encoding="utf-8"?><svg version="1.1" id="qLayer_1" xmlns="http://www.w3.org/2000/svg" x="0" y="0" viewBox="0 0 512 512" xml:space="preserve" width="512" height="512"><style>.qst0{fill:#1d81ce}.qst1{fill:#126db1}.qst2{fill:#fcfcfc}</style><circle class="qst0" cx="256" cy="256" r="256"/><path class="qst1" d="M256 0c-11.3 0-22.5.7-33.4 2.2C348.2 18.5 445.2 125.9 445.2 256s-97 237.5-222.6 253.8c10.9 1.4 22.1 2.2 33.4 2.2 141.4 0 256-114.6 256-256S397.4 0 256 0z"/><path class="qst2" d="M167 256.1v9.5c0 .9-.7 1.6-1.6 1.6H95.7c-3.7 0-6.6 3-6.6 6.6v64.7c0 3.7 3 6.6 6.6 6.6h69.7c.9 0 1.6.7 1.6 1.6v148.4c0 .7.4 1.3 1.1 1.5 23.6 8.7 48.9 13.9 75.2 15.2.9 0 1.7-.7 1.7-1.6V346.8c0-.9.7-1.6 1.6-1.6h114.2c3.7 0 6.6-3 6.6-6.6v-64.7c0-3.7-3-6.6-6.6-6.6H246.5c-.9 0-1.6-.7-1.6-1.6v-9.5c0-43.1 34.9-66.8 77.9-66.8h37.9c3.7 0 6.6-3 6.6-6.6v-64.7c0-3.7-3-6.6-6.6-6.6h-37.9c-79.9-.2-155.8 64.6-155.8 144.6z"/></svg>