<?xml version="1.0" encoding="utf-8"?><svg version="1.1" id="tLayer_1" xmlns="http://www.w3.org/2000/svg" x="0" y="0" viewBox="0 0 512 512" xml:space="preserve" width="512" height="512"><style>.tst0{fill:#ef72ad}.tst1{fill:#ee539e}.tst2{fill:#fff}</style><circle class="tst0" cx="256" cy="256" r="256"/><path class="tst1" d="M256 0c-11.3 0-22.5.7-33.4 2.2C348.2 18.5 445.2 125.9 445.2 256s-97 237.5-222.6 253.8c10.9 1.4 22.1 2.2 33.4 2.2 141.4 0 256-114.6 256-256S397.4 0 256 0z"/><path class="tst2" d="M350.8 91.8H161.2c-38.2 0-69.3 31.1-69.3 69.3v189.7c0 38.2 31.1 69.3 69.3 69.3h189.7c38.2 0 69.3-31.1 69.3-69.3V161.2c0-38.3-31.1-69.4-69.4-69.4zm52.7 259c0 29-23.6 52.6-52.6 52.6H161.2c-29 0-52.6-23.6-52.6-52.6V161.2c0-29 23.6-52.6 52.6-52.6h189.7c29 0 52.6 23.6 52.6 52.6v189.6z"/><path class="tst2" d="M256 169.7c-47.6 0-86.3 38.7-86.3 86.3s38.7 86.3 86.3 86.3 86.3-38.7 86.3-86.3-38.7-86.3-86.3-86.3zm0 155.9c-38.4 0-69.6-31.2-69.6-69.6s31.2-69.6 69.6-69.6 69.6 31.2 69.6 69.6-31.2 69.6-69.6 69.6z"/><circle class="tst2" cx="345" cy="155.8" r="22.3"/></svg>