<?xml version="1.0" encoding="UTF-8" standalone="no"?><svg xmlns="http://www.w3.org/2000/svg" height="595.276" width="841.89" viewBox="0 0 841.89 595.276"><g fill-rule="evenodd"><path d="M621.066 254.646c-2.327 3.368-3.922 6.741-4.795 10.11-.873 3.371-1.307 7.46-1.307 12.273 0 8.474 2.18 15.694 6.536 21.662 3.774 5.2 7.644 7.801 11.616 7.801 1.939 0 3.532-.626 4.794-1.878 2.034-1.924 3.048-5.004 3.048-9.246l.001-5.342c0-5.68-1.889-12.178-5.664-19.495-4.163-7.994-8.907-13.285-14.23-15.885zm-4.068 48.213l.58 4.94c.193 1.257.456 4.067.8 8.422.34 4.355.507 7.074.507 12.59 0 7.262-.791 12.32-2.368 15.182-1.58 2.851-3.805 4.281-6.676 4.281-1.913 0-3.016-.484-3.3-1.453l.001-.868c0-.68-.07-1.819 0-3.413.165-3.949-.042-12.366-.147-18.463-.036-2.033-.288-4.401-.58-7.106-.97-10.05-1.65-17.23-2.034-21.529-.387-4.306-.58-8.533-.58-12.691 0-11.502 3.679-21.698 11.037-30.591 6.197-7.445 11.615-11.17 16.263-11.17 5.038 0 10.457 4.439 16.266 13.314 6.488 9.838 9.733 20.445 9.733 31.824 0 8.582-1.914 15.602-5.74 21.05-3.825 5.447-8.687 8.17-14.591 8.17-3.683 0-7.313-1.22-10.896-3.66-3.582-2.435-6.342-5.384-8.275-8.83zM77.045 234.186c-30.435 47.862-13.407 70.948-12.668 74.535.526 2.546.105 4.57-2.261 4.57-2.37 0-21.073.371-21.648.371-1.832 0-3.158-.681-3.972-2.037-.821-1.358-1.23-4.178-1.23-8.45 0-33.234 35.446-66.717 35.642-80.912.033-2.235-.279-4.182-2.01-5.498a3.304 3.304 0 01-1.299-2.623l.002-.758c0-1.645 1.329-2.98 2.974-2.98h22.767a2.827 2.827 0 012.829 2.93c-.302 8.025 8.559 68.48 9.943 77.757 6.445-34.17 19.793-61.37 20.379-71.515.242-4.218-1.779-4.574-2.012-6.165-.241-1.645 1.01-3.006 2.674-3.006h20.877a2.393 2.393 0 012.38 2.576c-.16 2.276-1.38 2.148-.905 6.362 4.428 39.188 12.252 66.507 19.623 90.165.627 2.006-1.303 3.94-3.4 3.94h-17.718a5.733 5.733 0 01-5.685-4.996l-10.52-69.792s-10.84 16.206-18.074 72.498c-.16 1.26-1.416 2.29-2.687 2.29H92.94c-2.19 0-4.304-1.756-4.725-3.904-3.775-19.368-11.17-75.358-11.17-75.358zM268.768 308.032h23.381c.197-.676.292-1.527.292-2.541v-2.107c0-6.969-1.938-12.248-5.809-15.83-3.875-3.579-9.73-5.37-17.571-5.37-.197 1.16-.293 2.203-.293 3.122v22.726zm10.855-57.655h-9.24c-.293 2.034-.637 5.617-1.03 10.75-.388 5.13-.585 9.97-.585 14.523 6.143 0 11.992.652 17.544 1.956 5.559 1.307 10.332 3.514 14.327 6.608 4 3.102 7.019 7.023 9.067 11.767 1.755 4.063 2.632 7.892 2.632 11.471 0 3.002-1.16 4.742-3.487 5.227-.969.197-2.564.293-4.79.293h-48.509c-1.938 0-3.144-.676-3.628-2.034-.485-1.356-.727-4.213-.727-8.568 0-5.031.118-11.668.36-19.898.244-8.225.463-15.345.654-21.345.001-5.814.096-9.882.293-12.203.192-2.322 1.69-3.486 4.502-3.486h31.947c2.519 0 5.256-.056 8.208-.179 2.954-.12 6.124-.302 9.51-.544 4.552 0 6.828 1.097 6.828 3.3 0 .863-.316 1.988-.942 3.373-.63 1.388-1.43 2.943-2.399 4.666-1.356 2.394-3.34 6.84-5.955 13.348h-6.968c.58-2.212.872-4.273.872-6.196v-4.616c-.493-3.648-2.107-5.931-4.844-6.84-2.737-.915-7.284-1.373-13.64-1.373zM423.073 256.766c-.58 2.038-1.211 3.885-1.889 5.534-.967 2.135-1.74 3.835-2.321 5.096-3.101 6.896-5.227 12.352-6.393 16.378-1.16 4.032-1.741 7.742-1.741 11.142 0 2.327.146 4.15.434 5.462.294 1.31.969 3.13 2.034 5.46a29.754 29.754 0 002.18 3.638c.58.777.872 1.458.872 2.038 0 1.165-.923 1.745-2.76 1.745h-14.522c-2.034 0-3.32-.264-3.85-.799-.534-.53-.798-1.91-.798-4.136 0-5.616 1.69-11.858 5.082-18.736 1.645-3.387 5.227-9.341 10.748-17.865a737.493 737.493 0 005.808-9.148c2.519-4.26 3.775-7.5 3.775-9.73 0-1.16-.289-2.614-.87-4.355-.195-.777-.195-1.356 0-1.745.386-.87 1.355-1.307 2.903-1.307h16.343c1.726 0 1.229 2.139 1.229 3.788 0 2.81.922 7.86 2.76 15.135a298.564 298.564 0 003.487 12.518c3.002 9.409 5.712 17.17 8.135 23.284 1.448 3.688 2.901 7.325 4.355 10.918 0 1.453-.823 2.178-2.468 2.178h-13.362c-2.23 0-3.825-.972-4.794-2.92-1.449-2.915-3.922-10.995-7.404-24.229l-1.887-7.298a181.6 181.6 0 01-2.18-8.176c-.196-.777-.489-2.093-.873-3.944l-1.013-5.11-1.02-4.816zM489.016 308.324h19.172v-4.73c0-4.624-.97-8.564-2.907-11.813-3.29-5.41-8.76-8.614-16.411-9.596-.095.877-.169 1.81-.214 2.788a49.36 49.36 0 00-.074 2.495l.001 2.498c0 3.524.073 7.395.214 11.603.146 4.21.219 6.463.219 6.755zm24.546 4.935h-37.469c-1.746 0-3.03-.46-3.853-1.388-.822-.924-1.234-2.363-1.234-4.31l.001-19.44c0-19.486.315-31.523.946-36.098.625-4.584 2.298-6.874 5.008-6.874H489.598c1.256.192 1.886.969 1.886 2.323 0 .68-.196 1.649-.58 2.905-.968 3.099-1.454 6.874-1.454 11.33a143.466 143.466 0 00-.434 10.89v3.053c5.808 0 11.205.676 16.191 2.028 4.988 1.358 9.465 3.583 13.436 6.682 4.355 3.486 7.5 7.604 9.437 12.343a28.263 28.263 0 012.034 10.603c0 2.81-.969 4.601-2.903 5.373-.968.389-2.759.58-5.373.58h-8.277zM571.409 250.377h-8.716c-1.16 7.55-1.741 15.346-1.741 23.38 0 7.459.266 13.848.795 19.17.53 5.325 1.092 10.604 1.673 15.832 0 1.645-.197 2.663-.58 3.052-.68.772-2.423 1.16-5.229 1.16h-8.714c-2.517 0-4.068-1.968-4.648-5.908-.58-3.935-.873-14.898-.873-32.89 0-12.932.365-21.026 1.092-24.284.728-3.254 2.198-4.885 4.429-4.885 0 0 46.63.078 47.746.365 1.116.293 1.774 1.233 1.774 2.683 0 1.356-.823 3.486-2.468 6.393l-2.76 5.662c-.869 1.745-1.449 3.03-1.742 3.847-.293.828-.53 1.624-.726 2.396l-1.453 4.359-6.097-.58c.193-1.55.383-3.121.58-4.721.192-1.6.288-2.491.288-2.687 0-4.935-1.065-8.226-3.195-9.876-2.128-1.645-5.277-2.468-9.436-2.468zM697.05 259.668c-5.712 6.197-9.78 12.051-12.198 17.571-1.553 3.483-2.327 6.485-2.327 9.003.001 2.423.7 4.671 2.108 6.755 1.403 2.084 3.555 3.121 6.462 3.121 3.774 0 6.873-1.402 9.296-4.208 2.033-2.327 3.048-4.845 3.048-7.555 0-1.741-.778-5.274-2.323-10.602l-1.886-6.389c-.489-2.417-1.211-4.986-2.18-7.696zm-1.161-14.377H710.7c.969 0 1.548.288 1.745.868 0 .682.022 1.403.072 2.18.047.778.362 2.322.942 4.649l2.18 8.275 1.16 4.355c3.1 12.59 6.052 23.047 8.862 31.374l5.223 14.522c0 .58-.339.942-1.015 1.089a9.05 9.05 0 01-1.887.218h-14.81c-.68 0-1.217-.777-1.6-2.326l-1.887-7.55-1.746-5.52-1.887-6.535c-2.13 7.07-4.79 12.49-7.985 16.264-4.067 4.845-9.058 7.262-14.961 7.262-5.42 0-9.538-2.27-12.344-6.823-2.128-3.487-3.195-7.504-3.195-12.055.001-4.84 2.322-10.552 6.97-17.137 1.842-2.71 5.566-7.212 11.182-13.505.677-.777 2.76-3.053 6.248-6.828 1.646-1.74 2.467-3.097 2.467-4.066.001-.58-.095-1.307-.292-2.175a38.9 38.9 0 00-.722-2.76 10.048 10.048 0 01-.439-2.908c.001-.484.412-.748 1.234-.795.823-.05 1.38-.072 1.673-.072zM758.763 307.223h26.797c-5.456-12.576-14.857-47.555-14.857-47.555-11.905 20.834-11.941 44.2-11.94 47.555zm18.52 5.598h-11.035c-4.556 0-8.528.48-10.822 2.774-6.33 6.33-3.657 20.876-2.496 23.508l-7.407 1.02c-3.482-8.328-16.653-32.676-5.252-32.676 1.253 0 5.736.992 6.174-1.64 5.544-33.549 19.766-45.454 19.766-52.226 0-1.81-.79-3.921-1.317-5.055-.649-1.412-.15-3.02 2.367-3.02 3.739 0 16.096-.215 17.778-.215 1.678 0 2.577 1.024 2.577 3.692 0 10.891 12.659 51.202 14.788 54.977 1.455 2.614 3.1 3.633 5.088 3.633 3.02 0 6.429 3.177 4.427 7.042-.768 1.48-11.484 20.355-13.613 25.487l-7.409-1.02c.97-2.339 5.064-17.319-1.05-23.433-2.427-2.428-7.047-2.848-12.563-2.848zM372.588 262.94c3.739 2.582 8.947-1.923 11.585-3.747.974-.671.703-2.015-.045-2.993-8.24-10.762-19.994-12.865-29.284-12.865-9.875 0-17.819 4.31-23.82 12.929-4.843 6.969-7.261 14.376-7.261 22.219v4.935c0 12.686 4.45 22.027 13.362 28.033 6.289 4.258 13.842 6.388 22.654 6.388 5.52 0 10.478-1.042 14.884-3.121 4.406-2.084 7.846-4.447 10.945-7.737l-1.86-3.926c-3.875 2.806-7.874 5.32-10.826 6.435-2.952 1.11-5.787 1.668-8.497 1.668-6.387 0-11.351-2.518-14.884-7.55-2.334-3.326-5.245-9.263-6.01-15.51.002 0-.305-5.913 8.953-5.913 5.335 0 12.28 1.8 15.772 2.86 1.02.306 1.996-.585 1.777-1.627l-2.083-9.743c-.206-.846-10.073-2.467-16.384-.128-5.922 2.198-8.664 5.982-9.638 6.613-3.737-16.256 2.249-27.1 8.724-28.895 7.81-2.168 15.25 7.056 21.936 11.675zM226.397 262.94c3.733 2.582 8.947-1.923 11.58-3.747.972-.671.703-2.015-.042-2.993-8.243-10.762-19.994-12.865-29.288-12.865-9.875 0-17.815 4.31-23.82 12.929-4.838 6.969-7.261 14.376-7.261 22.219v4.935c0 12.686 4.456 22.027 13.362 28.033 6.294 4.258 13.848 6.388 22.658 6.388 5.517 0 10.479-1.042 14.884-3.121 4.406-2.084 7.847-4.447 10.945-7.737l-1.864-3.926c-3.87 2.806-7.87 5.32-10.822 6.435-2.956 1.11-5.79 1.668-8.495 1.668-6.393 0-11.357-2.518-14.89-7.55-2.334-3.326-5.246-9.263-6.009-15.51 0 0-.306-5.913 8.953-5.913 5.338 0 12.284 1.8 15.771 2.86 1.025.306 2.002-.585 1.778-1.627l-2.08-9.743c-.21-.846-10.076-2.467-16.383-.128-5.922 2.198-8.665 5.982-9.643 6.613-3.737-16.256 2.25-27.1 8.729-28.895 7.806-2.168 15.246 7.056 21.936 11.675z" fill="#c00220"/><path d="M42.164 340.683v9.246c.278.027.607.05.987.077.329.028.712.047 1.155.06.445.009.955.018 1.535.018 1.085 0 2.117-.069 3.09-.21.969-.137 1.824-.383 2.554-.74a4.456 4.456 0 001.765-1.476c.443-.631.663-1.426.663-2.39 0-.855-.164-1.582-.493-2.175-.33-.595-.801-1.07-1.423-1.421-.616-.358-1.356-.61-2.216-.76a16.636 16.636 0 00-2.879-.227l-4.738-.001zm0-2.956h3.866c.909 0 1.767-.063 2.577-.186.808-.129 1.508-.358 2.103-.682a3.86 3.86 0 001.401-1.293c.345-.525.513-1.198.513-2.006 0-.76-.173-1.4-.53-1.915-.352-.517-.842-.932-1.458-1.252-.62-.311-1.349-.548-2.18-.7a14.956 14.956 0 00-2.655-.228c-.933 0-1.663.014-2.194.042-.534.021-1.015.06-1.443.108v8.112zm3.45 15.423a45.894 45.894 0 01-3.584-.15c-.616-.05-1.23-.114-1.837-.188a15.372 15.372 0 01-1.668-.3l.001-25.47c.507-.128 1.06-.227 1.667-.305a47.412 47.412 0 013.68-.302 37.78 37.78 0 011.704-.036c1.513 0 2.934.114 4.263.338 1.327.228 2.473.613 3.446 1.155.974.545 1.737 1.258 2.294 2.144.559.883.837 1.97.837 3.258 0 1.44-.343 2.624-1.023 3.542-.685.924-1.596 1.614-2.73 2.066 1.54.457 2.766 1.174 3.675 2.16.911.984 1.362 2.378 1.362 4.17.001 2.627-.964 4.606-2.898 5.931-1.933 1.325-4.994 1.987-9.19 1.987zM86.276 352.928h-3.522v-19.712h3.522v19.712zm-15.423-9.745c-.68 0-1.343.02-1.988.06a9.179 9.179 0 00-1.727.247l.001 6.782c.15.027.373.05.661.078.294.023.609.045.95.054.34.014.686.027 1.044.038.35.013.667.022.945.022 1.54 0 2.728-.293 3.564-.873.833-.58 1.249-1.517 1.249-2.806 0-.631-.134-1.174-.398-1.627a3.321 3.321 0 00-1.06-1.12 4.726 4.726 0 00-1.5-.643 7.194 7.194 0 00-1.74-.212zm-7.238-9.967h3.524v7.545c.43-.105 1.055-.205 1.877-.306.82-.1 1.61-.15 2.367-.15 1.039 0 2.02.12 2.958.362a7.038 7.038 0 012.462 1.137 5.54 5.54 0 011.687 2.007c.416.82.625 1.8.625 2.938.002 1.187-.206 2.198-.607 3.03a5.346 5.346 0 01-1.705 2.046c-.736.531-1.618.915-2.654 1.157-1.034.242-2.171.361-3.41.361-1.188 0-2.386-.068-3.601-.21a29.101 29.101 0 01-3.524-.621v-19.295zM106.44 350.272c.151.027.365.05.644.078.274.023.589.045.945.054.354.014.727.027 1.12.038.39.013.764.022 1.116.022.736 0 1.434-.05 2.106-.156.669-.1 1.248-.274 1.741-.53a3.13 3.13 0 001.175-1.005c.293-.416.434-.95.434-1.609 0-.63-.133-1.155-.397-1.572a2.933 2.933 0 00-1.08-1.006c-.452-.25-.99-.428-1.612-.53a12.31 12.31 0 00-1.989-.15h-4.203v6.366zm3.753-8.98c.68 0 1.305-.045 1.873-.132.566-.092 1.06-.247 1.48-.475a2.63 2.63 0 00.982-.91c.242-.38.362-.86.362-1.44 0-.608-.152-1.087-.458-1.44-.302-.356-.7-.625-1.193-.817a6.764 6.764 0 00-1.667-.38 19.525 19.525 0 00-1.874-.091c-.58 0-1.17.014-1.765.036-.593.028-1.092.05-1.493.074v5.575h3.752zm-.08 11.972a38.44 38.44 0 01-4.13-.204c-1.261-.143-2.262-.297-2.994-.476v-19.176c.731-.177 1.731-.333 2.993-.474a38.443 38.443 0 014.131-.206c1.038 0 2.048.087 3.03.264.987.174 1.86.472 2.618.888.76.42 1.367.987 1.838 1.709.467.717.699 1.608.699 2.668 0 .96-.237 1.783-.717 2.464a4.819 4.819 0 01-1.934 1.595c1.084.38 1.952.941 2.596 1.686.645.745.964 1.787.964 3.126.001 1.188-.233 2.171-.698 2.956a5.338 5.338 0 01-1.934 1.893c-.822.48-1.787.813-2.897 1.005a21.317 21.317 0 01-3.565.282zM133.27 353.38c-1.59 0-2.99-.252-4.187-.76-1.202-.502-2.212-1.21-3.033-2.12-.818-.91-1.436-1.992-1.839-3.24-.401-1.252-.607-2.636-.607-4.15 0-1.516.224-2.906.667-4.172.44-1.261 1.065-2.353 1.874-3.276a8.501 8.501 0 012.975-2.162c1.175-.517 2.482-.772 3.921-.772a15.7 15.7 0 012.656.224c.882.15 1.726.393 2.536.722l-.795 2.994a8.677 8.677 0 00-1.837-.608 10.396 10.396 0 00-2.218-.224c-1.968 0-3.482.616-4.528 1.855-1.05 1.238-1.572 3.043-1.572 5.42 0 1.06.12 2.034.356 2.916.242.886.622 1.645 1.139 2.275a5.07 5.07 0 001.992 1.458c.81.342 1.792.512 2.956.512.933 0 1.778-.087 2.537-.266.759-.177 1.352-.365 1.782-.566l.495 2.953c-.206.128-.495.246-.874.361-.38.114-.809.214-1.29.306-.477.087-.99.164-1.534.224a13.53 13.53 0 01-1.572.096zM155.703 341.177c.029-1.595-.37-2.897-1.192-3.92-.822-1.023-1.952-1.54-3.391-1.54-.809 0-1.522.159-2.144.475a5.126 5.126 0 00-1.571 1.233 5.707 5.707 0 00-1.006 1.741 8.632 8.632 0 00-.471 2.012h9.775zm-13.525 1.934c0-1.746.25-3.267.757-4.57.503-1.298 1.174-2.376 2.006-3.24a8.23 8.23 0 012.88-1.929 9.02 9.02 0 013.335-.644c2.656 0 4.69.827 6.102 2.48 1.417 1.655 2.124 4.173 2.124 7.56v.59a4.63 4.63 0 01-.041.662h-13.49c.15 2.043.744 3.602 1.782 4.661 1.033 1.061 2.65 1.591 4.848 1.591 1.239 0 2.282-.105 3.126-.325.851-.21 1.486-.42 1.915-.62l.493 2.956c-.428.229-1.178.466-2.252.717-1.074.251-2.295.38-3.661.38-1.717 0-3.199-.26-4.451-.778-1.252-.516-2.28-1.233-3.088-2.138-.809-.915-1.409-1.993-1.802-3.24-.393-1.253-.585-2.623-.583-4.113zM177.607 336.174h-8.678v16.754h-3.523v-19.712h12.201v2.958zM193.374 350.044v-13.87H187.2a59.922 59.922 0 01-.192 3.583 33.137 33.137 0 01-.493 3.56 21.654 21.654 0 01-.966 3.45 20.034 20.034 0 01-1.57 3.277h9.395zm-15.273 0h2.124a17.938 17.938 0 001.989-3.753 22.647 22.647 0 001.119-3.999c.253-1.374.416-2.815.494-4.317.073-1.504.123-3.09.151-4.759h12.924v16.828h2.65v8.376h-3.336v-5.492h-14.778v5.492H178.1v-8.376zM210.995 350.386c.837 0 1.572-.018 2.22-.06.642-.036 1.18-.104 1.61-.206v-5.876c-.252-.124-.663-.229-1.234-.32a13.914 13.914 0 00-2.066-.132c-.53 0-1.092.037-1.687.114a5.227 5.227 0 00-1.627.476 3.475 3.475 0 00-1.233.982c-.328.416-.49.969-.49 1.65.001 1.266.403 2.139 1.211 2.632.81.493 1.906.74 3.296.74zm-.302-17.658c1.418 0 2.61.183 3.584.548.969.365 1.754.882 2.348 1.555.595.666 1.015 1.46 1.271 2.385.251.923.38 1.941.38 3.053v12.315c-.306.05-.727.12-1.271.206-.544.091-1.157.174-1.837.246-.686.078-1.421.147-2.222.212a29.78 29.78 0 01-2.367.095 12.98 12.98 0 01-3.071-.343c-.931-.23-1.741-.585-2.422-1.079a4.936 4.936 0 01-1.595-1.95c-.378-.81-.566-1.783-.566-2.92 0-1.089.219-2.02.662-2.807a5.309 5.309 0 011.8-1.892c.76-.48 1.642-.832 2.656-1.06a14.33 14.33 0 013.18-.343c.358 0 .723.018 1.101.056.381.04.736.09 1.08.155.343.064.634.118.89.168.253.051.43.087.53.114l.001-.987a8.03 8.03 0 00-.189-1.723 3.94 3.94 0 00-.685-1.516c-.329-.443-.776-.796-1.343-1.06-.57-.266-1.307-.398-2.217-.398-1.164 0-2.18.082-3.052.246-.873.165-1.522.335-1.952.512l-.414-2.92c.452-.2 1.21-.398 2.27-.585a19.473 19.473 0 013.45-.283zM250.599 352.928h-3.524v-16.754h-8.793v16.754h-3.522v-19.712h15.839v19.712zM271.328 343.07c0-2.222-.499-3.985-1.495-5.283-1-1.303-2.358-1.951-4.077-1.951-1.717 0-3.075.649-4.071 1.95-1 1.299-1.499 3.063-1.499 5.284 0 2.225.497 3.99 1.499 5.287.996 1.302 2.354 1.951 4.071 1.951 1.72 0 3.076-.649 4.077-1.95.997-1.299 1.495-3.063 1.495-5.289zm3.679 0c0 1.567-.23 2.984-.687 4.245-.452 1.265-1.092 2.353-1.914 3.259a8.331 8.331 0 01-2.934 2.106c-1.136.49-2.376.736-3.716.736-1.338 0-2.576-.246-3.715-.736a8.402 8.402 0 01-2.934-2.106c-.821-.906-1.463-1.993-1.915-3.26-.456-1.26-.68-2.677-.68-4.245 0-1.54.223-2.947.68-4.223.454-1.274 1.092-2.366 1.915-3.28a8.412 8.412 0 012.934-2.102c1.139-.49 2.377-.736 3.715-.736 1.34 0 2.578.246 3.716.736a8.353 8.353 0 012.934 2.102c.824.914 1.462 2.006 1.914 3.28.459 1.276.686 2.683.687 4.224zM287.776 336.174c0 .836-.02 1.727-.056 2.672-.036.947-.11 1.897-.211 2.844-.1.945-.237 1.882-.416 2.8a19.548 19.548 0 01-.68 2.597 12.428 12.428 0 01-1.043 2.276 7.782 7.782 0 01-1.535 1.878 8.278 8.278 0 01-2.124 1.361c-.81.366-1.756.599-2.844.704l-.487-2.956c1.234-.252 2.215-.723 2.933-1.403.722-.682 1.298-1.517 1.727-2.504.38-.855.654-1.828.831-2.916.18-1.088.302-2.217.38-3.392.078-1.173.12-2.357.132-3.545.014-1.184.02-2.313.02-3.374h13.114v19.712h-3.527v-16.754h-6.214zM302.216 356.601c.274.124.635.247 1.078.362.444.114.878.168 1.307.168 1.39 0 2.477-.31 3.259-.927.786-.622 1.494-1.627 2.124-3.016a107.66 107.66 0 01-4.456-9.643 83.997 83.997 0 01-3.426-10.328h3.788c.28 1.138.612 2.362 1.005 3.679.394 1.312.828 2.664 1.307 4.053.48 1.39.996 2.779 1.554 4.169a74.821 74.821 0 001.745 4.015c.956-2.65 1.792-5.277 2.5-7.882a201.6 201.6 0 002.007-8.034h3.638c-.91 3.715-1.92 7.285-3.03 10.708a108.623 108.623 0 01-3.601 9.605c-.507 1.137-1.03 2.117-1.573 2.94-.543.822-1.143 1.498-1.8 2.023a6.553 6.553 0 01-2.217 1.18c-.821.251-1.75.378-2.787.378-.278 0-.567-.018-.869-.058a9.615 9.615 0 01-.891-.152 9.609 9.609 0 01-.795-.206 4.054 4.054 0 01-.512-.191l.645-2.843zM326.546 333.216v5.8c0 1.49.379 2.536 1.134 3.126.758.593 1.795.891 3.112.891.954 0 1.759-.05 2.404-.151.645-.1 1.22-.214 1.723-.342v-9.323h3.528v19.71h-3.528v-7.66c-.201.051-.467.115-.796.193-.329.072-.7.146-1.115.206-.42.068-.855.123-1.307.173-.457.05-.9.073-1.33.073-1.087 0-2.08-.11-2.975-.338-.895-.228-1.668-.608-2.312-1.138-.644-.53-1.148-1.233-1.513-2.102-.37-.873-.553-1.965-.553-3.282v-5.835h3.528zM352.124 350.386c.836 0 1.572-.018 2.217-.06.645-.036 1.182-.104 1.613-.206v-5.876c-.25-.124-.664-.229-1.235-.32a13.895 13.895 0 00-2.065-.132c-.53 0-1.092.037-1.686.114a5.186 5.186 0 00-1.628.476 3.463 3.463 0 00-1.233.982c-.329.416-.493.969-.493 1.65 0 1.266.406 2.139 1.215 2.632.81.493 1.905.74 3.295.74zm-.302-17.658c1.414 0 2.61.183 3.584.548.969.365 1.754.882 2.348 1.555a5.854 5.854 0 011.266 2.385c.256.923.38 1.941.38 3.053v12.315c-.301.05-.727.12-1.266.206-.544.091-1.157.174-1.842.246a69.39 69.39 0 01-2.217.212c-.795.063-1.585.095-2.367.095a12.98 12.98 0 01-3.07-.343c-.934-.23-1.742-.585-2.427-1.079a4.96 4.96 0 01-1.591-1.95c-.38-.81-.566-1.783-.566-2.92 0-1.089.219-2.02.662-2.807a5.298 5.298 0 011.8-1.892c.76-.48 1.642-.832 2.65-1.06a14.411 14.411 0 013.186-.343c.353 0 .722.018 1.098.056.38.04.74.09 1.083.155.339.064.634.118.89.168.252.051.43.087.53.114v-.987c0-.58-.063-1.155-.191-1.723a3.879 3.879 0 00-.682-1.516c-.329-.443-.777-.796-1.343-1.06-.571-.266-1.307-.398-2.216-.398-1.165 0-2.18.082-3.054.246-.871.165-1.52.335-1.95.512l-.415-2.92c.452-.2 1.21-.398 2.27-.585a19.499 19.499 0 013.45-.283zM378.616 341.177c.023-1.595-.375-2.897-1.197-3.92-.818-1.023-1.951-1.54-3.392-1.54-.808 0-1.52.159-2.139.475-.62.32-1.142.727-1.57 1.233a5.603 5.603 0 00-1.006 1.741 8.64 8.64 0 00-.476 2.012h9.78zm-13.531 1.934c0-1.746.255-3.267.758-4.57.508-1.298 1.175-2.376 2.01-3.24a8.183 8.183 0 012.88-1.929 9.02 9.02 0 013.336-.644c2.651 0 4.684.827 6.101 2.48 1.412 1.655 2.12 4.173 2.12 7.56v.59c0 .237-.014.461-.037.662h-13.49c.151 2.043.745 3.602 1.778 4.661 1.038 1.061 2.655 1.591 4.853 1.591 1.238 0 2.28-.105 3.126-.325.846-.21 1.486-.42 1.914-.62l.494 2.956c-.429.229-1.183.466-2.257.717-1.074.251-2.29.38-3.657.38-1.716 0-3.203-.26-4.45-.778-1.252-.516-2.28-1.233-3.09-2.138a8.758 8.758 0 01-1.8-3.24c-.393-1.253-.59-2.623-.589-4.113zM402.225 333.216v2.958h-6.402v16.754h-3.53v-16.754h-6.401v-2.958h16.333zM419.243 341.177c.023-1.595-.375-2.897-1.197-3.92-.818-1.023-1.953-1.54-3.392-1.54-.808 0-1.52.159-2.139.475a5.02 5.02 0 00-1.571 1.233 5.53 5.53 0 00-1.005 1.741 8.635 8.635 0 00-.476 2.012h9.78zm-13.531 1.934c0-1.746.251-3.267.758-4.57.507-1.298 1.175-2.376 2.006-3.24a8.23 8.23 0 012.884-1.929 9.004 9.004 0 013.336-.644c2.651 0 4.684.827 6.1 2.48 1.413 1.655 2.12 4.173 2.12 7.56v.59c.001.237-.013.461-.036.662h-13.49c.151 2.043.74 3.602 1.778 4.661 1.038 1.061 2.654 1.591 4.853 1.591 1.238 0 2.28-.105 3.126-.325.846-.21 1.485-.42 1.914-.62l.49 2.956c-.43.229-1.18.466-2.254.717-1.073.251-2.293.38-3.656.38-1.717 0-3.203-.26-4.455-.778-1.247-.516-2.281-1.233-3.085-2.138a8.76 8.76 0 01-1.801-3.24c-.392-1.253-.59-2.623-.588-4.113zM441.6 341.52c0 1.184.082 2.309.246 3.368.165 1.065.452 1.998.872 2.806.417.81.978 1.45 1.687 1.915.704.466 1.618.7 2.728.7.96 0 1.782-.183 2.464-.549a4.631 4.631 0 001.667-1.495c.426-.634.745-1.37.947-2.22.2-.846.3-1.75.3-2.706a12.156 12.156 0 00-.246-2.504 5.753 5.753 0 00-.887-2.157 4.676 4.676 0 00-1.727-1.517c-.716-.38-1.622-.571-2.71-.571-1.06 0-2.08.228-3.048.685-.973.452-1.723 1.01-2.258 1.663-.022.279-.036.673-.036 1.18v1.402zm.228-6.027a8.427 8.427 0 012.746-1.458c1.047-.343 2.052-.511 3.012-.511 2.83-.001 4.972.862 6.424 2.594 1.455 1.728 2.18 4.136 2.18 7.22a13.499 13.499 0 01-.53 3.79 9.357 9.357 0 01-1.65 3.222c-.743.932-1.685 1.677-2.824 2.234-1.137.553-2.49.832-4.053.832-1.796 0-3.285-.33-4.475-.982a7.518 7.518 0 01-2.824-2.692c-.694-1.139-1.178-2.464-1.457-3.98a26.59 26.59 0 01-.416-4.813c.001-2.198.156-4.245.476-6.137.316-1.897.89-3.565 1.722-5.004.832-1.44 1.988-2.637 3.468-3.583 1.477-.947 3.377-1.585 5.704-1.914.681-.102 1.28-.18 1.8-.243l1.362-.173c.394-.05.754-.107 1.083-.17.325-.063.667-.132 1.025-.21l.38 3.184c-.18.05-.362.088-.555.116-.185.022-.452.063-.794.114-.343.05-.796.114-1.367.187a93.63 93.63 0 01-2.216.265c-2.5.278-4.419 1.037-5.758 2.276-1.34 1.238-2.162 3.18-2.463 5.836zM475.855 343.07c0-2.222-.498-3.985-1.494-5.283-1.001-1.303-2.359-1.951-4.073-1.951-1.721 0-3.079.649-4.075 1.95-1 1.299-1.499 3.063-1.499 5.284 0 2.225.498 3.99 1.499 5.287.996 1.302 2.352 1.951 4.075 1.951 1.715 0 3.072-.649 4.073-1.95.996-1.299 1.494-3.063 1.494-5.289zm3.68 0c0 1.567-.23 2.984-.683 4.245-.456 1.265-1.092 2.353-1.914 3.259A8.392 8.392 0 01474 352.68c-1.138.49-2.376.736-3.712.736-1.343 0-2.581-.246-3.715-.736a8.415 8.415 0 01-2.938-2.106c-.821-.906-1.457-1.993-1.915-3.26-.452-1.26-.68-2.677-.68-4.245 0-1.54.228-2.947.68-4.223.458-1.274 1.092-2.366 1.915-3.28a8.438 8.438 0 012.938-2.102c1.135-.49 2.372-.736 3.715-.736 1.336 0 2.574.246 3.712.736a8.414 8.414 0 012.938 2.102c.824.914 1.458 2.006 1.914 3.28.454 1.276.682 2.683.683 4.224zM492.307 336.174c0 .836-.022 1.727-.06 2.672a41.928 41.928 0 01-.205 2.844 34.725 34.725 0 01-.42 2.8 17.89 17.89 0 01-.682 2.597 12.424 12.424 0 01-1.042 2.276 7.815 7.815 0 01-1.535 1.878 8.17 8.17 0 01-2.12 1.361c-.809.366-1.756.599-2.843.704l-.493-2.956c1.238-.252 2.216-.723 2.938-1.403.718-.682 1.293-1.517 1.723-2.504.38-.855.658-1.828.837-2.916.173-1.088.3-2.217.378-3.392.074-1.173.12-2.357.128-3.545.014-1.184.024-2.313.024-3.374h13.11v19.712h-3.522v-16.754h-6.217zM516.523 350.464c1.49 0 2.665-.293 3.524-.873.858-.58 1.288-1.517 1.288-2.806 0-.631-.128-1.174-.38-1.627a3.133 3.133 0 00-1.04-1.12 4.714 4.714 0 00-1.537-.643 8.05 8.05 0 00-1.855-.212 37.9 37.9 0 00-2.106.06c-.718.036-1.33.12-1.839.247l.001 6.782c.156.027.379.05.68.078.308.023.64.045 1.006.054a90.199 90.199 0 002.258.06zm-7.467 2.048v-19.296h3.524v7.545c.206-.054.474-.105.817-.154.338-.05.704-.101 1.097-.152a19.265 19.265 0 012.445-.15c1.088 0 2.106.12 3.071.362.96.237 1.8.616 2.517 1.137a5.633 5.633 0 011.723 2.007c.432.82.645 1.8.645 2.938 0 1.187-.2 2.198-.603 3.03a5.267 5.267 0 01-1.745 2.046c-.76.531-1.66.915-2.71 1.157-1.047.242-2.217.361-3.506.361-1.26 0-2.5-.068-3.715-.21a30.53 30.53 0 01-3.56-.621zM530.014 352.928v-19.712h3.524v16.79h7.28v-16.79h3.523v16.79h7.275v-16.79h3.523v19.712h-25.125zM574.58 341.177c.023-1.595-.375-2.897-1.193-3.92-.823-1.023-1.951-1.54-3.392-1.54-.808 0-1.526.159-2.142.475a5.13 5.13 0 00-1.573 1.233 5.736 5.736 0 00-1.005 1.741 8.629 8.629 0 00-.47 2.012h9.775zm-13.532 1.934c0-1.746.256-3.267.759-4.57.508-1.298 1.179-2.376 2.01-3.24a8.223 8.223 0 012.879-1.929 9.026 9.026 0 013.337-.644c2.652 0 4.688.827 6.1 2.48 1.417 1.655 2.126 4.173 2.126 7.56v.59c0 .237-.015.461-.042.662h-13.49c.151 2.043.745 3.602 1.782 4.661 1.038 1.061 2.65 1.591 4.849 1.591 1.238 0 2.28-.105 3.126-.325.846-.21 1.484-.42 1.915-.62l.493 2.956c-.429.229-1.179.466-2.253.717-1.079.251-2.294.38-3.66.38-1.718 0-3.204-.26-4.452-.778-1.251-.516-2.28-1.233-3.09-2.138-.807-.915-1.406-1.993-1.8-3.24-.392-1.253-.59-2.623-.59-4.113z" fill="#1b1918"/></g></svg>