<?xml version="1.0" encoding="utf-8"?><svg viewBox="0 0 841.89 595.276" xmlns="http://www.w3.org/2000/svg" xmlns:xlink="http://www.w3.org/1999/xlink"><style>:root>svg{display:none}:root>svg:target{display:block}</style><svg viewBox="0 0 156.23 254.64" id="arrow_left-small" xmlns="http://www.w3.org/2000/svg"><defs><style>.acls-1{fill:none;stroke:#161313;stroke-linecap:square;stroke-linejoin:bevel;stroke-width:45px}</style></defs><g id="aСлой_2" data-name="Слой 2"><path class="acls-1" d="M98.41 222.82l-82.5-82.5 108.5-108.5" id="aСлой_1-2" data-name="Слой 1"/></g></svg><svg viewBox="0 0 156.23 254.64" id="arrow_right-small" xmlns="http://www.w3.org/2000/svg"><defs><style>.bcls-1{fill:none;stroke:#161313;stroke-linecap:square;stroke-linejoin:bevel;stroke-width:45px}</style></defs><g id="bСлой_2" data-name="Слой 2"><path class="bcls-1" d="M57.82 31.82l82.5 82.5-108.5 108.5" id="bСлой_1-2" data-name="Слой 1"/></g></svg><svg viewBox="0 0 205 109.69" id="aside__item-1" xmlns="http://www.w3.org/2000/svg"><defs><style>.ccls-1{fill:#b22825}.ccls-2{fill:none;stroke:#b22825;stroke-linecap:round;stroke-linejoin:round;stroke-width:4px}</style></defs><g id="cСлой_2" data-name="Слой 2"><g id="cСлой_1-2" data-name="Слой 1"><path class="ccls-1" d="M174 4v49.74H31V4h143m.09-4H30.92A3.91 3.91 0 0027 3.91v49.93a3.91 3.91 0 003.91 3.9h143.2a3.91 3.91 0 003.91-3.9V3.91a3.91 3.91 0 00-3.9-3.91z"/><path class="ccls-2" d="M102.52 2.82v44.89"/><path class="ccls-1" d="M19.15 33.32a8 8 0 018 8v12.42H4.5V33.32h14.65m0-4H2.46a2 2 0 00-2 2v24.5a2 2 0 002 2h26.69a2 2 0 002-2V41.28a12 12 0 00-12-12zM200.5 33.32v20.42h-22.61V41.27a8 8 0 018-8h14.61m2.05-4h-16.71a12 12 0 00-12 12v14.52a2 2 0 002 2h26.71a2 2 0 001.95-2V31.27a2 2 0 00-1.95-1.95z"/><path class="ccls-1" d="M201 58.49v24.06a3 3 0 01-3 3H7a3 3 0 01-3-3V58.49h197m1.73-4H2.27A2.28 2.28 0 000 56.77v25.78a7 7 0 007 7h191a7 7 0 007-7V56.77a2.28 2.28 0 00-2.27-2.28z"/><path class="ccls-2" d="M29.17 107.69V89.33M175.95 107.69V89.33"/><path class="ccls-1" d="M56.11 23.5c2.58 0 2.58-4 0-4s-2.58 4 0 4zM77.66 23.5c2.57 0 2.58-4 0-4s-2.58 4 0 4zM77.66 41.31c2.57 0 2.58-4 0-4s-2.58 4 0 4zM56.11 41c2.58 0 2.58-4 0-4s-2.58 4 0 4zM125.5 23.5c2.57 0 2.58-4 0-4s-2.58 4 0 4zM147.05 23.5c2.57 0 2.58-4 0-4s-2.58 4 0 4zM147.05 41.31c2.57 0 2.58-4 0-4s-2.58 4 0 4zM125.5 41c2.57 0 2.58-4 0-4s-2.58 4 0 4z"/></g></g></svg><svg viewBox="0 0 169.09 169.09" id="aside__item-10" xmlns="http://www.w3.org/2000/svg"><defs><style>.dcls-1,.dcls-3{fill:#b22825}.dcls-2{fill:#fff}.dcls-3{font-size:75.01px;font-family:Ponder-BlackItalic,Ponder BlackItalic;font-weight:800;font-style:italic}</style></defs><g id="dСлой_2" data-name="Слой 2"><g id="dСлой_1-2" data-name="Слой 1"><path class="dcls-1" d="M117 8.7H52.08a19.62 19.62 0 00-17 9.81L2.63 74.73a19.61 19.61 0 000 19.63l32.46 56.22a19.62 19.62 0 0017 9.81H117a19.61 19.61 0 0017-9.81l32.46-56.22a19.61 19.61 0 000-19.63L134 18.51a19.61 19.61 0 00-17-9.81z"/><path class="dcls-1" d="M74.73 2.63L18.51 35.09a19.62 19.62 0 00-9.81 17V117a19.61 19.61 0 009.81 17l56.22 32.46a19.61 19.61 0 0019.63 0L150.58 134a19.61 19.61 0 009.81-17V52.08a19.62 19.62 0 00-9.81-17L94.36 2.63a19.61 19.61 0 00-19.63 0z"/><path class="dcls-2" d="M114.14 13.66H55a19.6 19.6 0 00-17 9.82L8.36 74.73a19.66 19.66 0 000 19.63L38 145.62a19.61 19.61 0 0017 9.81h59.19a19.61 19.61 0 0017-9.81l29.6-51.26a19.66 19.66 0 000-19.63l-29.6-51.25a19.6 19.6 0 00-17.05-9.82z"/><path class="dcls-2" d="M74.73 8.36L23.48 38a19.6 19.6 0 00-9.82 17v59.19a19.6 19.6 0 009.82 17l51.25 29.6a19.66 19.66 0 0019.63 0l51.26-29.6a19.61 19.61 0 009.81-17V55a19.61 19.61 0 00-9.81-17L94.36 8.36a19.66 19.66 0 00-19.63 0z"/><text class="dcls-3" transform="translate(49.8 112.76)">%</text></g></g></svg><svg version="1.1" id="aside__item-11" x="0" y="0" viewBox="0 0 190 146" xml:space="preserve" xmlns="http://www.w3.org/2000/svg"><style>.est0{fill-rule:evenodd;clip-rule:evenodd;fill:#c00220}</style><path id="epath8" class="est0" d="M59.4 33.4c-43.2 67.9-19 100.6-18 105.7.7 3.6.1 6.5-3.2 6.5-3.4 0-29.9.5-30.7.5-2.6 0-4.5-1-5.6-2.9-1.2-1.9-1.7-5.9-1.7-12 0-47.1 50.3-94.6 50.5-114.7 0-3.2-.4-5.9-2.9-7.8C46.6 7.8 46 6.5 46 5V3.9c0-2.3 1.9-4.2 4.2-4.2h32.3c2.3 0 4.1 1.9 4 4.2-.5 11.3 12.1 97.1 14.1 110.2 9.1-48.5 28.1-87 28.9-101.4.3-6-2.5-6.5-2.9-8.7-.3-2.3 1.4-4.3 3.8-4.3H160c2 0 3.5 1.7 3.4 3.7-.2 3.2-2 3-1.3 9 6.3 55.6 17.4 94.3 27.8 127.9.9 2.8-1.8 5.6-4.8 5.6H160c-4.1 0-7.5-3-8.1-7.1l-14.9-99s-15.4 23-25.6 102.8c-.2 1.8-2 3.2-3.8 3.2H81.9c-3.1 0-6.1-2.5-6.7-5.5-5.4-27.5-15.8-106.9-15.8-106.9z"/></svg><svg viewBox="0 0 210.5 105.5" id="aside__item-12" xmlns="http://www.w3.org/2000/svg"><defs><style>.fcls-1{fill:none;stroke:#b22825;stroke-linecap:round;stroke-linejoin:round;stroke-width:4px}</style></defs><g id="fСлой_2" data-name="Слой 2"><g id="fСлой_1-2" data-name="Слой 1"><path class="fcls-1" d="M52.5 89h-11V2h99v87h-43"/><circle class="fcls-1" cx="75" cy="88.5" r="15"/><circle class="fcls-1" cx="178" cy="88.5" r="15"/><path class="fcls-1" d="M156.5 89h-5V26h38l19 26v37h-8"/><path class="fcls-1" d="M178.5 33v23h22M32 12H17M32 28H2M32 44H22"/></g></g></svg><svg viewBox="0 0 175.67 182.8" id="aside__item-13" xmlns="http://www.w3.org/2000/svg"><defs><style>.gcls-1{fill:none;stroke:#212121;stroke-linecap:round;stroke-linejoin:round;stroke-width:14px}</style></defs><g id="gСлой_2" data-name="Слой 2"><g id="gСлой_1-2" data-name="Слой 1"><path class="gcls-1" d="M7 175.8a80.84 80.84 0 01161.67 0M7 175.8h161.67"/><circle class="gcls-1" cx="87.48" cy="43.32" r="36.32"/></g></g></svg><svg viewBox="0 0 250 222.42" id="aside__item-14" xmlns="http://www.w3.org/2000/svg"><g data-name="Слой 2"><path d="M125 222.42a14.65 14.65 0 01-9.66-3.63c-10.1-8.83-19.84-17.13-28.43-24.45C61.68 172.84 39.93 154.3 24.8 136 7.88 115.63 0 96.28 0 75.13c0-20.54 7-39.49 19.83-53.36A67.22 67.22 0 0169.84 0a62.86 62.86 0 0139.28 13.56A80.46 80.46 0 01125 30.14a80.46 80.46 0 0115.88-16.58A62.88 62.88 0 01180.16 0a67.22 67.22 0 0150 21.77C243 35.64 250 54.59 250 75.13c0 21.15-7.88 40.5-24.79 60.91-15.14 18.26-36.88 36.79-62.07 58.26-8.6 7.33-18.36 15.64-28.48 24.49a14.65 14.65 0 01-9.66 3.63zM69.84 14.64A52.76 52.76 0 0030.6 31.69c-10.29 11.16-16 26.59-16 43.44 0 17.78 6.61 33.69 21.43 51.57 14.36 17.3 35.67 35.43 60.33 56.46 8.62 7.35 18.4 15.68 28.57 24.58 10.23-8.91 20-17.26 28.66-24.62 24.67-21 46-39.17 60.29-56.45 14.82-17.88 21.43-33.79 21.43-51.57 0-16.85-5.67-32.28-16-43.44a52.74 52.74 0 00-39.24-17 48.6 48.6 0 00-30.32 10.5 71 71 0 00-16.9 19.56 9.24 9.24 0 01-15.88 0 71 71 0 00-16.9-19.56 48.6 48.6 0 00-30.23-10.52z" data-name="Слой 1"/></g></svg><svg viewBox="0 0 184.68 97.62" id="aside__item-2" xmlns="http://www.w3.org/2000/svg"><defs><style>.icls-1{fill:#b22825}</style></defs><g id="iСлой_2" data-name="Слой 2"><g id="iСлой_1-2" data-name="Слой 1"><rect class="icls-1" x=".45" width="4" height="55.38" rx="2"/><rect class="icls-1" x="43.21" y="26.59" width="97.68" height="4" rx="2"/><rect class="icls-1" y="51.56" width="49.23" height="4" rx="2"/><rect class="icls-1" x="58.49" y="29.31" width="3" height="67.69" rx="1.5"/><rect class="icls-1" x="123.72" y="29.31" width="3" height="67.69" rx="1.5"/><rect class="icls-1" x="7.57" y="53.92" width="3" height="43.08" rx="1.5"/><rect class="icls-1" x="39.57" y="53.92" width="3" height="43.08" rx="1.5"/><rect class="icls-1" x="180.22" width="4" height="55.38" rx="2"/><rect class="icls-1" x="135.45" y="52.01" width="49.23" height="4" rx="2"/><rect class="icls-1" x="174.11" y="54.54" width="3" height="43.08" rx="1.5"/><rect class="icls-1" x="143.34" y="54.54" width="3" height="43.08" rx="1.5"/></g></g></svg><svg viewBox="0 0 204 187.41" id="aside__item-3" xmlns="http://www.w3.org/2000/svg"><defs><style>.jcls-1,.jcls-2,.jcls-3{fill:none;stroke:#b22825;stroke-linejoin:round}.jcls-1,.jcls-2{stroke-width:4px}.jcls-2,.jcls-3{stroke-linecap:round}.jcls-3{stroke-width:3px}</style></defs><g id="jСлой_2" data-name="Слой 2"><g id="jСлой_1-2" data-name="Слой 1"><path class="jcls-1" d="M2 2h200v160.92H2z"/><path class="jcls-2" d="M52.57 73.26v22.99M91.66 73.26v22.99M151.43 73.26v22.99"/><path class="jcls-3" d="M183.61 162.92v22.99M24.99 162.92v22.99M70.97 2v160.92M133.03 2v160.92"/></g></g></svg><svg viewBox="0 0 200 158.92" id="aside__item-3_1" xmlns="http://www.w3.org/2000/svg"><defs><style>.kcls-1{fill:#b22825}.kcls-2{fill:none;stroke:#b22825;stroke-linecap:round;stroke-linejoin:round;stroke-width:3px}</style></defs><g id="kСлой_2" data-name="Слой 2"><g id="kСлой_1-2" data-name="Слой 1"><path class="kcls-1" d="M197 107.42v27.33H3v-27.33h194m3-3H0v33.33h200v-33.33z"/><path class="kcls-1" d="M175.43 72.08A38.2 38.2 0 01191 85.33a36.1 36.1 0 016 18.25H3.09a39.11 39.11 0 016-18.31 41.62 41.62 0 0113.5-13.19h152.84m.65-3H21.75A44.73 44.73 0 006.53 83.67 42.34 42.34 0 000 106.58h200a38.84 38.84 0 00-6.52-22.91 41.52 41.52 0 00-17.37-14.59z"/><path class="kcls-2" d="M11.98 157.42v-20.84M189.06 157.42v-20.84M24.48 1.5h150v68.75h-150z"/><path class="kcls-2" d="M46.14 32.75h42.09a5 5 0 015 5v32.5H41.14v-32.5a5 5 0 015-5zM114.89 32.75H157a5 5 0 015 5v32.5h-52.11v-32.5a5 5 0 015-5z"/></g></g></svg><svg viewBox="0 0 200 158.92" id="aside__item-4" xmlns="http://www.w3.org/2000/svg"><defs><style>.lcls-1{fill:#b22825}.lcls-2{fill:none;stroke:#b22825;stroke-linecap:round;stroke-linejoin:round;stroke-width:3px}</style></defs><g id="lСлой_2" data-name="Слой 2"><g id="lСлой_1-2" data-name="Слой 1"><path class="lcls-1" d="M197 107.42v27.33H3v-27.33h194m3-3H0v33.33h200v-33.33z"/><path class="lcls-1" d="M175.43 72.08A38.2 38.2 0 01191 85.33a36.1 36.1 0 016 18.25H3.09a39.11 39.11 0 016-18.31 41.62 41.62 0 0113.5-13.19h152.84m.65-3H21.75A44.73 44.73 0 006.53 83.67 42.34 42.34 0 000 106.58h200a38.84 38.84 0 00-6.52-22.91 41.52 41.52 0 00-17.37-14.59z"/><path class="lcls-2" d="M11.98 157.42v-20.84M189.06 157.42v-20.84M24.48 1.5h150v68.75h-150z"/><path class="lcls-2" d="M46.14 32.75h42.09a5 5 0 015 5v32.5H41.14v-32.5a5 5 0 015-5zM114.89 32.75H157a5 5 0 015 5v32.5h-52.11v-32.5a5 5 0 015-5z"/></g></g></svg><svg viewBox="0 0 203 116.25" id="aside__item-5" xmlns="http://www.w3.org/2000/svg"><defs><style>.mcls-1{fill:none;stroke:#b22825;stroke-linecap:round;stroke-linejoin:round;stroke-width:3px}.mcls-2{fill:#b22825}</style></defs><g id="mСлой_2" data-name="Слой 2"><g id="mСлой_1-2" data-name="Слой 1"><path class="mcls-1" d="M1.5 1.5h200v113.25H1.5zM88.25 1.5v113.25M200.3 32.83H89.45"/><path class="mcls-1" d="M113.55 56.92h62.65v33.73h-62.65zM20.78 44.87v24.1"/><path class="mcls-2" d="M118 19.75c2.58 0 2.58-4 0-4s-2.57 4 0 4zM135.64 19.75c2.58 0 2.58-4 0-4s-2.57 4 0 4zM153.74 19.75c2.57 0 2.57-4 0-4s-2.58 4 0 4zM170.92 19.75c2.58 0 2.58-4 0-4s-2.57 4 0 4z"/></g></g></svg><svg viewBox="0 0 164.86 138.28" id="aside__item-6" xmlns="http://www.w3.org/2000/svg"><defs><style>.ncls-1{fill:#b22825}</style></defs><g id="nСлой_2" data-name="Слой 2"><g id="nСлой_1-2" data-name="Слой 1"><path class="ncls-1" d="M2 138.15a1.87 1.87 0 01-1.87-1.87v-126a1.88 1.88 0 113.75 0v126A1.88 1.88 0 012 138.15z"/><path class="ncls-1" d="M2 8.53a1.75 1.75 0 011.75 1.75v126a1.75 1.75 0 01-3.5 0v-126A1.75 1.75 0 012 8.53m0-.25a2 2 0 00-2 2v126a2 2 0 004 0v-126a2 2 0 00-2-2z"/><rect class="ncls-1" x="16.61" y="26.28" width="3" height="80" rx="1.5"/><rect class="ncls-1" x="40.86" y="26.28" width="3" height="80" rx="1.5"/><rect class="ncls-1" x="67.12" y="26.28" width="3" height="80" rx="1.5"/><rect class="ncls-1" x="93.38" y="26.28" width="3" height="80" rx="1.5"/><rect class="ncls-1" x="118.64" y="26.28" width="3" height="80" rx="1.5"/><rect class="ncls-1" x="145.89" y="26.28" width="3" height="80" rx="1.5"/><rect class="ncls-1" x="160.86" y="8.28" width="4" height="130" rx="2"/><rect class="ncls-1" x="2.75" y="102.28" width="160" height="4" rx="2"/><rect class="ncls-1" x="2.75" y="25.78" width="160" height="3" rx="1.5"/><path class="ncls-1" d="M2 4c2.54 0 2.55-4 0-4S-.61 4 2 4zM162.86 4c2.57 0 2.58-4 0-4s-2.58 4 0 4z"/></g></g></svg><svg viewBox="0 0 200 109.41" id="aside__item-7" xmlns="http://www.w3.org/2000/svg"><defs><style>.ocls-1{fill:#b22825}.ocls-2{fill:none;stroke:#b22825;stroke-miterlimit:10;stroke-width:3px}</style></defs><g id="oСлой_2" data-name="Слой 2"><g id="oСлой_1-2" data-name="Слой 1"><path class="ocls-1" d="M163.33 4a6 6 0 016 6v45.67a7 7 0 01-7 7H98.15a6 6 0 01-6-6V10a6 6 0 016-6h65.18m0-4H98.15a10 10 0 00-10 10v46.67a10 10 0 0010 10h64.18a11 11 0 0011-11V10a10 10 0 00-10-10z"/><rect class="ocls-1" y="105.41" width="200" height="4" rx="2"/><path class="ocls-1" d="M140 29.54a1.2 1.2 0 01.9.41l17.54 18.44a1.71 1.71 0 01.31 1.84 1.3 1.3 0 01-1.18.88l-35.78.7a1.3 1.3 0 01-1.19-.86 1.69 1.69 0 01.3-1.86L139.09 30a1.2 1.2 0 01.89-.41m0-3a4.24 4.24 0 00-3.07 1.34L118.71 47c-2.74 2.88-.79 7.78 3.06 7.78h.09l35.74-.7c3.83-.07 5.7-4.94 3-7.79l-17.55-18.41a4.24 4.24 0 00-3.05-1.34z"/><path class="ocls-1" d="M117.69 35.53a.35.35 0 01.24.12l13.79 14.5a.68.68 0 01.11.76c-.12.29-.29.29-.35.29l-28.11.55c-.06 0-.22 0-.34-.29a.68.68 0 01.11-.76l14.31-15.05a.35.35 0 01.24-.12m0-3a3.31 3.31 0 00-2.41 1L101 48.63c-2.16 2.27-.62 6.12 2.4 6.12h.07l28.1-.55a3.61 3.61 0 002.35-6.12l-13.82-14.5a3.31 3.31 0 00-2.41-1z"/><path class="ocls-2" d="M32.59 78.52c-.23 8.36 12.08 19.94 15.45 23a2.92 2.92 0 002 .74h10.2a3 3 0 002.13-.91C65.52 98 76 86.4 75.56 78.52c-.75-13.84-14.44-16.64-14.08-28.89.2-6.63 3.68-12.85 6.52-16.85a2.93 2.93 0 00-2.38-4.63H42.5a2.93 2.93 0 00-2.39 4.63c2.87 4 6.35 10.18 6.56 16.85.38 12.45-13.67 15.42-14.08 28.89z"/></g></g></svg><svg viewBox="0 0 205.54 96.39" id="aside__item-8" xmlns="http://www.w3.org/2000/svg"><defs><style>.pcls-1{fill:#b22825}</style></defs><g id="pСлой_2" data-name="Слой 2"><g id="pСлой_1-2" data-name="Слой 1"><rect class="pcls-1" x="38.21" y="12.23" width="128.88" height="4" rx="2"/><rect class="pcls-1" x="101.47" y="12.62" width="3" height="83.78" rx="1.5"/><rect class="pcls-1" x="165.31" y="25.37" width="58" height="4" rx="2" transform="rotate(-70 194.308 27.372)"/><rect class="pcls-1" x="122" y="50.89" width="64.44" height="4" rx="2"/><rect class="pcls-1" x="152.4" y="44.94" width="3" height="58" rx="1.5" transform="rotate(-45 153.898 73.943)"/><rect class="pcls-1" x="124.26" y="72.44" width="58" height="3" rx="1.5" transform="rotate(-45 153.248 73.943)"/><rect class="pcls-1" x="9.23" y="-1.63" width="4" height="58" rx="2" transform="rotate(-20 11.228 27.358)"/><rect class="pcls-1" x="19.1" y="50.89" width="64.44" height="4" rx="2"/><rect class="pcls-1" x="22.65" y="72.44" width="58" height="3" rx="1.5" transform="rotate(-45 51.65 73.946)"/><rect class="pcls-1" x="50.79" y="44.94" width="3" height="58" rx="1.5" transform="rotate(-45 52.288 73.942)"/></g></g></svg><svg viewBox="0 0 132.2 154.3" id="aside__item-9" xmlns="http://www.w3.org/2000/svg"><defs><style>.qcls-1,.qcls-2,.qcls-3,.qcls-4{fill:none;stroke:#b22825}.qcls-1{stroke-linecap:round}.qcls-1,.qcls-4{stroke-linejoin:round}.qcls-1,.qcls-2,.qcls-4{stroke-width:3px}.qcls-2,.qcls-3{stroke-miterlimit:10}.qcls-3{stroke-width:4px}</style></defs><g id="qСлой_2" data-name="Слой 2"><g id="qСлой_1-2" data-name="Слой 1"><path class="qcls-1" d="M1.5 1.5h129.2v151.3H1.5z"/><path class="qcls-2" d="M1.5 35.5h129.2"/><circle class="qcls-3" cx="66.1" cy="93.72" r="35"/><circle class="qcls-3" cx="66.02" cy="93.72" r="24"/><path class="qcls-4" d="M92.25 9.72h31v18h-31z"/><circle class="qcls-2" cx="22.75" cy="18.22" r="4.5"/><circle class="qcls-2" cx="38.75" cy="18.22" r="1.5"/><circle class="qcls-2" cx="50.75" cy="18.22" r="1.5"/></g></g></svg><svg version="1.1" id="footer_social-1" x="0" y="0" viewBox="0 0 512 512" xml:space="preserve" xmlns="http://www.w3.org/2000/svg"><style>.rst0{fill:#1d81ce}.rst1{fill:#126db1}.rst2{fill:#fcfcfc}</style><circle class="rst0" cx="256" cy="256" r="256"/><path class="rst1" d="M256 0c-11.3 0-22.5.7-33.4 2.2C348.2 18.5 445.2 125.9 445.2 256s-97 237.5-222.6 253.8c10.9 1.4 22.1 2.2 33.4 2.2 141.4 0 256-114.6 256-256S397.4 0 256 0z"/><path class="rst2" d="M167 256.1v9.5c0 .9-.7 1.6-1.6 1.6H95.7c-3.7 0-6.6 3-6.6 6.6v64.7c0 3.7 3 6.6 6.6 6.6h69.7c.9 0 1.6.7 1.6 1.6v148.4c0 .7.4 1.3 1.1 1.5 23.6 8.7 48.9 13.9 75.2 15.2.9 0 1.7-.7 1.7-1.6V346.8c0-.9.7-1.6 1.6-1.6h114.2c3.7 0 6.6-3 6.6-6.6v-64.7c0-3.7-3-6.6-6.6-6.6H246.5c-.9 0-1.6-.7-1.6-1.6v-9.5c0-43.1 34.9-66.8 77.9-66.8h37.9c3.7 0 6.6-3 6.6-6.6v-64.7c0-3.7-3-6.6-6.6-6.6h-37.9c-79.9-.2-155.8 64.6-155.8 144.6z"/></svg><svg version="1.1" id="footer_social-2" x="0" y="0" viewBox="0 0 112.2 112.2" xml:space="preserve" xmlns="http://www.w3.org/2000/svg"><style>.sst0{fill:#4d76a1}.sst1{fill-rule:evenodd;clip-rule:evenodd;fill:#fff}.sst2{opacity:.5;fill:#356a9b;enable-background:new}</style><circle id="sXMLID_11_" class="sst0" cx="56.1" cy="56.1" r="56.1"/><path class="sst1" d="M54 80.7h4.4s1.3-.1 2-.9c.6-.7.6-1.9.6-1.9s-.1-5.9 2.7-6.8c2.7-.9 6.2 5.7 9.9 8.2 2.8 1.9 4.9 1.5 4.9 1.5l9.8-.1s5.1-.3 2.7-4.4c-.2-.3-1.4-3-7.3-8.5-6.2-5.7-5.3-4.8 2.1-14.7 4.5-6 6.3-9.7 5.8-11.3-.5-1.5-3.9-1.1-3.9-1.1l-11.1.1s-.8-.1-1.4.3c-.6.4-1 1.2-1 1.2S72.4 47 70 50.9c-4.9 8.4-6.9 8.8-7.7 8.3-1.9-1.2-1.4-4.9-1.4-7.5 0-8.1 1.2-11.5-2.4-12.4-1.2-.3-2.1-.5-5.2-.5-4 0-7.3 0-9.2.9-1.3.6-2.2 2-1.6 2.1.7.1 2.4.4 3.3 1.6 1.1 1.5 1.1 5 1.1 5s.7 9.6-1.5 10.7c-1.5.8-3.5-.8-7.9-8.4-2.3-3.9-4-8.2-4-8.2s-.3-.8-.9-1.2c-.7-.5-1.7-.7-1.7-.7l-10.5.1s-1.6 0-2.2.7c-.5.6 0 1.9 0 1.9s8.2 19.3 17.6 29c8.5 9 18.2 8.4 18.2 8.4z"/><path class="sst2" d="M56.2.1c-2.5 0-4.9.2-7.3.5 27.5 3.6 48.7 27.1 48.7 55.5S76.4 108 48.9 111.6c2.4.3 4.8.5 7.3.5 30.9 0 56-25.1 56-56S87.1.1 56.2.1z"/></svg><svg version="1.1" id="footer_social-3" x="0" y="0" viewBox="0 0 512 512" xml:space="preserve" xmlns="http://www.w3.org/2000/svg"><style>.tst0{fill:#ef72ad}.tst1{fill:#ee539e}.tst2{fill:#fff}</style><circle class="tst0" cx="256" cy="256" r="256"/><path class="tst1" d="M256 0c-11.3 0-22.5.7-33.4 2.2C348.2 18.5 445.2 125.9 445.2 256s-97 237.5-222.6 253.8c10.9 1.4 22.1 2.2 33.4 2.2 141.4 0 256-114.6 256-256S397.4 0 256 0z"/><path class="tst2" d="M350.8 91.8H161.2c-38.2 0-69.3 31.1-69.3 69.3v189.7c0 38.2 31.1 69.3 69.3 69.3h189.7c38.2 0 69.3-31.1 69.3-69.3V161.2c0-38.3-31.1-69.4-69.4-69.4zm52.7 259c0 29-23.6 52.6-52.6 52.6H161.2c-29 0-52.6-23.6-52.6-52.6V161.2c0-29 23.6-52.6 52.6-52.6h189.7c29 0 52.6 23.6 52.6 52.6v189.6z"/><path class="tst2" d="M256 169.7c-47.6 0-86.3 38.7-86.3 86.3s38.7 86.3 86.3 86.3 86.3-38.7 86.3-86.3-38.7-86.3-86.3-86.3zm0 155.9c-38.4 0-69.6-31.2-69.6-69.6s31.2-69.6 69.6-69.6 69.6 31.2 69.6 69.6-31.2 69.6-69.6 69.6z"/><circle class="tst2" cx="345" cy="155.8" r="22.3"/></svg><svg viewBox="0 0 841.89 595.276" id="logo" xmlns="http://www.w3.org/2000/svg"><g fill-rule="evenodd"><path d="M621.066 254.646c-2.327 3.368-3.922 6.741-4.795 10.11-.873 3.371-1.307 7.46-1.307 12.273 0 8.474 2.18 15.694 6.536 21.662 3.774 5.2 7.644 7.801 11.616 7.801 1.939 0 3.532-.626 4.794-1.878 2.034-1.924 3.048-5.004 3.048-9.246l.001-5.342c0-5.68-1.889-12.178-5.664-19.495-4.163-7.994-8.907-13.285-14.23-15.885zm-4.068 48.213l.58 4.94c.193 1.257.456 4.067.8 8.422.34 4.355.507 7.074.507 12.59 0 7.262-.791 12.32-2.368 15.182-1.58 2.851-3.805 4.281-6.676 4.281-1.913 0-3.016-.484-3.3-1.453l.001-.868c0-.68-.07-1.819 0-3.413.165-3.949-.042-12.366-.147-18.463-.036-2.033-.288-4.401-.58-7.106-.97-10.05-1.65-17.23-2.034-21.529-.387-4.306-.58-8.533-.58-12.691 0-11.502 3.679-21.698 11.037-30.591 6.197-7.445 11.615-11.17 16.263-11.17 5.038 0 10.457 4.439 16.266 13.314 6.488 9.838 9.733 20.445 9.733 31.824 0 8.582-1.914 15.602-5.74 21.05-3.825 5.447-8.687 8.17-14.591 8.17-3.683 0-7.313-1.22-10.896-3.66-3.582-2.435-6.342-5.384-8.275-8.83zM77.045 234.186c-30.435 47.862-13.407 70.948-12.668 74.535.526 2.546.105 4.57-2.261 4.57-2.37 0-21.073.371-21.648.371-1.832 0-3.158-.681-3.972-2.037-.821-1.358-1.23-4.178-1.23-8.45 0-33.234 35.446-66.717 35.642-80.912.033-2.235-.279-4.182-2.01-5.498a3.304 3.304 0 01-1.299-2.623l.002-.758c0-1.645 1.329-2.98 2.974-2.98h22.767a2.827 2.827 0 012.829 2.93c-.302 8.025 8.559 68.48 9.943 77.757 6.445-34.17 19.793-61.37 20.379-71.515.242-4.218-1.779-4.574-2.012-6.165-.241-1.645 1.01-3.006 2.674-3.006h20.877a2.393 2.393 0 012.38 2.576c-.16 2.276-1.38 2.148-.905 6.362 4.428 39.188 12.252 66.507 19.623 90.165.627 2.006-1.303 3.94-3.4 3.94h-17.718a5.733 5.733 0 01-5.685-4.996l-10.52-69.792s-10.84 16.206-18.074 72.498c-.16 1.26-1.416 2.29-2.687 2.29H92.94c-2.19 0-4.304-1.756-4.725-3.904-3.775-19.368-11.17-75.358-11.17-75.358zM268.768 308.032h23.381c.197-.676.292-1.527.292-2.541v-2.107c0-6.969-1.938-12.248-5.809-15.83-3.875-3.579-9.73-5.37-17.571-5.37-.197 1.16-.293 2.203-.293 3.122v22.726zm10.855-57.655h-9.24c-.293 2.034-.637 5.617-1.03 10.75-.388 5.13-.585 9.97-.585 14.523 6.143 0 11.992.652 17.544 1.956 5.559 1.307 10.332 3.514 14.327 6.608 4 3.102 7.019 7.023 9.067 11.767 1.755 4.063 2.632 7.892 2.632 11.471 0 3.002-1.16 4.742-3.487 5.227-.969.197-2.564.293-4.79.293h-48.509c-1.938 0-3.144-.676-3.628-2.034-.485-1.356-.727-4.213-.727-8.568 0-5.031.118-11.668.36-19.898.244-8.225.463-15.345.654-21.345.001-5.814.096-9.882.293-12.203.192-2.322 1.69-3.486 4.502-3.486h31.947c2.519 0 5.256-.056 8.208-.179 2.954-.12 6.124-.302 9.51-.544 4.552 0 6.828 1.097 6.828 3.3 0 .863-.316 1.988-.942 3.373-.63 1.388-1.43 2.943-2.399 4.666-1.356 2.394-3.34 6.84-5.955 13.348h-6.968c.58-2.212.872-4.273.872-6.196v-4.616c-.493-3.648-2.107-5.931-4.844-6.84-2.737-.915-7.284-1.373-13.64-1.373zM423.073 256.766c-.58 2.038-1.211 3.885-1.889 5.534-.967 2.135-1.74 3.835-2.321 5.096-3.101 6.896-5.227 12.352-6.393 16.378-1.16 4.032-1.741 7.742-1.741 11.142 0 2.327.146 4.15.434 5.462.294 1.31.969 3.13 2.034 5.46a29.754 29.754 0 002.18 3.638c.58.777.872 1.458.872 2.038 0 1.165-.923 1.745-2.76 1.745h-14.522c-2.034 0-3.32-.264-3.85-.799-.534-.53-.798-1.91-.798-4.136 0-5.616 1.69-11.858 5.082-18.736 1.645-3.387 5.227-9.341 10.748-17.865a737.493 737.493 0 005.808-9.148c2.519-4.26 3.775-7.5 3.775-9.73 0-1.16-.289-2.614-.87-4.355-.195-.777-.195-1.356 0-1.745.386-.87 1.355-1.307 2.903-1.307h16.343c1.726 0 1.229 2.139 1.229 3.788 0 2.81.922 7.86 2.76 15.135a298.564 298.564 0 003.487 12.518c3.002 9.409 5.712 17.17 8.135 23.284 1.448 3.688 2.901 7.325 4.355 10.918 0 1.453-.823 2.178-2.468 2.178h-13.362c-2.23 0-3.825-.972-4.794-2.92-1.449-2.915-3.922-10.995-7.404-24.229l-1.887-7.298a181.6 181.6 0 01-2.18-8.176c-.196-.777-.489-2.093-.873-3.944l-1.013-5.11-1.02-4.816zM489.016 308.324h19.172v-4.73c0-4.624-.97-8.564-2.907-11.813-3.29-5.41-8.76-8.614-16.411-9.596-.095.877-.169 1.81-.214 2.788a49.36 49.36 0 00-.074 2.495l.001 2.498c0 3.524.073 7.395.214 11.603.146 4.21.219 6.463.219 6.755zm24.546 4.935h-37.469c-1.746 0-3.03-.46-3.853-1.388-.822-.924-1.234-2.363-1.234-4.31l.001-19.44c0-19.486.315-31.523.946-36.098.625-4.584 2.298-6.874 5.008-6.874H489.598c1.256.192 1.886.969 1.886 2.323 0 .68-.196 1.649-.58 2.905-.968 3.099-1.454 6.874-1.454 11.33a143.466 143.466 0 00-.434 10.89v3.053c5.808 0 11.205.676 16.191 2.028 4.988 1.358 9.465 3.583 13.436 6.682 4.355 3.486 7.5 7.604 9.437 12.343a28.263 28.263 0 012.034 10.603c0 2.81-.969 4.601-2.903 5.373-.968.389-2.759.58-5.373.58h-8.277zM571.409 250.377h-8.716c-1.16 7.55-1.741 15.346-1.741 23.38 0 7.459.266 13.848.795 19.17.53 5.325 1.092 10.604 1.673 15.832 0 1.645-.197 2.663-.58 3.052-.68.772-2.423 1.16-5.229 1.16h-8.714c-2.517 0-4.068-1.968-4.648-5.908-.58-3.935-.873-14.898-.873-32.89 0-12.932.365-21.026 1.092-24.284.728-3.254 2.198-4.885 4.429-4.885 0 0 46.63.078 47.746.365 1.116.293 1.774 1.233 1.774 2.683 0 1.356-.823 3.486-2.468 6.393l-2.76 5.662c-.869 1.745-1.449 3.03-1.742 3.847-.293.828-.53 1.624-.726 2.396l-1.453 4.359-6.097-.58c.193-1.55.383-3.121.58-4.721.192-1.6.288-2.491.288-2.687 0-4.935-1.065-8.226-3.195-9.876-2.128-1.645-5.277-2.468-9.436-2.468zM697.05 259.668c-5.712 6.197-9.78 12.051-12.198 17.571-1.553 3.483-2.327 6.485-2.327 9.003.001 2.423.7 4.671 2.108 6.755 1.403 2.084 3.555 3.121 6.462 3.121 3.774 0 6.873-1.402 9.296-4.208 2.033-2.327 3.048-4.845 3.048-7.555 0-1.741-.778-5.274-2.323-10.602l-1.886-6.389c-.489-2.417-1.211-4.986-2.18-7.696zm-1.161-14.377H710.7c.969 0 1.548.288 1.745.868 0 .682.022 1.403.072 2.18.047.778.362 2.322.942 4.649l2.18 8.275 1.16 4.355c3.1 12.59 6.052 23.047 8.862 31.374l5.223 14.522c0 .58-.339.942-1.015 1.089a9.05 9.05 0 01-1.887.218h-14.81c-.68 0-1.217-.777-1.6-2.326l-1.887-7.55-1.746-5.52-1.887-6.535c-2.13 7.07-4.79 12.49-7.985 16.264-4.067 4.845-9.058 7.262-14.961 7.262-5.42 0-9.538-2.27-12.344-6.823-2.128-3.487-3.195-7.504-3.195-12.055.001-4.84 2.322-10.552 6.97-17.137 1.842-2.71 5.566-7.212 11.182-13.505.677-.777 2.76-3.053 6.248-6.828 1.646-1.74 2.467-3.097 2.467-4.066.001-.58-.095-1.307-.292-2.175a38.9 38.9 0 00-.722-2.76 10.048 10.048 0 01-.439-2.908c.001-.484.412-.748 1.234-.795.823-.05 1.38-.072 1.673-.072zM758.763 307.223h26.797c-5.456-12.576-14.857-47.555-14.857-47.555-11.905 20.834-11.941 44.2-11.94 47.555zm18.52 5.598h-11.035c-4.556 0-8.528.48-10.822 2.774-6.33 6.33-3.657 20.876-2.496 23.508l-7.407 1.02c-3.482-8.328-16.653-32.676-5.252-32.676 1.253 0 5.736.992 6.174-1.64 5.544-33.549 19.766-45.454 19.766-52.226 0-1.81-.79-3.921-1.317-5.055-.649-1.412-.15-3.02 2.367-3.02 3.739 0 16.096-.215 17.778-.215 1.678 0 2.577 1.024 2.577 3.692 0 10.891 12.659 51.202 14.788 54.977 1.455 2.614 3.1 3.633 5.088 3.633 3.02 0 6.429 3.177 4.427 7.042-.768 1.48-11.484 20.355-13.613 25.487l-7.409-1.02c.97-2.339 5.064-17.319-1.05-23.433-2.427-2.428-7.047-2.848-12.563-2.848zM372.588 262.94c3.739 2.582 8.947-1.923 11.585-3.747.974-.671.703-2.015-.045-2.993-8.24-10.762-19.994-12.865-29.284-12.865-9.875 0-17.819 4.31-23.82 12.929-4.843 6.969-7.261 14.376-7.261 22.219v4.935c0 12.686 4.45 22.027 13.362 28.033 6.289 4.258 13.842 6.388 22.654 6.388 5.52 0 10.478-1.042 14.884-3.121 4.406-2.084 7.846-4.447 10.945-7.737l-1.86-3.926c-3.875 2.806-7.874 5.32-10.826 6.435-2.952 1.11-5.787 1.668-8.497 1.668-6.387 0-11.351-2.518-14.884-7.55-2.334-3.326-5.245-9.263-6.01-15.51.002 0-.305-5.913 8.953-5.913 5.335 0 12.28 1.8 15.772 2.86 1.02.306 1.996-.585 1.777-1.627l-2.083-9.743c-.206-.846-10.073-2.467-16.384-.128-5.922 2.198-8.664 5.982-9.638 6.613-3.737-16.256 2.249-27.1 8.724-28.895 7.81-2.168 15.25 7.056 21.936 11.675zM226.397 262.94c3.733 2.582 8.947-1.923 11.58-3.747.972-.671.703-2.015-.042-2.993-8.243-10.762-19.994-12.865-29.288-12.865-9.875 0-17.815 4.31-23.82 12.929-4.838 6.969-7.261 14.376-7.261 22.219v4.935c0 12.686 4.456 22.027 13.362 28.033 6.294 4.258 13.848 6.388 22.658 6.388 5.517 0 10.479-1.042 14.884-3.121 4.406-2.084 7.847-4.447 10.945-7.737l-1.864-3.926c-3.87 2.806-7.87 5.32-10.822 6.435-2.956 1.11-5.79 1.668-8.495 1.668-6.393 0-11.357-2.518-14.89-7.55-2.334-3.326-5.246-9.263-6.009-15.51 0 0-.306-5.913 8.953-5.913 5.338 0 12.284 1.8 15.771 2.86 1.025.306 2.002-.585 1.778-1.627l-2.08-9.743c-.21-.846-10.076-2.467-16.383-.128-5.922 2.198-8.665 5.982-9.643 6.613-3.737-16.256 2.25-27.1 8.729-28.895 7.806-2.168 15.246 7.056 21.936 11.675z" fill="#c00220"/><path d="M42.164 340.683v9.246c.278.027.607.05.987.077.329.028.712.047 1.155.06.445.009.955.018 1.535.018 1.085 0 2.117-.069 3.09-.21.969-.137 1.824-.383 2.554-.74a4.456 4.456 0 001.765-1.476c.443-.631.663-1.426.663-2.39 0-.855-.164-1.582-.493-2.175-.33-.595-.801-1.07-1.423-1.421-.616-.358-1.356-.61-2.216-.76a16.636 16.636 0 00-2.879-.227l-4.738-.001zm0-2.956h3.866c.909 0 1.767-.063 2.577-.186.808-.129 1.508-.358 2.103-.682a3.86 3.86 0 001.401-1.293c.345-.525.513-1.198.513-2.006 0-.76-.173-1.4-.53-1.915-.352-.517-.842-.932-1.458-1.252-.62-.311-1.349-.548-2.18-.7a14.956 14.956 0 00-2.655-.228c-.933 0-1.663.014-2.194.042-.534.021-1.015.06-1.443.108v8.112zm3.45 15.423a45.894 45.894 0 01-3.584-.15c-.616-.05-1.23-.114-1.837-.188a15.372 15.372 0 01-1.668-.3l.001-25.47c.507-.128 1.06-.227 1.667-.305a47.412 47.412 0 013.68-.302 37.78 37.78 0 011.704-.036c1.513 0 2.934.114 4.263.338 1.327.228 2.473.613 3.446 1.155.974.545 1.737 1.258 2.294 2.144.559.883.837 1.97.837 3.258 0 1.44-.343 2.624-1.023 3.542-.685.924-1.596 1.614-2.73 2.066 1.54.457 2.766 1.174 3.675 2.16.911.984 1.362 2.378 1.362 4.17.001 2.627-.964 4.606-2.898 5.931-1.933 1.325-4.994 1.987-9.19 1.987zM86.276 352.928h-3.522v-19.712h3.522v19.712zm-15.423-9.745c-.68 0-1.343.02-1.988.06a9.179 9.179 0 00-1.727.247l.001 6.782c.15.027.373.05.661.078.294.023.609.045.95.054.34.014.686.027 1.044.038.35.013.667.022.945.022 1.54 0 2.728-.293 3.564-.873.833-.58 1.249-1.517 1.249-2.806 0-.631-.134-1.174-.398-1.627a3.321 3.321 0 00-1.06-1.12 4.726 4.726 0 00-1.5-.643 7.194 7.194 0 00-1.74-.212zm-7.238-9.967h3.524v7.545c.43-.105 1.055-.205 1.877-.306.82-.1 1.61-.15 2.367-.15 1.039 0 2.02.12 2.958.362a7.038 7.038 0 012.462 1.137 5.54 5.54 0 011.687 2.007c.416.82.625 1.8.625 2.938.002 1.187-.206 2.198-.607 3.03a5.346 5.346 0 01-1.705 2.046c-.736.531-1.618.915-2.654 1.157-1.034.242-2.171.361-3.41.361-1.188 0-2.386-.068-3.601-.21a29.101 29.101 0 01-3.524-.621v-19.295zM106.44 350.272c.151.027.365.05.644.078.274.023.589.045.945.054.354.014.727.027 1.12.038.39.013.764.022 1.116.022.736 0 1.434-.05 2.106-.156.669-.1 1.248-.274 1.741-.53a3.13 3.13 0 001.175-1.005c.293-.416.434-.95.434-1.609 0-.63-.133-1.155-.397-1.572a2.933 2.933 0 00-1.08-1.006c-.452-.25-.99-.428-1.612-.53a12.31 12.31 0 00-1.989-.15h-4.203v6.366zm3.753-8.98c.68 0 1.305-.045 1.873-.132.566-.092 1.06-.247 1.48-.475a2.63 2.63 0 00.982-.91c.242-.38.362-.86.362-1.44 0-.608-.152-1.087-.458-1.44-.302-.356-.7-.625-1.193-.817a6.764 6.764 0 00-1.667-.38 19.525 19.525 0 00-1.874-.091c-.58 0-1.17.014-1.765.036-.593.028-1.092.05-1.493.074v5.575h3.752zm-.08 11.972a38.44 38.44 0 01-4.13-.204c-1.261-.143-2.262-.297-2.994-.476v-19.176c.731-.177 1.731-.333 2.993-.474a38.443 38.443 0 014.131-.206c1.038 0 2.048.087 3.03.264.987.174 1.86.472 2.618.888.76.42 1.367.987 1.838 1.709.467.717.699 1.608.699 2.668 0 .96-.237 1.783-.717 2.464a4.819 4.819 0 01-1.934 1.595c1.084.38 1.952.941 2.596 1.686.645.745.964 1.787.964 3.126.001 1.188-.233 2.171-.698 2.956a5.338 5.338 0 01-1.934 1.893c-.822.48-1.787.813-2.897 1.005a21.317 21.317 0 01-3.565.282zM133.27 353.38c-1.59 0-2.99-.252-4.187-.76-1.202-.502-2.212-1.21-3.033-2.12-.818-.91-1.436-1.992-1.839-3.24-.401-1.252-.607-2.636-.607-4.15 0-1.516.224-2.906.667-4.172.44-1.261 1.065-2.353 1.874-3.276a8.501 8.501 0 012.975-2.162c1.175-.517 2.482-.772 3.921-.772a15.7 15.7 0 012.656.224c.882.15 1.726.393 2.536.722l-.795 2.994a8.677 8.677 0 00-1.837-.608 10.396 10.396 0 00-2.218-.224c-1.968 0-3.482.616-4.528 1.855-1.05 1.238-1.572 3.043-1.572 5.42 0 1.06.12 2.034.356 2.916.242.886.622 1.645 1.139 2.275a5.07 5.07 0 001.992 1.458c.81.342 1.792.512 2.956.512.933 0 1.778-.087 2.537-.266.759-.177 1.352-.365 1.782-.566l.495 2.953c-.206.128-.495.246-.874.361-.38.114-.809.214-1.29.306-.477.087-.99.164-1.534.224a13.53 13.53 0 01-1.572.096zM155.703 341.177c.029-1.595-.37-2.897-1.192-3.92-.822-1.023-1.952-1.54-3.391-1.54-.809 0-1.522.159-2.144.475a5.126 5.126 0 00-1.571 1.233 5.707 5.707 0 00-1.006 1.741 8.632 8.632 0 00-.471 2.012h9.775zm-13.525 1.934c0-1.746.25-3.267.757-4.57.503-1.298 1.174-2.376 2.006-3.24a8.23 8.23 0 012.88-1.929 9.02 9.02 0 013.335-.644c2.656 0 4.69.827 6.102 2.48 1.417 1.655 2.124 4.173 2.124 7.56v.59a4.63 4.63 0 01-.041.662h-13.49c.15 2.043.744 3.602 1.782 4.661 1.033 1.061 2.65 1.591 4.848 1.591 1.239 0 2.282-.105 3.126-.325.851-.21 1.486-.42 1.915-.62l.493 2.956c-.428.229-1.178.466-2.252.717-1.074.251-2.295.38-3.661.38-1.717 0-3.199-.26-4.451-.778-1.252-.516-2.28-1.233-3.088-2.138-.809-.915-1.409-1.993-1.802-3.24-.393-1.253-.585-2.623-.583-4.113zM177.607 336.174h-8.678v16.754h-3.523v-19.712h12.201v2.958zM193.374 350.044v-13.87H187.2a59.922 59.922 0 01-.192 3.583 33.137 33.137 0 01-.493 3.56 21.654 21.654 0 01-.966 3.45 20.034 20.034 0 01-1.57 3.277h9.395zm-15.273 0h2.124a17.938 17.938 0 001.989-3.753 22.647 22.647 0 001.119-3.999c.253-1.374.416-2.815.494-4.317.073-1.504.123-3.09.151-4.759h12.924v16.828h2.65v8.376h-3.336v-5.492h-14.778v5.492H178.1v-8.376zM210.995 350.386c.837 0 1.572-.018 2.22-.06.642-.036 1.18-.104 1.61-.206v-5.876c-.252-.124-.663-.229-1.234-.32a13.914 13.914 0 00-2.066-.132c-.53 0-1.092.037-1.687.114a5.227 5.227 0 00-1.627.476 3.475 3.475 0 00-1.233.982c-.328.416-.49.969-.49 1.65.001 1.266.403 2.139 1.211 2.632.81.493 1.906.74 3.296.74zm-.302-17.658c1.418 0 2.61.183 3.584.548.969.365 1.754.882 2.348 1.555.595.666 1.015 1.46 1.271 2.385.251.923.38 1.941.38 3.053v12.315c-.306.05-.727.12-1.271.206-.544.091-1.157.174-1.837.246-.686.078-1.421.147-2.222.212a29.78 29.78 0 01-2.367.095 12.98 12.98 0 01-3.071-.343c-.931-.23-1.741-.585-2.422-1.079a4.936 4.936 0 01-1.595-1.95c-.378-.81-.566-1.783-.566-2.92 0-1.089.219-2.02.662-2.807a5.309 5.309 0 011.8-1.892c.76-.48 1.642-.832 2.656-1.06a14.33 14.33 0 013.18-.343c.358 0 .723.018 1.101.056.381.04.736.09 1.08.155.343.064.634.118.89.168.253.051.43.087.53.114l.001-.987a8.03 8.03 0 00-.189-1.723 3.94 3.94 0 00-.685-1.516c-.329-.443-.776-.796-1.343-1.06-.57-.266-1.307-.398-2.217-.398-1.164 0-2.18.082-3.052.246-.873.165-1.522.335-1.952.512l-.414-2.92c.452-.2 1.21-.398 2.27-.585a19.473 19.473 0 013.45-.283zM250.599 352.928h-3.524v-16.754h-8.793v16.754h-3.522v-19.712h15.839v19.712zM271.328 343.07c0-2.222-.499-3.985-1.495-5.283-1-1.303-2.358-1.951-4.077-1.951-1.717 0-3.075.649-4.071 1.95-1 1.299-1.499 3.063-1.499 5.284 0 2.225.497 3.99 1.499 5.287.996 1.302 2.354 1.951 4.071 1.951 1.72 0 3.076-.649 4.077-1.95.997-1.299 1.495-3.063 1.495-5.289zm3.679 0c0 1.567-.23 2.984-.687 4.245-.452 1.265-1.092 2.353-1.914 3.259a8.331 8.331 0 01-2.934 2.106c-1.136.49-2.376.736-3.716.736-1.338 0-2.576-.246-3.715-.736a8.402 8.402 0 01-2.934-2.106c-.821-.906-1.463-1.993-1.915-3.26-.456-1.26-.68-2.677-.68-4.245 0-1.54.223-2.947.68-4.223.454-1.274 1.092-2.366 1.915-3.28a8.412 8.412 0 012.934-2.102c1.139-.49 2.377-.736 3.715-.736 1.34 0 2.578.246 3.716.736a8.353 8.353 0 012.934 2.102c.824.914 1.462 2.006 1.914 3.28.459 1.276.686 2.683.687 4.224zM287.776 336.174c0 .836-.02 1.727-.056 2.672-.036.947-.11 1.897-.211 2.844-.1.945-.237 1.882-.416 2.8a19.548 19.548 0 01-.68 2.597 12.428 12.428 0 01-1.043 2.276 7.782 7.782 0 01-1.535 1.878 8.278 8.278 0 01-2.124 1.361c-.81.366-1.756.599-2.844.704l-.487-2.956c1.234-.252 2.215-.723 2.933-1.403.722-.682 1.298-1.517 1.727-2.504.38-.855.654-1.828.831-2.916.18-1.088.302-2.217.38-3.392.078-1.173.12-2.357.132-3.545.014-1.184.02-2.313.02-3.374h13.114v19.712h-3.527v-16.754h-6.214zM302.216 356.601c.274.124.635.247 1.078.362.444.114.878.168 1.307.168 1.39 0 2.477-.31 3.259-.927.786-.622 1.494-1.627 2.124-3.016a107.66 107.66 0 01-4.456-9.643 83.997 83.997 0 01-3.426-10.328h3.788c.28 1.138.612 2.362 1.005 3.679.394 1.312.828 2.664 1.307 4.053.48 1.39.996 2.779 1.554 4.169a74.821 74.821 0 001.745 4.015c.956-2.65 1.792-5.277 2.5-7.882a201.6 201.6 0 002.007-8.034h3.638c-.91 3.715-1.92 7.285-3.03 10.708a108.623 108.623 0 01-3.601 9.605c-.507 1.137-1.03 2.117-1.573 2.94-.543.822-1.143 1.498-1.8 2.023a6.553 6.553 0 01-2.217 1.18c-.821.251-1.75.378-2.787.378-.278 0-.567-.018-.869-.058a9.615 9.615 0 01-.891-.152 9.609 9.609 0 01-.795-.206 4.054 4.054 0 01-.512-.191l.645-2.843zM326.546 333.216v5.8c0 1.49.379 2.536 1.134 3.126.758.593 1.795.891 3.112.891.954 0 1.759-.05 2.404-.151.645-.1 1.22-.214 1.723-.342v-9.323h3.528v19.71h-3.528v-7.66c-.201.051-.467.115-.796.193-.329.072-.7.146-1.115.206-.42.068-.855.123-1.307.173-.457.05-.9.073-1.33.073-1.087 0-2.08-.11-2.975-.338-.895-.228-1.668-.608-2.312-1.138-.644-.53-1.148-1.233-1.513-2.102-.37-.873-.553-1.965-.553-3.282v-5.835h3.528zM352.124 350.386c.836 0 1.572-.018 2.217-.06.645-.036 1.182-.104 1.613-.206v-5.876c-.25-.124-.664-.229-1.235-.32a13.895 13.895 0 00-2.065-.132c-.53 0-1.092.037-1.686.114a5.186 5.186 0 00-1.628.476 3.463 3.463 0 00-1.233.982c-.329.416-.493.969-.493 1.65 0 1.266.406 2.139 1.215 2.632.81.493 1.905.74 3.295.74zm-.302-17.658c1.414 0 2.61.183 3.584.548.969.365 1.754.882 2.348 1.555a5.854 5.854 0 011.266 2.385c.256.923.38 1.941.38 3.053v12.315c-.301.05-.727.12-1.266.206-.544.091-1.157.174-1.842.246a69.39 69.39 0 01-2.217.212c-.795.063-1.585.095-2.367.095a12.98 12.98 0 01-3.07-.343c-.934-.23-1.742-.585-2.427-1.079a4.96 4.96 0 01-1.591-1.95c-.38-.81-.566-1.783-.566-2.92 0-1.089.219-2.02.662-2.807a5.298 5.298 0 011.8-1.892c.76-.48 1.642-.832 2.65-1.06a14.411 14.411 0 013.186-.343c.353 0 .722.018 1.098.056.38.04.74.09 1.083.155.339.064.634.118.89.168.252.051.43.087.53.114v-.987c0-.58-.063-1.155-.191-1.723a3.879 3.879 0 00-.682-1.516c-.329-.443-.777-.796-1.343-1.06-.571-.266-1.307-.398-2.216-.398-1.165 0-2.18.082-3.054.246-.871.165-1.52.335-1.95.512l-.415-2.92c.452-.2 1.21-.398 2.27-.585a19.499 19.499 0 013.45-.283zM378.616 341.177c.023-1.595-.375-2.897-1.197-3.92-.818-1.023-1.951-1.54-3.392-1.54-.808 0-1.52.159-2.139.475-.62.32-1.142.727-1.57 1.233a5.603 5.603 0 00-1.006 1.741 8.64 8.64 0 00-.476 2.012h9.78zm-13.531 1.934c0-1.746.255-3.267.758-4.57.508-1.298 1.175-2.376 2.01-3.24a8.183 8.183 0 012.88-1.929 9.02 9.02 0 013.336-.644c2.651 0 4.684.827 6.101 2.48 1.412 1.655 2.12 4.173 2.12 7.56v.59c0 .237-.014.461-.037.662h-13.49c.151 2.043.745 3.602 1.778 4.661 1.038 1.061 2.655 1.591 4.853 1.591 1.238 0 2.28-.105 3.126-.325.846-.21 1.486-.42 1.914-.62l.494 2.956c-.429.229-1.183.466-2.257.717-1.074.251-2.29.38-3.657.38-1.716 0-3.203-.26-4.45-.778-1.252-.516-2.28-1.233-3.09-2.138a8.758 8.758 0 01-1.8-3.24c-.393-1.253-.59-2.623-.589-4.113zM402.225 333.216v2.958h-6.402v16.754h-3.53v-16.754h-6.401v-2.958h16.333zM419.243 341.177c.023-1.595-.375-2.897-1.197-3.92-.818-1.023-1.953-1.54-3.392-1.54-.808 0-1.52.159-2.139.475a5.02 5.02 0 00-1.571 1.233 5.53 5.53 0 00-1.005 1.741 8.635 8.635 0 00-.476 2.012h9.78zm-13.531 1.934c0-1.746.251-3.267.758-4.57.507-1.298 1.175-2.376 2.006-3.24a8.23 8.23 0 012.884-1.929 9.004 9.004 0 013.336-.644c2.651 0 4.684.827 6.1 2.48 1.413 1.655 2.12 4.173 2.12 7.56v.59c.001.237-.013.461-.036.662h-13.49c.151 2.043.74 3.602 1.778 4.661 1.038 1.061 2.654 1.591 4.853 1.591 1.238 0 2.28-.105 3.126-.325.846-.21 1.485-.42 1.914-.62l.49 2.956c-.43.229-1.18.466-2.254.717-1.073.251-2.293.38-3.656.38-1.717 0-3.203-.26-4.455-.778-1.247-.516-2.281-1.233-3.085-2.138a8.76 8.76 0 01-1.801-3.24c-.392-1.253-.59-2.623-.588-4.113zM441.6 341.52c0 1.184.082 2.309.246 3.368.165 1.065.452 1.998.872 2.806.417.81.978 1.45 1.687 1.915.704.466 1.618.7 2.728.7.96 0 1.782-.183 2.464-.549a4.631 4.631 0 001.667-1.495c.426-.634.745-1.37.947-2.22.2-.846.3-1.75.3-2.706a12.156 12.156 0 00-.246-2.504 5.753 5.753 0 00-.887-2.157 4.676 4.676 0 00-1.727-1.517c-.716-.38-1.622-.571-2.71-.571-1.06 0-2.08.228-3.048.685-.973.452-1.723 1.01-2.258 1.663-.022.279-.036.673-.036 1.18v1.402zm.228-6.027a8.427 8.427 0 012.746-1.458c1.047-.343 2.052-.511 3.012-.511 2.83-.001 4.972.862 6.424 2.594 1.455 1.728 2.18 4.136 2.18 7.22a13.499 13.499 0 01-.53 3.79 9.357 9.357 0 01-1.65 3.222c-.743.932-1.685 1.677-2.824 2.234-1.137.553-2.49.832-4.053.832-1.796 0-3.285-.33-4.475-.982a7.518 7.518 0 01-2.824-2.692c-.694-1.139-1.178-2.464-1.457-3.98a26.59 26.59 0 01-.416-4.813c.001-2.198.156-4.245.476-6.137.316-1.897.89-3.565 1.722-5.004.832-1.44 1.988-2.637 3.468-3.583 1.477-.947 3.377-1.585 5.704-1.914.681-.102 1.28-.18 1.8-.243l1.362-.173c.394-.05.754-.107 1.083-.17.325-.063.667-.132 1.025-.21l.38 3.184c-.18.05-.362.088-.555.116-.185.022-.452.063-.794.114-.343.05-.796.114-1.367.187a93.63 93.63 0 01-2.216.265c-2.5.278-4.419 1.037-5.758 2.276-1.34 1.238-2.162 3.18-2.463 5.836zM475.855 343.07c0-2.222-.498-3.985-1.494-5.283-1.001-1.303-2.359-1.951-4.073-1.951-1.721 0-3.079.649-4.075 1.95-1 1.299-1.499 3.063-1.499 5.284 0 2.225.498 3.99 1.499 5.287.996 1.302 2.352 1.951 4.075 1.951 1.715 0 3.072-.649 4.073-1.95.996-1.299 1.494-3.063 1.494-5.289zm3.68 0c0 1.567-.23 2.984-.683 4.245-.456 1.265-1.092 2.353-1.914 3.259A8.392 8.392 0 01474 352.68c-1.138.49-2.376.736-3.712.736-1.343 0-2.581-.246-3.715-.736a8.415 8.415 0 01-2.938-2.106c-.821-.906-1.457-1.993-1.915-3.26-.452-1.26-.68-2.677-.68-4.245 0-1.54.228-2.947.68-4.223.458-1.274 1.092-2.366 1.915-3.28a8.438 8.438 0 012.938-2.102c1.135-.49 2.372-.736 3.715-.736 1.336 0 2.574.246 3.712.736a8.414 8.414 0 012.938 2.102c.824.914 1.458 2.006 1.914 3.28.454 1.276.682 2.683.683 4.224zM492.307 336.174c0 .836-.022 1.727-.06 2.672a41.928 41.928 0 01-.205 2.844 34.725 34.725 0 01-.42 2.8 17.89 17.89 0 01-.682 2.597 12.424 12.424 0 01-1.042 2.276 7.815 7.815 0 01-1.535 1.878 8.17 8.17 0 01-2.12 1.361c-.809.366-1.756.599-2.843.704l-.493-2.956c1.238-.252 2.216-.723 2.938-1.403.718-.682 1.293-1.517 1.723-2.504.38-.855.658-1.828.837-2.916.173-1.088.3-2.217.378-3.392.074-1.173.12-2.357.128-3.545.014-1.184.024-2.313.024-3.374h13.11v19.712h-3.522v-16.754h-6.217zM516.523 350.464c1.49 0 2.665-.293 3.524-.873.858-.58 1.288-1.517 1.288-2.806 0-.631-.128-1.174-.38-1.627a3.133 3.133 0 00-1.04-1.12 4.714 4.714 0 00-1.537-.643 8.05 8.05 0 00-1.855-.212 37.9 37.9 0 00-2.106.06c-.718.036-1.33.12-1.839.247l.001 6.782c.156.027.379.05.68.078.308.023.64.045 1.006.054a90.199 90.199 0 002.258.06zm-7.467 2.048v-19.296h3.524v7.545c.206-.054.474-.105.817-.154.338-.05.704-.101 1.097-.152a19.265 19.265 0 012.445-.15c1.088 0 2.106.12 3.071.362.96.237 1.8.616 2.517 1.137a5.633 5.633 0 011.723 2.007c.432.82.645 1.8.645 2.938 0 1.187-.2 2.198-.603 3.03a5.267 5.267 0 01-1.745 2.046c-.76.531-1.66.915-2.71 1.157-1.047.242-2.217.361-3.506.361-1.26 0-2.5-.068-3.715-.21a30.53 30.53 0 01-3.56-.621zM530.014 352.928v-19.712h3.524v16.79h7.28v-16.79h3.523v16.79h7.275v-16.79h3.523v19.712h-25.125zM574.58 341.177c.023-1.595-.375-2.897-1.193-3.92-.823-1.023-1.951-1.54-3.392-1.54-.808 0-1.526.159-2.142.475a5.13 5.13 0 00-1.573 1.233 5.736 5.736 0 00-1.005 1.741 8.629 8.629 0 00-.47 2.012h9.775zm-13.532 1.934c0-1.746.256-3.267.759-4.57.508-1.298 1.179-2.376 2.01-3.24a8.223 8.223 0 012.879-1.929 9.026 9.026 0 013.337-.644c2.652 0 4.688.827 6.1 2.48 1.417 1.655 2.126 4.173 2.126 7.56v.59c0 .237-.015.461-.042.662h-13.49c.151 2.043.745 3.602 1.782 4.661 1.038 1.061 2.65 1.591 4.849 1.591 1.238 0 2.28-.105 3.126-.325.846-.21 1.484-.42 1.915-.62l.493 2.956c-.429.229-1.179.466-2.253.717-1.079.251-2.294.38-3.66.38-1.718 0-3.204-.26-4.452-.778-1.251-.516-2.28-1.233-3.09-2.138-.807-.915-1.406-1.993-1.8-3.24-.392-1.253-.59-2.623-.59-4.113z" fill="#1b1918"/></g></svg></svg>