<?xml version="1.0" encoding="utf-8"?><svg viewBox="0 0 512 512" xmlns="http://www.w3.org/2000/svg" xmlns:xlink="http://www.w3.org/1999/xlink"><style>:root>svg{display:none}:root>svg:target{display:block}</style><svg viewBox="0 0 156.23 254.64" id="arrow_left-small" xmlns="http://www.w3.org/2000/svg"><defs><style>.acls-1{fill:none;stroke:#161313;stroke-linecap:square;stroke-linejoin:bevel;stroke-width:45px}</style></defs><g id="aСлой_2" data-name="Слой 2"><path class="acls-1" d="M98.41 222.82l-82.5-82.5 108.5-108.5" id="aСлой_1-2" data-name="Слой 1"/></g></svg><svg viewBox="0 0 156.23 254.64" id="arrow_right-small" xmlns="http://www.w3.org/2000/svg"><defs><style>.bcls-1{fill:none;stroke:#161313;stroke-linecap:square;stroke-linejoin:bevel;stroke-width:45px}</style></defs><g id="bСлой_2" data-name="Слой 2"><path class="bcls-1" d="M57.82 31.82l82.5 82.5-108.5 108.5" id="bСлой_1-2" data-name="Слой 1"/></g></svg><svg viewBox="0 0 205 109.69" id="aside__item-1" xmlns="http://www.w3.org/2000/svg"><defs><style>.ccls-1{fill:#b22825}.ccls-2{fill:none;stroke:#b22825;stroke-linecap:round;stroke-linejoin:round;stroke-width:4px}</style></defs><g id="cСлой_2" data-name="Слой 2"><g id="cСлой_1-2" data-name="Слой 1"><path class="ccls-1" d="M174 4v49.74H31V4h143m.09-4H30.92A3.91 3.91 0 0027 3.91v49.93a3.91 3.91 0 003.91 3.9h143.2a3.91 3.91 0 003.91-3.9V3.91a3.91 3.91 0 00-3.9-3.91z"/><path class="ccls-2" d="M102.52 2.82v44.89"/><path class="ccls-1" d="M19.15 33.32a8 8 0 018 8v12.42H4.5V33.32h14.65m0-4H2.46a2 2 0 00-2 2v24.5a2 2 0 002 2h26.69a2 2 0 002-2V41.28a12 12 0 00-12-12zM200.5 33.32v20.42h-22.61V41.27a8 8 0 018-8h14.61m2.05-4h-16.71a12 12 0 00-12 12v14.52a2 2 0 002 2h26.71a2 2 0 001.95-2V31.27a2 2 0 00-1.95-1.95z"/><path class="ccls-1" d="M201 58.49v24.06a3 3 0 01-3 3H7a3 3 0 01-3-3V58.49h197m1.73-4H2.27A2.28 2.28 0 000 56.77v25.78a7 7 0 007 7h191a7 7 0 007-7V56.77a2.28 2.28 0 00-2.27-2.28z"/><path class="ccls-2" d="M29.17 107.69V89.33M175.95 107.69V89.33"/><path class="ccls-1" d="M56.11 23.5c2.58 0 2.58-4 0-4s-2.58 4 0 4zM77.66 23.5c2.57 0 2.58-4 0-4s-2.58 4 0 4zM77.66 41.31c2.57 0 2.58-4 0-4s-2.58 4 0 4zM56.11 41c2.58 0 2.58-4 0-4s-2.58 4 0 4zM125.5 23.5c2.57 0 2.58-4 0-4s-2.58 4 0 4zM147.05 23.5c2.57 0 2.58-4 0-4s-2.58 4 0 4zM147.05 41.31c2.57 0 2.58-4 0-4s-2.58 4 0 4zM125.5 41c2.57 0 2.58-4 0-4s-2.58 4 0 4z"/></g></g></svg><svg viewBox="0 0 169.09 169.09" id="aside__item-10" xmlns="http://www.w3.org/2000/svg"><defs><style>.dcls-1,.dcls-3{fill:#b22825}.dcls-2{fill:#fff}.dcls-3{font-size:75.01px;font-family:Ponder-BlackItalic,Ponder BlackItalic;font-weight:800;font-style:italic}</style></defs><g id="dСлой_2" data-name="Слой 2"><g id="dСлой_1-2" data-name="Слой 1"><path class="dcls-1" d="M117 8.7H52.08a19.62 19.62 0 00-17 9.81L2.63 74.73a19.61 19.61 0 000 19.63l32.46 56.22a19.62 19.62 0 0017 9.81H117a19.61 19.61 0 0017-9.81l32.46-56.22a19.61 19.61 0 000-19.63L134 18.51a19.61 19.61 0 00-17-9.81z"/><path class="dcls-1" d="M74.73 2.63L18.51 35.09a19.62 19.62 0 00-9.81 17V117a19.61 19.61 0 009.81 17l56.22 32.46a19.61 19.61 0 0019.63 0L150.58 134a19.61 19.61 0 009.81-17V52.08a19.62 19.62 0 00-9.81-17L94.36 2.63a19.61 19.61 0 00-19.63 0z"/><path class="dcls-2" d="M114.14 13.66H55a19.6 19.6 0 00-17 9.82L8.36 74.73a19.66 19.66 0 000 19.63L38 145.62a19.61 19.61 0 0017 9.81h59.19a19.61 19.61 0 0017-9.81l29.6-51.26a19.66 19.66 0 000-19.63l-29.6-51.25a19.6 19.6 0 00-17.05-9.82z"/><path class="dcls-2" d="M74.73 8.36L23.48 38a19.6 19.6 0 00-9.82 17v59.19a19.6 19.6 0 009.82 17l51.25 29.6a19.66 19.66 0 0019.63 0l51.26-29.6a19.61 19.61 0 009.81-17V55a19.61 19.61 0 00-9.81-17L94.36 8.36a19.66 19.66 0 00-19.63 0z"/><text class="dcls-3" transform="translate(49.8 112.76)">%</text></g></g></svg><svg viewBox="0 0 210.5 105.5" id="aside__item-12" xmlns="http://www.w3.org/2000/svg"><defs><style>.ecls-1{fill:none;stroke:#b22825;stroke-linecap:round;stroke-linejoin:round;stroke-width:4px}</style></defs><g id="eСлой_2" data-name="Слой 2"><g id="eСлой_1-2" data-name="Слой 1"><path class="ecls-1" d="M52.5 89h-11V2h99v87h-43"/><circle class="ecls-1" cx="75" cy="88.5" r="15"/><circle class="ecls-1" cx="178" cy="88.5" r="15"/><path class="ecls-1" d="M156.5 89h-5V26h38l19 26v37h-8"/><path class="ecls-1" d="M178.5 33v23h22M32 12H17M32 28H2M32 44H22"/></g></g></svg><svg viewBox="0 0 175.67 182.8" id="aside__item-13" xmlns="http://www.w3.org/2000/svg"><defs><style>.fcls-1{fill:none;stroke:#212121;stroke-linecap:round;stroke-linejoin:round;stroke-width:14px}</style></defs><g id="fСлой_2" data-name="Слой 2"><g id="fСлой_1-2" data-name="Слой 1"><path class="fcls-1" d="M7 175.8a80.84 80.84 0 01161.67 0M7 175.8h161.67"/><circle class="fcls-1" cx="87.48" cy="43.32" r="36.32"/></g></g></svg><svg viewBox="0 0 250 222.42" id="aside__item-14" xmlns="http://www.w3.org/2000/svg"><g data-name="Слой 2"><path d="M125 222.42a14.65 14.65 0 01-9.66-3.63c-10.1-8.83-19.84-17.13-28.43-24.45C61.68 172.84 39.93 154.3 24.8 136 7.88 115.63 0 96.28 0 75.13c0-20.54 7-39.49 19.83-53.36A67.22 67.22 0 0169.84 0a62.86 62.86 0 0139.28 13.56A80.46 80.46 0 01125 30.14a80.46 80.46 0 0115.88-16.58A62.88 62.88 0 01180.16 0a67.22 67.22 0 0150 21.77C243 35.64 250 54.59 250 75.13c0 21.15-7.88 40.5-24.79 60.91-15.14 18.26-36.88 36.79-62.07 58.26-8.6 7.33-18.36 15.64-28.48 24.49a14.65 14.65 0 01-9.66 3.63zM69.84 14.64A52.76 52.76 0 0030.6 31.69c-10.29 11.16-16 26.59-16 43.44 0 17.78 6.61 33.69 21.43 51.57 14.36 17.3 35.67 35.43 60.33 56.46 8.62 7.35 18.4 15.68 28.57 24.58 10.23-8.91 20-17.26 28.66-24.62 24.67-21 46-39.17 60.29-56.45 14.82-17.88 21.43-33.79 21.43-51.57 0-16.85-5.67-32.28-16-43.44a52.74 52.74 0 00-39.24-17 48.6 48.6 0 00-30.32 10.5 71 71 0 00-16.9 19.56 9.24 9.24 0 01-15.88 0 71 71 0 00-16.9-19.56 48.6 48.6 0 00-30.23-10.52z" data-name="Слой 1"/></g></svg><svg viewBox="0 0 184.68 97.62" id="aside__item-2" xmlns="http://www.w3.org/2000/svg"><defs><style>.hcls-1{fill:#b22825}</style></defs><g id="hСлой_2" data-name="Слой 2"><g id="hСлой_1-2" data-name="Слой 1"><rect class="hcls-1" x=".45" width="4" height="55.38" rx="2"/><rect class="hcls-1" x="43.21" y="26.59" width="97.68" height="4" rx="2"/><rect class="hcls-1" y="51.56" width="49.23" height="4" rx="2"/><rect class="hcls-1" x="58.49" y="29.31" width="3" height="67.69" rx="1.5"/><rect class="hcls-1" x="123.72" y="29.31" width="3" height="67.69" rx="1.5"/><rect class="hcls-1" x="7.57" y="53.92" width="3" height="43.08" rx="1.5"/><rect class="hcls-1" x="39.57" y="53.92" width="3" height="43.08" rx="1.5"/><rect class="hcls-1" x="180.22" width="4" height="55.38" rx="2"/><rect class="hcls-1" x="135.45" y="52.01" width="49.23" height="4" rx="2"/><rect class="hcls-1" x="174.11" y="54.54" width="3" height="43.08" rx="1.5"/><rect class="hcls-1" x="143.34" y="54.54" width="3" height="43.08" rx="1.5"/></g></g></svg><svg viewBox="0 0 204 187.41" id="aside__item-3" xmlns="http://www.w3.org/2000/svg"><defs><style>.icls-1,.icls-2,.icls-3{fill:none;stroke:#b22825;stroke-linejoin:round}.icls-1,.icls-2{stroke-width:4px}.icls-2,.icls-3{stroke-linecap:round}.icls-3{stroke-width:3px}</style></defs><g id="iСлой_2" data-name="Слой 2"><g id="iСлой_1-2" data-name="Слой 1"><path class="icls-1" d="M2 2h200v160.92H2z"/><path class="icls-2" d="M52.57 73.26v22.99M91.66 73.26v22.99M151.43 73.26v22.99"/><path class="icls-3" d="M183.61 162.92v22.99M24.99 162.92v22.99M70.97 2v160.92M133.03 2v160.92"/></g></g></svg><svg viewBox="0 0 200 158.92" id="aside__item-3_1" xmlns="http://www.w3.org/2000/svg"><defs><style>.jcls-1{fill:#b22825}.jcls-2{fill:none;stroke:#b22825;stroke-linecap:round;stroke-linejoin:round;stroke-width:3px}</style></defs><g id="jСлой_2" data-name="Слой 2"><g id="jСлой_1-2" data-name="Слой 1"><path class="jcls-1" d="M197 107.42v27.33H3v-27.33h194m3-3H0v33.33h200v-33.33z"/><path class="jcls-1" d="M175.43 72.08A38.2 38.2 0 01191 85.33a36.1 36.1 0 016 18.25H3.09a39.11 39.11 0 016-18.31 41.62 41.62 0 0113.5-13.19h152.84m.65-3H21.75A44.73 44.73 0 006.53 83.67 42.34 42.34 0 000 106.58h200a38.84 38.84 0 00-6.52-22.91 41.52 41.52 0 00-17.37-14.59z"/><path class="jcls-2" d="M11.98 157.42v-20.84M189.06 157.42v-20.84M24.48 1.5h150v68.75h-150z"/><path class="jcls-2" d="M46.14 32.75h42.09a5 5 0 015 5v32.5H41.14v-32.5a5 5 0 015-5zM114.89 32.75H157a5 5 0 015 5v32.5h-52.11v-32.5a5 5 0 015-5z"/></g></g></svg><svg viewBox="0 0 200 158.92" id="aside__item-4" xmlns="http://www.w3.org/2000/svg"><defs><style>.kcls-1{fill:#b22825}.kcls-2{fill:none;stroke:#b22825;stroke-linecap:round;stroke-linejoin:round;stroke-width:3px}</style></defs><g id="kСлой_2" data-name="Слой 2"><g id="kСлой_1-2" data-name="Слой 1"><path class="kcls-1" d="M197 107.42v27.33H3v-27.33h194m3-3H0v33.33h200v-33.33z"/><path class="kcls-1" d="M175.43 72.08A38.2 38.2 0 01191 85.33a36.1 36.1 0 016 18.25H3.09a39.11 39.11 0 016-18.31 41.62 41.62 0 0113.5-13.19h152.84m.65-3H21.75A44.73 44.73 0 006.53 83.67 42.34 42.34 0 000 106.58h200a38.84 38.84 0 00-6.52-22.91 41.52 41.52 0 00-17.37-14.59z"/><path class="kcls-2" d="M11.98 157.42v-20.84M189.06 157.42v-20.84M24.48 1.5h150v68.75h-150z"/><path class="kcls-2" d="M46.14 32.75h42.09a5 5 0 015 5v32.5H41.14v-32.5a5 5 0 015-5zM114.89 32.75H157a5 5 0 015 5v32.5h-52.11v-32.5a5 5 0 015-5z"/></g></g></svg><svg viewBox="0 0 203 116.25" id="aside__item-5" xmlns="http://www.w3.org/2000/svg"><defs><style>.lcls-1{fill:none;stroke:#b22825;stroke-linecap:round;stroke-linejoin:round;stroke-width:3px}.lcls-2{fill:#b22825}</style></defs><g id="lСлой_2" data-name="Слой 2"><g id="lСлой_1-2" data-name="Слой 1"><path class="lcls-1" d="M1.5 1.5h200v113.25H1.5zM88.25 1.5v113.25M200.3 32.83H89.45"/><path class="lcls-1" d="M113.55 56.92h62.65v33.73h-62.65zM20.78 44.87v24.1"/><path class="lcls-2" d="M118 19.75c2.58 0 2.58-4 0-4s-2.57 4 0 4zM135.64 19.75c2.58 0 2.58-4 0-4s-2.57 4 0 4zM153.74 19.75c2.57 0 2.57-4 0-4s-2.58 4 0 4zM170.92 19.75c2.58 0 2.58-4 0-4s-2.57 4 0 4z"/></g></g></svg><svg viewBox="0 0 164.86 138.28" id="aside__item-6" xmlns="http://www.w3.org/2000/svg"><defs><style>.mcls-1{fill:#b22825}</style></defs><g id="mСлой_2" data-name="Слой 2"><g id="mСлой_1-2" data-name="Слой 1"><path class="mcls-1" d="M2 138.15a1.87 1.87 0 01-1.87-1.87v-126a1.88 1.88 0 113.75 0v126A1.88 1.88 0 012 138.15z"/><path class="mcls-1" d="M2 8.53a1.75 1.75 0 011.75 1.75v126a1.75 1.75 0 01-3.5 0v-126A1.75 1.75 0 012 8.53m0-.25a2 2 0 00-2 2v126a2 2 0 004 0v-126a2 2 0 00-2-2z"/><rect class="mcls-1" x="16.61" y="26.28" width="3" height="80" rx="1.5"/><rect class="mcls-1" x="40.86" y="26.28" width="3" height="80" rx="1.5"/><rect class="mcls-1" x="67.12" y="26.28" width="3" height="80" rx="1.5"/><rect class="mcls-1" x="93.38" y="26.28" width="3" height="80" rx="1.5"/><rect class="mcls-1" x="118.64" y="26.28" width="3" height="80" rx="1.5"/><rect class="mcls-1" x="145.89" y="26.28" width="3" height="80" rx="1.5"/><rect class="mcls-1" x="160.86" y="8.28" width="4" height="130" rx="2"/><rect class="mcls-1" x="2.75" y="102.28" width="160" height="4" rx="2"/><rect class="mcls-1" x="2.75" y="25.78" width="160" height="3" rx="1.5"/><path class="mcls-1" d="M2 4c2.54 0 2.55-4 0-4S-.61 4 2 4zM162.86 4c2.57 0 2.58-4 0-4s-2.58 4 0 4z"/></g></g></svg><svg viewBox="0 0 200 109.41" id="aside__item-7" xmlns="http://www.w3.org/2000/svg"><defs><style>.ncls-1{fill:#b22825}.ncls-2{fill:none;stroke:#b22825;stroke-miterlimit:10;stroke-width:3px}</style></defs><g id="nСлой_2" data-name="Слой 2"><g id="nСлой_1-2" data-name="Слой 1"><path class="ncls-1" d="M163.33 4a6 6 0 016 6v45.67a7 7 0 01-7 7H98.15a6 6 0 01-6-6V10a6 6 0 016-6h65.18m0-4H98.15a10 10 0 00-10 10v46.67a10 10 0 0010 10h64.18a11 11 0 0011-11V10a10 10 0 00-10-10z"/><rect class="ncls-1" y="105.41" width="200" height="4" rx="2"/><path class="ncls-1" d="M140 29.54a1.2 1.2 0 01.9.41l17.54 18.44a1.71 1.71 0 01.31 1.84 1.3 1.3 0 01-1.18.88l-35.78.7a1.3 1.3 0 01-1.19-.86 1.69 1.69 0 01.3-1.86L139.09 30a1.2 1.2 0 01.89-.41m0-3a4.24 4.24 0 00-3.07 1.34L118.71 47c-2.74 2.88-.79 7.78 3.06 7.78h.09l35.74-.7c3.83-.07 5.7-4.94 3-7.79l-17.55-18.41a4.24 4.24 0 00-3.05-1.34z"/><path class="ncls-1" d="M117.69 35.53a.35.35 0 01.24.12l13.79 14.5a.68.68 0 01.11.76c-.12.29-.29.29-.35.29l-28.11.55c-.06 0-.22 0-.34-.29a.68.68 0 01.11-.76l14.31-15.05a.35.35 0 01.24-.12m0-3a3.31 3.31 0 00-2.41 1L101 48.63c-2.16 2.27-.62 6.12 2.4 6.12h.07l28.1-.55a3.61 3.61 0 002.35-6.12l-13.82-14.5a3.31 3.31 0 00-2.41-1z"/><path class="ncls-2" d="M32.59 78.52c-.23 8.36 12.08 19.94 15.45 23a2.92 2.92 0 002 .74h10.2a3 3 0 002.13-.91C65.52 98 76 86.4 75.56 78.52c-.75-13.84-14.44-16.64-14.08-28.89.2-6.63 3.68-12.85 6.52-16.85a2.93 2.93 0 00-2.38-4.63H42.5a2.93 2.93 0 00-2.39 4.63c2.87 4 6.35 10.18 6.56 16.85.38 12.45-13.67 15.42-14.08 28.89z"/></g></g></svg><svg viewBox="0 0 205.54 96.39" id="aside__item-8" xmlns="http://www.w3.org/2000/svg"><defs><style>.ocls-1{fill:#b22825}</style></defs><g id="oСлой_2" data-name="Слой 2"><g id="oСлой_1-2" data-name="Слой 1"><rect class="ocls-1" x="38.21" y="12.23" width="128.88" height="4" rx="2"/><rect class="ocls-1" x="101.47" y="12.62" width="3" height="83.78" rx="1.5"/><rect class="ocls-1" x="165.31" y="25.37" width="58" height="4" rx="2" transform="rotate(-70 194.308 27.372)"/><rect class="ocls-1" x="122" y="50.89" width="64.44" height="4" rx="2"/><rect class="ocls-1" x="152.4" y="44.94" width="3" height="58" rx="1.5" transform="rotate(-45 153.898 73.943)"/><rect class="ocls-1" x="124.26" y="72.44" width="58" height="3" rx="1.5" transform="rotate(-45 153.248 73.943)"/><rect class="ocls-1" x="9.23" y="-1.63" width="4" height="58" rx="2" transform="rotate(-20 11.228 27.358)"/><rect class="ocls-1" x="19.1" y="50.89" width="64.44" height="4" rx="2"/><rect class="ocls-1" x="22.65" y="72.44" width="58" height="3" rx="1.5" transform="rotate(-45 51.65 73.946)"/><rect class="ocls-1" x="50.79" y="44.94" width="3" height="58" rx="1.5" transform="rotate(-45 52.288 73.942)"/></g></g></svg><svg viewBox="0 0 132.2 154.3" id="aside__item-9" xmlns="http://www.w3.org/2000/svg"><defs><style>.pcls-1,.pcls-2,.pcls-3,.pcls-4{fill:none;stroke:#b22825}.pcls-1{stroke-linecap:round}.pcls-1,.pcls-4{stroke-linejoin:round}.pcls-1,.pcls-2,.pcls-4{stroke-width:3px}.pcls-2,.pcls-3{stroke-miterlimit:10}.pcls-3{stroke-width:4px}</style></defs><g id="pСлой_2" data-name="Слой 2"><g id="pСлой_1-2" data-name="Слой 1"><path class="pcls-1" d="M1.5 1.5h129.2v151.3H1.5z"/><path class="pcls-2" d="M1.5 35.5h129.2"/><circle class="pcls-3" cx="66.1" cy="93.72" r="35"/><circle class="pcls-3" cx="66.02" cy="93.72" r="24"/><path class="pcls-4" d="M92.25 9.72h31v18h-31z"/><circle class="pcls-2" cx="22.75" cy="18.22" r="4.5"/><circle class="pcls-2" cx="38.75" cy="18.22" r="1.5"/><circle class="pcls-2" cx="50.75" cy="18.22" r="1.5"/></g></g></svg><svg version="1.1" id="footer_social-1" x="0" y="0" viewBox="0 0 512 512" xml:space="preserve" xmlns="http://www.w3.org/2000/svg"><style>.qst0{fill:#1d81ce}.qst1{fill:#126db1}.qst2{fill:#fcfcfc}</style><circle class="qst0" cx="256" cy="256" r="256"/><path class="qst1" d="M256 0c-11.3 0-22.5.7-33.4 2.2C348.2 18.5 445.2 125.9 445.2 256s-97 237.5-222.6 253.8c10.9 1.4 22.1 2.2 33.4 2.2 141.4 0 256-114.6 256-256S397.4 0 256 0z"/><path class="qst2" d="M167 256.1v9.5c0 .9-.7 1.6-1.6 1.6H95.7c-3.7 0-6.6 3-6.6 6.6v64.7c0 3.7 3 6.6 6.6 6.6h69.7c.9 0 1.6.7 1.6 1.6v148.4c0 .7.4 1.3 1.1 1.5 23.6 8.7 48.9 13.9 75.2 15.2.9 0 1.7-.7 1.7-1.6V346.8c0-.9.7-1.6 1.6-1.6h114.2c3.7 0 6.6-3 6.6-6.6v-64.7c0-3.7-3-6.6-6.6-6.6H246.5c-.9 0-1.6-.7-1.6-1.6v-9.5c0-43.1 34.9-66.8 77.9-66.8h37.9c3.7 0 6.6-3 6.6-6.6v-64.7c0-3.7-3-6.6-6.6-6.6h-37.9c-79.9-.2-155.8 64.6-155.8 144.6z"/></svg><svg version="1.1" id="footer_social-2" x="0" y="0" viewBox="0 0 112.2 112.2" xml:space="preserve" xmlns="http://www.w3.org/2000/svg"><style>.rst0{fill:#4d76a1}.rst1{fill-rule:evenodd;clip-rule:evenodd;fill:#fff}.rst2{opacity:.5;fill:#356a9b;enable-background:new}</style><circle id="rXMLID_11_" class="rst0" cx="56.1" cy="56.1" r="56.1"/><path class="rst1" d="M54 80.7h4.4s1.3-.1 2-.9c.6-.7.6-1.9.6-1.9s-.1-5.9 2.7-6.8c2.7-.9 6.2 5.7 9.9 8.2 2.8 1.9 4.9 1.5 4.9 1.5l9.8-.1s5.1-.3 2.7-4.4c-.2-.3-1.4-3-7.3-8.5-6.2-5.7-5.3-4.8 2.1-14.7 4.5-6 6.3-9.7 5.8-11.3-.5-1.5-3.9-1.1-3.9-1.1l-11.1.1s-.8-.1-1.4.3c-.6.4-1 1.2-1 1.2S72.4 47 70 50.9c-4.9 8.4-6.9 8.8-7.7 8.3-1.9-1.2-1.4-4.9-1.4-7.5 0-8.1 1.2-11.5-2.4-12.4-1.2-.3-2.1-.5-5.2-.5-4 0-7.3 0-9.2.9-1.3.6-2.2 2-1.6 2.1.7.1 2.4.4 3.3 1.6 1.1 1.5 1.1 5 1.1 5s.7 9.6-1.5 10.7c-1.5.8-3.5-.8-7.9-8.4-2.3-3.9-4-8.2-4-8.2s-.3-.8-.9-1.2c-.7-.5-1.7-.7-1.7-.7l-10.5.1s-1.6 0-2.2.7c-.5.6 0 1.9 0 1.9s8.2 19.3 17.6 29c8.5 9 18.2 8.4 18.2 8.4z"/><path class="rst2" d="M56.2.1c-2.5 0-4.9.2-7.3.5 27.5 3.6 48.7 27.1 48.7 55.5S76.4 108 48.9 111.6c2.4.3 4.8.5 7.3.5 30.9 0 56-25.1 56-56S87.1.1 56.2.1z"/></svg><svg version="1.1" id="footer_social-3" x="0" y="0" viewBox="0 0 512 512" xml:space="preserve" xmlns="http://www.w3.org/2000/svg"><style>.sst0{fill:#ef72ad}.sst1{fill:#ee539e}.sst2{fill:#fff}</style><circle class="sst0" cx="256" cy="256" r="256"/><path class="sst1" d="M256 0c-11.3 0-22.5.7-33.4 2.2C348.2 18.5 445.2 125.9 445.2 256s-97 237.5-222.6 253.8c10.9 1.4 22.1 2.2 33.4 2.2 141.4 0 256-114.6 256-256S397.4 0 256 0z"/><path class="sst2" d="M350.8 91.8H161.2c-38.2 0-69.3 31.1-69.3 69.3v189.7c0 38.2 31.1 69.3 69.3 69.3h189.7c38.2 0 69.3-31.1 69.3-69.3V161.2c0-38.3-31.1-69.4-69.4-69.4zm52.7 259c0 29-23.6 52.6-52.6 52.6H161.2c-29 0-52.6-23.6-52.6-52.6V161.2c0-29 23.6-52.6 52.6-52.6h189.7c29 0 52.6 23.6 52.6 52.6v189.6z"/><path class="sst2" d="M256 169.7c-47.6 0-86.3 38.7-86.3 86.3s38.7 86.3 86.3 86.3 86.3-38.7 86.3-86.3-38.7-86.3-86.3-86.3zm0 155.9c-38.4 0-69.6-31.2-69.6-69.6s31.2-69.6 69.6-69.6 69.6 31.2 69.6 69.6-31.2 69.6-69.6 69.6z"/><circle class="sst2" cx="345" cy="155.8" r="22.3"/></svg></svg>